<svg xmlns="http://www.w3.org/2000/svg" width="46.156" height="25.416" viewBox="0 0 46.156 25.416">
  <g id="Animated_Headline" data-name="Animated Headline" transform="translate(-1501.488 223)">
    <path id="header-1" d="M7.59,4.973a2.816,2.816,0,0,0-.4.038H3.408a1.408,1.408,0,1,0,0,2.816H5.816l-2,19.709H1.408a1.408,1.408,0,1,0,0,2.816H5.175a2.816,2.816,0,0,0,.913,0H9.855a1.408,1.408,0,1,0,0-2.816H8.447l2-8.447H21.709l-2,8.447H18.3a1.408,1.408,0,1,0,0,2.816h3.767a2.816,2.816,0,0,0,.913,0h3.767a1.408,1.408,0,1,0,0-2.816H25.341l2-19.709h1.408a1.408,1.408,0,1,0,0-2.816H24.976a2.586,2.586,0,0,0-.894,0H20.3a1.408,1.408,0,1,0,0,2.816h1.408v8.447H10.447V7.827h1.408a1.408,1.408,0,1,0,0-2.816H8.082a2.816,2.816,0,0,0-.492-.038Z" transform="translate(1517.488 -227.973)" fill="#0080fb"/>
    <g id="Grupo_5567" data-name="Grupo 5567">
      <path id="Retângulo_1220" data-name="Retângulo 1220" d="M1.75,0H11a0,0,0,0,1,0,0V3.5a0,0,0,0,1,0,0H1.75A1.75,1.75,0,0,1,0,1.75v0A1.75,1.75,0,0,1,1.75,0Z" transform="translate(1505.488 -218)" fill="#6fb0ff"/>
      <path id="Retângulo_1221" data-name="Retângulo 1221" d="M1.75,0H13a0,0,0,0,1,0,0V3.5a0,0,0,0,1,0,0H1.75A1.75,1.75,0,0,1,0,1.75v0A1.75,1.75,0,0,1,1.75,0Z" transform="translate(1501.488 -212)" fill="#0080fc"/>
      <path id="Retângulo_1222" data-name="Retângulo 1222" d="M1.75,0H11a0,0,0,0,1,0,0V3.5a0,0,0,0,1,0,0H1.75A1.75,1.75,0,0,1,0,1.75v0A1.75,1.75,0,0,1,1.75,0Z" transform="translate(1505.488 -206)" fill="#6fb0ff"/>
    </g>
  </g>
</svg>
