<svg xmlns="http://www.w3.org/2000/svg" width="50.255" height="28.047" viewBox="0 0 50.255 28.047">
  <g id="Animated_Text" data-name="Animated Text" transform="translate(-1508.488 225)">
    <path id="lowercase" d="M17.361,4.973a2.756,2.756,0,0,0-.393.038H6.378A1.378,1.378,0,0,0,5,6.388V9.144a1.378,1.378,0,1,0,2.756,0V7.766h6.89l-.121.887L11.646,29.813H10.268a1.378,1.378,0,1,0,0,2.756h3.687a2.756,2.756,0,0,0,.894,0h3.687a1.378,1.378,0,1,0,0-2.756H17.157l3-22.047h6.89V9.144a1.378,1.378,0,1,0,2.756,0V6.388A1.378,1.378,0,0,0,28.425,5.01H17.843A2.756,2.756,0,0,0,17.361,4.973Z" transform="translate(1520.488 -229.973)" fill="#0080fc"/>
    <path id="lowercase-2" data-name="lowercase" d="M25.1,11.979a1.944,1.944,0,0,0-.283.028H19.5A1.283,1.283,0,0,0,18,13.3v1.3a1.3,1.3,0,1,0,2.592,0h2.592l-2,11.663a1.3,1.3,0,1,0,0,2.592h1.625a1.944,1.944,0,0,0,.63,0h1.632a1.3,1.3,0,1,0,0-2.592l2-11.663h2.592a1.3,1.3,0,1,0,2.592,0V13.3a1.289,1.289,0,0,0-1.5-1.3h-5.3a1.944,1.944,0,0,0-.349-.028Z" transform="translate(1526.488 -225.831)" fill="#6fb0ff"/>
    <g id="Grupo_5570" data-name="Grupo 5570" transform="translate(7)">
      <path id="Retângulo_1220" data-name="Retângulo 1220" d="M1.75,0H11a0,0,0,0,1,0,0V3.5a0,0,0,0,1,0,0H1.75A1.75,1.75,0,0,1,0,1.75v0A1.75,1.75,0,0,1,1.75,0Z" transform="translate(1505.488 -218)" fill="#6fb0ff"/>
      <path id="Retângulo_1221" data-name="Retângulo 1221" d="M1.75,0H13a0,0,0,0,1,0,0V3.5a0,0,0,0,1,0,0H1.75A1.75,1.75,0,0,1,0,1.75v0A1.75,1.75,0,0,1,1.75,0Z" transform="translate(1501.488 -212)" fill="#0080fc"/>
      <path id="Retângulo_1222" data-name="Retângulo 1222" d="M1.75,0H11a0,0,0,0,1,0,0V3.5a0,0,0,0,1,0,0H1.75A1.75,1.75,0,0,1,0,1.75v0A1.75,1.75,0,0,1,1.75,0Z" transform="translate(1505.488 -206)" fill="#6fb0ff"/>
    </g>
  </g>
</svg>
