<svg xmlns="http://www.w3.org/2000/svg" width="47.779" height="34.412" viewBox="0 0 47.779 34.412">
  <g id="Booking" transform="translate(0 0)">
    <g id="Grupo_4004" data-name="Grupo 4004" transform="translate(0 0)">
      <path id="Subtração_1" data-name="Subtração 1" d="M38.767,8.788H0V3A3,3,0,0,1,2.992,0H35.775a3,3,0,0,1,2.992,3V8.787ZM29.52,2.507A1.753,1.753,0,1,0,31.272,4.26,1.755,1.755,0,0,0,29.52,2.507Zm-20.247,0A1.753,1.753,0,1,0,11.026,4.26,1.755,1.755,0,0,0,9.274,2.507Z" transform="translate(0)" fill="#6fb0ff"/>
      <g id="Caminho_3141" data-name="Caminho 3141" transform="translate(0.074 9.461)" fill="none">
        <path d="M-.074-.008,38.692.039V21.215a3.8,3.8,0,0,1-3.861,3.737L3.787,24.905A3.8,3.8,0,0,1-.074,21.168Z" stroke="none"/>
        <path d="M 1.925655364990234 1.994888305664062 L 1.925655364990234 21.16831588745117 C 1.925655364990234 22.12605667114258 2.760475158691406 22.90522575378418 3.789596557617188 22.90522575378418 L 34.83129501342773 22.95151519775391 C 35.85743713378906 22.95151519775391 36.69225692749023 22.1723461151123 36.69225692749023 21.21461486816406 L 36.69225692749023 2.036409378051758 L 1.925655364990234 1.994888305664062 M -0.07434463500976562 -0.007503509521484375 L 38.69225692749023 0.03879547119140625 L 38.69225692749023 21.21461486816406 C 38.69225692749023 23.27845573425293 36.9636344909668 24.95151519775391 34.83129501342773 24.95151519775391 L 3.786617279052734 24.90522575378418 C 1.654266357421875 24.90522575378418 -0.07434463500976562 23.23215484619141 -0.07434463500976562 21.16831588745117 L -0.07434463500976562 -0.007503509521484375 Z" stroke="none" fill="#6fb0ff"/>
      </g>
      <path id="Caminho_3142" data-name="Caminho 3142" d="M212.527,209.217l5.593,5.833a2.5,2.5,0,0,0,3.4,0q10.2-8.434,20.37-16.869c.964-.793,1.928-1.587,2.869-2.38a2.292,2.292,0,0,0,0-3.29,2.5,2.5,0,0,0-3.4,0q-10.2,8.434-20.37,16.869c-.964.793-1.929,1.587-2.869,2.38h3.4l-5.593-5.833c-2.1-2.217-5.5,1.1-3.4,3.29Z" transform="translate(-197.675 -186.559)" fill="#0d85fc"/>
    </g>
  </g>
</svg>