<svg xmlns="http://www.w3.org/2000/svg" width="54.562" height="39.84" viewBox="0 0 54.562 39.84">
  <g id="Video_Hosting" data-name="Video Hosting" transform="translate(-166.479 -189.561)">
    <g id="Caminho_16042" data-name="Caminho 16042" fill="none">
      <path d="M213.147,222.021c-.417,0-.834,0-1.219.032-.16,0-.321-.032-.417-.032H172.719a10.051,10.051,0,0,1-2.6-.032c-1.187-.321-.77-2.7-.77-3.594V194.619c0-1.059-.1-2.15,1.283-2.182.417,0,.834,0,1.219-.032.16,0,.321.032.417.032h38.792a10.051,10.051,0,0,1,2.6.032c1.187.321.77,2.7.77,3.594v23.776C214.431,220.9,214.559,221.989,213.147,222.021Z" stroke="none"/>
      <path d="M 171.0513610839844 222.0978088378906 C 171.6158905029297 222.0978088378906 172.2121429443359 222.0210266113281 172.7187194824219 222.0210266113281 C 176.3123931884766 222.0210266113281 179.9060516357422 222.0210266113281 183.4997253417969 222.0210266113281 C 183.5317993164062 222.0210266113281 183.5317993164062 222.0210266113281 183.5638885498047 222.0210266113281 C 183.8847503662109 222.0210266113281 184.1735229492188 222.0210266113281 184.4623107910156 222.0210266113281 C 184.9115295410156 222.0210266113281 185.392822265625 222.0210266113281 185.8420104980469 222.0210266113281 C 192.3877563476562 222.0210571289062 198.9332275390625 222.0210266113281 205.4788360595703 222.0210266113281 C 207.5002746582031 222.0210266113281 209.4896240234375 222.0210266113281 211.5110626220703 222.0210266113281 C 211.6073150634766 222.0210266113281 211.7677459716797 222.0531005859375 211.9281768798828 222.0531005859375 C 212.3132019042969 222.0210266113281 212.7303466796875 222.0210266113281 213.1474609375 222.0210266113281 C 214.5592498779297 221.9889373779297 214.430908203125 220.8979949951172 214.430908203125 219.8391418457031 C 214.430908203125 217.5931091308594 214.430908203125 215.379150390625 214.430908203125 213.1331176757812 C 214.430908203125 207.4538269042969 214.430908203125 201.7424621582031 214.430908203125 196.0632019042969 C 214.430908203125 195.1647796630859 214.8480529785156 192.7903900146484 213.6608581542969 192.4695281982422 C 212.8908081054688 192.2449188232422 211.8639984130859 192.4374389648438 211.0618591308594 192.4374389648438 C 207.4681854248047 192.4374389648438 203.8745269775391 192.4374389648438 200.2808532714844 192.4374389648438 C 200.2487640380859 192.4374389648438 200.2487640380859 192.4374389648438 200.2166748046875 192.4374389648438 C 199.8958129882812 192.4374389648438 199.6070404052734 192.4374389648438 199.3182678222656 192.4374389648438 C 198.8690490722656 192.4374389648438 198.3877563476562 192.4374389648438 197.9385681152344 192.4374389648438 C 191.3927612304688 192.4374084472656 184.8473510742188 192.4374389648438 178.3017425537109 192.4374389648438 C 176.2803039550781 192.4374389648438 174.2909545898438 192.4374389648438 172.2695159912109 192.4374389648438 C 172.1732482910156 192.4374389648438 172.0128173828125 192.4053497314453 171.8523864746094 192.4053497314453 C 171.4673461914062 192.4374389648438 171.0502319335938 192.4374389648438 170.6331024169922 192.4374389648438 C 169.2533874511719 192.4695281982422 169.3496551513672 193.5604553222656 169.3496551513672 194.6193084716797 C 169.3496551513672 196.8653564453125 169.3496551513672 199.0793151855469 169.3496551513672 201.3253479003906 C 169.3496551513672 207.0046234130859 169.3496551513672 212.7159881591797 169.3496551513672 218.395263671875 C 169.3496551513672 219.2936859130859 168.9325256347656 221.6680603027344 170.1197204589844 221.9889221191406 C 170.4034729003906 222.0716857910156 170.7219848632812 222.0978088378906 171.0513610839844 222.0978088378906 M 171.0514526367188 224.8978118896484 C 171.0514068603516 224.8978118896484 171.0514068603516 224.8978118896484 171.0514068603516 224.8978118896484 C 170.4149780273438 224.8978271484375 169.8599853515625 224.8274383544922 169.3556213378906 224.6826782226562 C 168.6136474609375 224.4738464355469 166.9355316162109 223.7274475097656 166.5598449707031 221.2150115966797 C 166.4290466308594 220.3402404785156 166.4855499267578 219.4624938964844 166.5268096923828 218.8215789794922 C 166.5364532470703 218.6717376708984 166.5496520996094 218.4665374755859 166.5496520996094 218.395263671875 L 166.5496520996094 194.6193084716797 C 166.5496520996094 194.5595397949219 166.54931640625 194.4996643066406 166.5489807128906 194.4398956298828 C 166.5452728271484 193.7752227783203 166.5402069091797 192.8649139404297 166.9343109130859 191.9558410644531 C 167.5558013916016 190.5222015380859 168.8802337646484 189.6774444580078 170.5679931640625 189.6381988525391 L 170.6331024169922 189.6374359130859 C 171.0022125244141 189.6374359130859 171.3508758544922 189.6374359130859 171.6198425292969 189.6150207519531 L 171.7359161376953 189.6053466796875 L 171.8523864746094 189.6053466796875 C 172.073974609375 189.6053466796875 172.2604675292969 189.6237335205078 172.3845062255859 189.6374359130859 L 211.0618591308594 189.6374359130859 C 211.2133483886719 189.6374359130859 211.4308929443359 189.6226654052734 211.6612091064453 189.6070251464844 C 211.9814453125 189.5852813720703 212.3444061279297 189.5606536865234 212.729248046875 189.5606536865234 C 213.3653564453125 189.5606536865234 213.9200897216797 189.6309661865234 214.4241638183594 189.7755432128906 C 215.1657104492188 189.9840698242188 216.8449096679688 190.7300567626953 217.2207336425781 193.2434539794922 C 217.3515167236328 194.1182250976562 217.2950134277344 194.9959716796875 217.2537536621094 195.6368865966797 C 217.2441253662109 195.7867279052734 217.2309112548828 195.991943359375 217.2309112548828 196.0632019042969 L 217.2309112548828 219.8391418457031 C 217.2309112548828 219.9121856689453 217.2316284179688 219.9853973388672 217.2323150634766 220.0583343505859 C 217.2385101318359 220.7222442626953 217.2469940185547 221.6314849853516 216.8400268554688 222.5459747314453 C 216.2137756347656 223.9531555175781 214.8910827636719 224.7821197509766 213.2110900878906 224.8203125 L 213.1474609375 224.8210296630859 C 212.7783050537109 224.8210296630859 212.4296112060547 224.8210296630859 212.1605987548828 224.8434448242188 L 212.0445861816406 224.8531036376953 L 211.9281768798828 224.8531036376953 C 211.7066345214844 224.8531036376953 211.5201873779297 224.834716796875 211.3961639404297 224.8210296630859 L 172.7187194824219 224.8210296630859 C 172.5671844482422 224.8210296630859 172.3496398925781 224.8358001708984 172.1193084716797 224.8514251708984 C 171.7991333007812 224.8731689453125 171.4362182617188 224.8977966308594 171.0514526367188 224.8978118896484 L 171.0514526367188 224.8978118896484 Z" stroke="none" fill="#6fb0ff"/>
    </g>
    <path id="Caminho_16043" data-name="Caminho 16043" d="M234.127,230.6l-6.514-3.273a.289.289,0,0,0-.16-.032.356.356,0,0,0-.353.353V234.2a.289.289,0,0,0,.032.16.364.364,0,0,0,.481.16l6.514-3.273h0a.386.386,0,0,0,.16-.16A.4.4,0,0,0,234.127,230.6Z" transform="translate(-39.269 -23.729)" fill="#6fb0ff"/>
    <path id="Caminho_16044" data-name="Caminho 16044" d="M282.1,251.867v-6.321a8.135,8.135,0,0,1,3.626-7.059,7.226,7.226,0,0,1,2.6-1.027,5.346,5.346,0,1,1,6.9-5.294v.385a5.531,5.531,0,0,1-3.818,4.941A7.729,7.729,0,0,1,295,239.257c2.086,1.829,2.663,4.3,2.663,6.931V251.9a.939.939,0,0,1-.321.738.9.9,0,0,1-.706.289h-13.54A1.105,1.105,0,0,1,282.1,251.867Z" transform="translate(-76.621 -23.525)" fill="#0080fc"/>
  </g>
</svg>