<svg xmlns="http://www.w3.org/2000/svg" width="44.499" height="44.544" viewBox="0 0 44.499 44.544">
  <g id="new_webinar" data-name="new webinar" transform="translate(-11.866 -11.863)">
    <path id="Caminho_14099" data-name="Caminho 14099" d="M170.929,133.818v32.991a4.327,4.327,0,0,1-4.3,4.106c-4.337.107-8.674,0-13.012,0H134.241c-.782,0-1.582.018-2.364,0a4.326,4.326,0,0,1-4.231-3.128,18.96,18.96,0,0,1-.16-4.71V134.137c0-2.026-.249-4.195,1.511-5.67,1.546-1.3,3.644-1.013,5.51-1.013H163.5c1.6,0,3.662-.284,5.137.462C171.018,129.16,170.929,131.56,170.929,133.818ZM168.8,166.666V132.378a2.842,2.842,0,0,0-.48-1.991,2.493,2.493,0,0,0-2.169-.782H132.8c-.356,0-.711-.018-1.084,0a2.195,2.195,0,0,0-2.115,2.382c-.036,5.066,0,10.114,0,15.18v17.918c0,.515-.018,1.013,0,1.529a2.16,2.16,0,0,0,2.222,2.186c2.1.036,4.195,0,6.292,0h27.765C167.3,168.782,168.725,168.39,168.8,166.666Z" transform="translate(-115.064 -115.051)" fill="#6fb0ff" stroke="#6fb0ff" stroke-width="1"/>
    <path id="Caminho_14100" data-name="Caminho 14100" d="M140.374,154.849v-4.979a6.355,6.355,0,0,1,2.871-5.563,6.11,6.11,0,0,1,2.06-.827,4.217,4.217,0,1,1,5.433-4.184c0,.049.016.1.016.146a.448.448,0,0,1-.016.146,4.332,4.332,0,0,1-3,3.892,6.363,6.363,0,0,1,2.838,1.379,6.771,6.771,0,0,1,2.108,5.465v4.509a.753.753,0,0,1-.243.584.732.732,0,0,1-.568.227H141.184A.8.8,0,0,1,140.374,154.849Zm21.6,4.1h-4.054a1.332,1.332,0,0,0-1.249-.892,1.316,1.316,0,0,0-1.249.892H131.1a.438.438,0,0,0,0,.876h24.31a1.332,1.332,0,0,0,1.249.892,1.316,1.316,0,0,0,1.249-.892h4.054a.436.436,0,0,0,.438-.438A.413.413,0,0,0,161.975,158.953Z" transform="translate(-112.396 -111.302)" fill="#0080fc"/>
  </g>
</svg>
