<svg xmlns="http://www.w3.org/2000/svg" width="32.89" height="36.272" viewBox="0 0 32.89 36.272">
  <g id="Super_Cheeckout" data-name="Super Cheeckout" transform="translate(-1510.613 233.9)">
    <g id="Caminho_16031" data-name="Caminho 16031" transform="translate(1340.488 -397.277)" fill="none" stroke-linejoin="round">
      <path d="M202.828,189.848a2.849,2.849,0,0,0-2.594-1.976H183.15c-.1-.391-.185-.782-.288-1.153h16.8a.8.8,0,0,0,.762-.576c.741-3.787,1.5-7.575,2.244-11.342.1-.535.206-1.07.329-1.606a.794.794,0,0,0-.762-.988H179.239c-.371-1.5-.741-2.985-1.112-4.487-.247-.988-.494-1.976-.741-2.944a.8.8,0,0,0-.762-.576h-5.743a.783.783,0,0,0,0,1.564h5.125l1.853,7.41c1.07,4.261,2.12,8.5,3.19,12.762.247.988.494,1.976.741,2.943a.8.8,0,0,0,.762.576h17.064c.206,0,.412-.021.638,0,1.214.082,1.5,1.77.844,2.594-.535.679-1.791.453-2.573.453h-10.7a28.929,28.929,0,0,0-3.273,0,1.875,1.875,0,0,0-1.009.638,3.3,3.3,0,0,0-1.564-.453,3.471,3.471,0,1,0,3.314,3.767c0-.041.021-.1.021-.144v-.165a3.431,3.431,0,0,0-.6-1.873l.165-.165c3.54,0,7.06.021,10.6.021a3.421,3.421,0,0,0-.679,1.914,3.466,3.466,0,0,0,6.916.432c0-.041.021-.1.021-.144v-.165a3.545,3.545,0,0,0-.8-2.182A3.253,3.253,0,0,0,202.828,189.848Zm-19.081,6.4a1.888,1.888,0,1,1-1.832-2.017,1.571,1.571,0,0,1,.556.1c-.391.412-.782.823-1.153,1.235-.7.741.412,1.853,1.112,1.112.391-.412.782-.844,1.173-1.256A2.655,2.655,0,0,1,183.746,196.249ZM198.114,198a1.886,1.886,0,0,1,.185-3.767,1.887,1.887,0,1,1-.185,3.767Z" stroke="none"/>
      <path d="M 197.8382263183594 183.7188110351562 C 198.1340026855469 182.2187042236328 198.4321746826172 180.7178192138672 198.7233428955078 179.2522430419922 C 198.9871215820312 177.9244384765625 199.2581329345703 176.5603637695312 199.5252838134766 175.2071380615234 L 181.4613647460938 175.2071380615234 C 181.7653503417969 176.4231414794922 182.0674438476562 177.6345062255859 182.3638458251953 178.8229370117188 C 182.7641296386719 180.4279632568359 183.1748657226562 182.0749206542969 183.5865936279297 183.7188110351562 L 197.8382263183594 183.7188110351562 M 198.2868347167969 199.6488494873047 C 198.2364959716797 199.6488494873047 198.1856231689453 199.6477508544922 198.1346435546875 199.6455383300781 C 196.2408752441406 199.5632019042969 194.7176818847656 197.9370880126953 194.8000183105469 196.0433502197266 C 194.8206176757812 195.3229217529297 195.0881958007812 194.6642303466797 195.4792785644531 194.1290435791016 C 191.9388427734375 194.1290435791016 188.4190063476562 194.1084594726562 184.8785400390625 194.1084594726562 C 184.8168029785156 194.1702117919922 184.775634765625 194.2113800048828 184.7138977050781 194.2731323242188 C 185.0843811035156 194.8083190917969 185.2902221679688 195.4464111328125 185.3108215332031 196.1462707519531 C 185.3108215332031 196.2080230712891 185.3108215332031 196.2491760253906 185.3108215332031 196.3109436035156 C 185.3108215332031 196.3521270751953 185.2902221679688 196.4138793945312 185.2902221679688 196.4550170898438 C 185.0638122558594 198.2458190917969 183.6028137207031 199.7069549560547 181.7086181640625 199.6249542236328 C 179.8149108886719 199.5426330566406 178.2916870117188 197.91650390625 178.3740234375 196.0227508544922 C 178.4563598632812 194.1290588378906 180.0818328857422 192.6057434082031 181.9762268066406 192.6881713867188 C 182.5525817871094 192.708740234375 183.0877380371094 192.8734130859375 183.5405883789062 193.1410064697266 C 183.8493347167969 192.8322601318359 184.1787109375 192.5440826416016 184.5492248535156 192.5029144287109 C 185.6195526123047 192.3794250488281 186.7516479492188 192.5029144287109 187.8220520019531 192.5029144287109 C 191.3830871582031 192.5029144287109 194.9646911621094 192.5029144287109 198.5257263183594 192.5029144287109 C 199.3078918457031 192.5029144287109 200.5635223388672 192.7293395996094 201.0986938476562 192.0500640869141 C 201.7573852539062 191.2266998291016 201.4692077636719 189.5388031005859 200.2547607421875 189.4564971923828 C 200.0283508300781 189.4358978271484 199.8225250244141 189.4564971923828 199.6166687011719 189.4564971923828 C 193.9354858398438 189.4564971923828 188.2337341308594 189.4564971923828 182.5525817871094 189.4564971923828 C 182.20263671875 189.4564971923828 181.873291015625 189.2094879150391 181.7909545898438 188.880126953125 C 181.5439453125 187.9126739501953 181.2969360351562 186.9246673583984 181.0499267578125 185.9366302490234 C 179.9795532226562 181.6757354736328 178.9297790527344 177.4354553222656 177.8594360351562 173.174560546875 C 177.2419128417969 170.7044982910156 176.6243896484375 168.2344360351562 176.0068664550781 165.7643585205078 C 174.2984008789062 165.7643585205078 172.5899353027344 165.7643585205078 170.8814392089844 165.7643585205078 C 169.8728637695312 165.7643585205078 169.8728637695312 164.1999664306641 170.8814392089844 164.1999664306641 C 172.7957458496094 164.1999664306641 174.7100830078125 164.1999664306641 176.6243896484375 164.1999664306641 C 176.9743041992188 164.1999664306641 177.3036499023438 164.4469757080078 177.385986328125 164.7763061523438 C 177.6329956054688 165.7437591552734 177.8800048828125 166.7318115234375 178.1270141601562 167.7198333740234 C 178.4975280761719 169.2224731445312 178.8680114746094 170.7044982910156 179.238525390625 172.2071380615234 C 180.0207214355469 172.2071380615234 180.7823181152344 172.2071380615234 181.5439453125 172.2071380615234 C 185.7842102050781 172.2071380615234 190.0451354980469 172.2071380615234 194.285400390625 172.2071380615234 C 196.9407348632812 172.2071380615234 199.5755004882812 172.2071380615234 202.2308044433594 172.2071380615234 C 202.7659912109375 172.2071380615234 203.0953369140625 172.7011260986328 202.992431640625 173.1951446533203 C 202.8689270019531 173.7303314208984 202.7659912109375 174.2655181884766 202.6630859375 174.8007049560547 C 201.9220581054688 178.5675811767578 201.1604614257812 182.3550262451172 200.41943359375 186.1424713134766 C 200.357666015625 186.4718017578125 199.9871520996094 186.7188110351562 199.6578063964844 186.7188110351562 C 194.0592193603516 186.7188262939453 188.4601745605469 186.7188110351562 182.861328125 186.7188110351562 C 182.9642333984375 187.0893249511719 183.0465698242188 187.4804229736328 183.1495056152344 187.8715209960938 C 185.6607360839844 187.8715209960938 188.1513977050781 187.8715209960938 190.6626586914062 187.8715209960938 C 193.6679077148438 187.8715209960938 196.6525573730469 187.8715209960938 199.6578369140625 187.8715209960938 C 199.8430786132812 187.8715209960938 200.0489501953125 187.8715209960938 200.2341613769531 187.8715209960938 C 201.4692077636719 187.9126739501953 202.4160766601562 188.7154693603516 202.8277587890625 189.8475646972656 C 203.4247131347656 191.5354614257812 202.5395812988281 193.42919921875 200.9340209960938 193.9849395751953 C 201.4280700683594 194.5818939208984 201.7162170410156 195.343505859375 201.73681640625 196.1668548583984 C 201.73681640625 196.2286071777344 201.73681640625 196.2697601318359 201.73681640625 196.3315277099609 C 201.73681640625 196.3726959228516 201.7162170410156 196.4344482421875 201.7162170410156 196.4756164550781 C 201.4958953857422 198.2182006835938 200.1063537597656 199.6489715576172 198.2868347167969 199.6488494873047 Z M 198.2264862060547 194.2304534912109 C 197.2681884765625 194.2304534912109 196.4246215820312 195.0179443359375 196.3643798828125 195.9815826416016 C 196.2820739746094 197.0107879638672 197.0848388671875 197.91650390625 198.114013671875 197.9988250732422 C 199.1638488769531 198.0814056396484 200.0489349365234 197.2783660888672 200.15185546875 196.2491760253906 C 200.1724243164062 195.1788330078125 199.4108276367188 194.2731323242188 198.2992858886719 194.2319641113281 C 198.2749176025391 194.23095703125 198.2507171630859 194.2304534912109 198.2264862060547 194.2304534912109 Z M 181.8416595458984 194.2304534912109 C 180.8833923339844 194.2304534912109 180.039794921875 195.0179443359375 179.9795532226562 195.9815826416016 C 179.897216796875 197.0107879638672 180.7000122070312 197.91650390625 181.7292175292969 197.9988250732422 C 182.7585144042969 198.0814361572266 183.6641387939453 197.2783660888672 183.7464294433594 196.2491760253906 C 183.7464294433594 195.9610137939453 183.6846923828125 195.6728515625 183.6023254394531 195.4258270263672 C 183.2112426757812 195.8375091552734 182.8201599121094 196.2697601318359 182.4290771484375 196.6814575195312 C 181.7292785644531 197.4225006103516 180.61767578125 196.3109588623047 181.3175354003906 195.5699310302734 C 181.6880493164062 195.1582489013672 182.0791320800781 194.7465515136719 182.47021484375 194.3348846435547 C 182.3055419921875 194.2731323242188 182.1203002929688 194.2319641113281 181.9144592285156 194.2319641113281 C 181.8900909423828 194.23095703125 181.8658905029297 194.2304534912109 181.8416595458984 194.2304534912109 Z" stroke="none" fill="#0080fc"/>
    </g>
    <circle id="Elipse_317" data-name="Elipse 317" cx="7.616" cy="7.616" r="7.616" transform="translate(1524.132 -233.9)" fill="#6fb0ff"/>
    <path id="Caminho_16030" data-name="Caminho 16030" d="M248.032,183.854c.906.967,1.791,1.935,2.7,2.923a1.057,1.057,0,0,0,1.461,0c1.832-1.688,3.643-3.4,5.475-5.084.967-.906-.494-2.347-1.461-1.461-1.832,1.688-3.643,3.4-5.475,5.084h1.461c-.906-.967-1.791-1.935-2.7-2.923-.906-.967-2.347.494-1.461,1.461Z" transform="translate(1278.838 -409.789)" fill="#fff"/>
  </g>
</svg>