<svg xmlns="http://www.w3.org/2000/svg" width="38.722" height="29.996" viewBox="0 0 38.722 29.996">
  <g id="Grupo_5099" data-name="Grupo 5099" transform="translate(-1936.125 -300.5)">
    <path id="Caminho_14096" data-name="Caminho 14096" d="M125.476,157q7.2,7.18,14.39,14.36c.934.934,1.778,1.941,3.186,2.089,1.689.193,2.712-.859,3.764-1.912,2.757-2.756,5.513-5.5,8.27-8.254,2.282-2.282,4.579-4.564,6.862-6.847a1.248,1.248,0,0,0-1.764-1.764q-7.114,7.091-14.212,14.182c-.608.608-1.186,1.274-1.838,1.838-.9.785-1.615-.193-2.223-.8-2.638-2.638-5.276-5.261-7.914-7.9-2.253-2.253-4.52-4.505-6.773-6.758A1.243,1.243,0,0,0,125.476,157Z" transform="translate(1811.73 147.016)" fill="#6fb0ff"/>
    <g id="maillingboss" transform="translate(1929.598 291.23)">
      <path id="Caminho_14095" data-name="Caminho 14095" d="M156.515,175.256c-.044.978-.919.978-1.66.978H124.474a1.93,1.93,0,0,1-1.289-.222c-.415-.341-.356-.83-.356-1.3v-9.44c0-4.253-.015-8.506,0-12.774,0-.652.267-1.156.993-1.215.267-.015.548,0,.815,0h27.639c1.067,0,2.149-.044,3.216,0,1.319.059,1.037,1.6,1.037,2.519v20.614c-.015.3-.015.578-.015.845a1.246,1.246,0,0,0,2.49,0V155.8c0-1.23.074-2.5-.015-3.734a3.527,3.527,0,0,0-3.512-3.275c-.356-.015-.726,0-1.082,0H125.822c-1.349,0-2.875-.193-4.031.637-1.7,1.23-1.467,3.186-1.467,5.009v7.336c0,4.431-.03,8.862,0,13.293a3.583,3.583,0,0,0,1.941,3.3,4.9,4.9,0,0,0,2.208.37h20.318c3.557,0,7.114.059,10.67,0a3.53,3.53,0,0,0,3.557-3.468C159.078,173.656,156.589,173.656,156.515,175.256Z" transform="translate(-113.783 -139.5)" fill="#0080fc"/>
    </g>
  </g>
</svg>
