<svg xmlns="http://www.w3.org/2000/svg" xmlns:xlink="http://www.w3.org/1999/xlink" width="38" height="50.17" viewBox="0 0 38 50.17">
  <defs>
    <clipPath id="clip-path">
      <rect width="38" height="11" fill="none"/>
    </clipPath>
  </defs>
  <g id="Grupo_5100" data-name="Grupo 5100" transform="translate(-1515.488 237.17)">
    <path id="Caminho_13959" data-name="Caminho 13959" d="M4,10.994V30.958a6.994,6.994,0,0,0,6.994,6.994H30.958a6.994,6.994,0,0,0,6.994-6.994V10.994A6.994,6.994,0,0,0,30.958,4H10.994A6.994,6.994,0,0,0,4,10.994Zm18.359,4.575,3.4,3.4a1.791,1.791,0,0,1,0,2.546l-.925.925a1.7,1.7,0,0,0,0,2.411h0a1.7,1.7,0,0,0,2.419,0l2.215-2.173,1.112-1.095a2.334,2.334,0,0,1,3.972,1.7v6.493a4.83,4.83,0,0,1-4.821,4.787H12.2a4.8,4.8,0,0,1-4.8-5.3,5.033,5.033,0,0,1,1.528-3.013L19.592,15.569a1.961,1.961,0,0,1,2.767,0Zm-6.476-3.081a3.4,3.4,0,1,1-3.4-3.4A3.4,3.4,0,0,1,15.883,12.488Z" transform="translate(1512.488 -241.17)" fill="#0080fc"/>
    <g id="Repetição_de_grade_8" data-name="Repetição de grade 8" transform="translate(1515.488 -198)" clip-path="url(#clip-path)">
      <g transform="translate(-1497.488 206)">
        <g id="Retângulo_1065" data-name="Retângulo 1065" transform="translate(1498.488 -205)" fill="#0080fc" stroke="#0080fc" stroke-width="0.5">
          <rect width="16" height="3" rx="1.5" stroke="none"/>
          <rect x="-0.25" y="-0.25" width="16.5" height="3.5" rx="1.75" fill="none"/>
        </g>
      </g>
      <g transform="translate(-1477.488 206)">
        <g id="Retângulo_1065-2" data-name="Retângulo 1065" transform="translate(1498.488 -205)" fill="#0080fc" stroke="#0080fc" stroke-width="0.5">
          <rect width="16" height="3" rx="1.5" stroke="none"/>
          <rect x="-0.25" y="-0.25" width="16.5" height="3.5" rx="1.75" fill="none"/>
        </g>
      </g>
      <g transform="translate(-1497.488 212)">
        <g id="Retângulo_1065-3" data-name="Retângulo 1065" transform="translate(1498.488 -205)" fill="#0080fc" stroke="#0080fc" stroke-width="0.5">
          <rect width="16" height="3" rx="1.5" stroke="none"/>
          <rect x="-0.25" y="-0.25" width="16.5" height="3.5" rx="1.75" fill="none"/>
        </g>
      </g>
      <g transform="translate(-1477.488 212)">
        <g id="Retângulo_1065-4" data-name="Retângulo 1065" transform="translate(1498.488 -205)" fill="#0080fc" stroke="#0080fc" stroke-width="0.5">
          <rect width="16" height="3" rx="1.5" stroke="none"/>
          <rect x="-0.25" y="-0.25" width="16.5" height="3.5" rx="1.75" fill="none"/>
        </g>
      </g>
    </g>
  </g>
</svg>
