<svg xmlns="http://www.w3.org/2000/svg" width="32" height="32" viewBox="0 0 32 32">
  <g id="check" transform="translate(-1391 -289)">
    <circle id="Elipse_239" data-name="Elipse 239" cx="16" cy="16" r="16" transform="translate(1391 289)" fill="#00ea90"/>
    <g id="Caminho_407" data-name="Caminho 407" transform="translate(1392.266 290.62)" fill="#fff">
      <path d="M 12.87838459014893 19.92141342163086 C 12.32752418518066 19.92141342163086 11.80975437164307 19.70677375793457 11.42044448852539 19.31704330444336 L 8.088854789733887 15.98545360565186 C 7.645994663238525 15.54388332366943 7.42933464050293 14.93356323242188 7.494684219360352 14.31123352050781 C 7.560024261474609 13.68891334533691 7.898744583129883 13.13691329956055 8.42397403717041 12.79677295684814 C 8.760644912719727 12.58557319641113 9.144864082336426 12.47496318817139 9.538154602050781 12.47496318817139 C 10.1001443862915 12.47496318817139 10.64705467224121 12.70585346221924 11.03865432739258 13.10842323303223 L 11.70619487762451 13.77592277526855 C 11.93950462341309 14.00855350494385 12.0734748840332 14.3312931060791 12.0734748840332 14.66114330291748 C 12.0734748840332 14.99582290649414 11.94294452667236 15.31028270721436 11.70593452453613 15.54661273956299 C 11.62840461730957 15.62461280822754 11.62840461730957 15.7528133392334 11.70672416687012 15.83161354064941 C 11.74389457702637 15.86855316162109 11.79464435577393 15.88948345184326 11.84855461120605 15.88948345184326 C 11.9024543762207 15.88948345184326 11.95320415496826 15.86855316162109 11.99143409729004 15.83055305480957 L 12.70613479614258 15.1158332824707 L 18.06589508056641 9.760622978210449 C 18.45500373840332 9.360583305358887 19.00191497802734 9.129693031311035 19.56389427185059 9.129693031311035 C 19.95717430114746 9.129693031311035 20.34139442443848 9.240303039550781 20.67501449584961 9.449553489685059 C 21.20330429077148 9.791643142700195 21.54202461242676 10.34364318847656 21.60736465454102 10.96596336364746 C 21.67271423339844 11.58829307556152 21.4560546875 12.19861316680908 21.0129337310791 12.6404333114624 L 14.3362340927124 19.31714248657227 C 13.94701480865479 19.70677375793457 13.42924404144287 19.92141342163086 12.87838459014893 19.92141342163086 Z" stroke="none"/>
      <path d="M 19.56388664245605 9.379690170288086 C 19.07948684692383 9.379690170288086 18.59969902038574 9.570362091064453 18.24259567260742 9.937473297119141 L 12.88291358947754 15.29261302947998 L 12.16768455505371 16.00785446166992 C 12.07940483093262 16.09560775756836 11.9639778137207 16.13948440551758 11.84854888916016 16.13948440551758 C 11.73312187194824 16.13948440551758 11.61769485473633 16.09560775756836 11.52941513061523 16.00785446166992 C 11.35390472412109 15.83128356933594 11.35390472412109 15.54614353179932 11.52941513061523 15.36957359313965 C 11.71766471862793 15.1818733215332 11.82346534729004 14.92697334289551 11.82346534729004 14.66114330291748 C 11.82346534729004 14.39530277252197 11.71766471862793 14.14039325714111 11.52941513061523 13.95270347595215 L 10.85945510864258 13.28274345397949 C 10.5023136138916 12.91559410095215 10.02260971069336 12.72494697570801 9.538156509399414 12.72496032714844 C 9.201112747192383 12.72497177124023 8.861743927001953 12.8172664642334 8.559864044189453 13.00661277770996 C 8.100605010986328 13.30403327941895 7.800455093383789 13.79317283630371 7.743314743041992 14.33734321594238 C 7.686174392700195 14.88151359558105 7.878164291381836 15.42233276367188 8.265634536743164 15.80867290496826 L 11.59731483459473 19.14036178588867 C 11.93694496154785 19.48036193847656 12.39781379699707 19.67141342163086 12.87838363647461 19.67141342163086 C 13.35896396636963 19.67141342163086 13.81982421875 19.48036193847656 14.15945434570312 19.14036178588867 L 20.8364143371582 12.46340370178223 C 21.22388458251953 12.07706260681152 21.41587448120117 11.5362434387207 21.35873413085938 10.99207305908203 C 21.30159378051758 10.44791221618652 21.00144577026367 9.958763122558594 20.54217529296875 9.661342620849609 C 20.24024963378906 9.471967697143555 19.90097618103027 9.379690170288086 19.56388664245605 9.379690170288086 M 19.56388473510742 8.879693984985352 C 20.00423431396484 8.879693984985352 20.43439483642578 9.003513336181641 20.80786514282227 9.237773895263672 L 20.8109245300293 9.239692687988281 L 20.8139533996582 9.241662979125977 C 21.40291404724121 9.623064041137695 21.78272438049316 10.24203300476074 21.85600471496582 10.93985366821289 C 21.92927551269531 11.6376838684082 21.68632507324219 12.32204246520996 21.18945503234863 12.81747245788574 L 14.51300430297852 19.49391174316406 C 14.07666397094727 19.93074417114258 13.49607467651367 20.17141342163086 12.87838363647461 20.17141342163086 C 12.26069450378418 20.17141342163086 11.68010520935059 19.93074417114258 11.24356460571289 19.49372291564941 L 7.912084579467773 16.16222381591797 C 7.41572380065918 15.66731357574463 7.172775268554688 14.98295307159424 7.246044158935547 14.28513336181641 C 7.319324493408203 13.58731269836426 7.699125289916992 12.96834278106689 8.288074493408203 12.58693313598633 L 8.291114807128906 12.58496284484863 L 8.294183731079102 12.58304405212402 C 8.667634963989258 12.34879302978516 9.097793579101562 12.22497367858887 9.538145065307617 12.22496223449707 C 10.16613960266113 12.22493362426758 10.7773265838623 12.48250579833984 11.21558952331543 12.93177890777588 L 11.88296508789062 13.59915351867676 C 12.1627140045166 13.8780632019043 12.32346534729004 14.26534271240234 12.32346534729004 14.66114330291748 C 12.32346534729004 14.87652778625488 12.27840042114258 15.0849666595459 12.19275283813477 15.27567005157471 L 12.52935409545898 14.93906307220459 L 17.88654327392578 9.586421966552734 C 18.32477188110352 9.13722038269043 18.93590927124023 8.879693984985352 19.56388473510742 8.879693984985352 Z" stroke="none" fill="#fff"/>
    </g>
  </g>
</svg>
