
<svg xmlns="http://www.w3.org/2000/svg" width="76.313" height="21.17" viewBox="0 0 76.313 21.17">
  <g id="time-08" transform="translate(0.5 0.5)">
    <path id="Caminho_14101" data-name="Caminho 14101" d="M51.966,43.119H42.012a2.986,2.986,0,0,1-2.983-2.983v-14.2a2.986,2.986,0,0,1,2.983-2.983h9.954a2.986,2.986,0,0,1,2.983,2.983V40.138A2.985,2.985,0,0,1,51.966,43.119ZM42.012,24.44a1.492,1.492,0,0,0-1.491,1.491V40.136a1.493,1.493,0,0,0,1.491,1.491h9.954a1.492,1.492,0,0,0,1.491-1.491v-14.2a1.493,1.493,0,0,0-1.491-1.491H42.012ZM70.33,43.119H60.376a2.986,2.986,0,0,1-2.983-2.983v-14.2a2.986,2.986,0,0,1,2.983-2.983H70.33a2.986,2.986,0,0,1,2.983,2.983V40.138A2.985,2.985,0,0,1,70.33,43.119ZM60.376,24.44a1.492,1.492,0,0,0-1.491,1.491V40.136a1.493,1.493,0,0,0,1.491,1.491H70.33a1.492,1.492,0,0,0,1.491-1.491v-14.2a1.493,1.493,0,0,0-1.491-1.491H60.376ZM10.937,43.119H.983A2.985,2.985,0,0,1-2,40.138V25.932A2.986,2.986,0,0,1,.983,22.949h9.954a2.986,2.986,0,0,1,2.983,2.983V40.138A2.985,2.985,0,0,1,10.937,43.119ZM.983,24.44A1.492,1.492,0,0,0-.508,25.931V40.136A1.492,1.492,0,0,0,.983,41.627h9.954a1.492,1.492,0,0,0,1.491-1.491v-14.2a1.492,1.492,0,0,0-1.491-1.491H.983ZM29.3,43.119H19.346a2.986,2.986,0,0,1-2.983-2.983v-14.2a2.986,2.986,0,0,1,2.983-2.983H29.3a2.986,2.986,0,0,1,2.983,2.983V40.138A2.986,2.986,0,0,1,29.3,43.119ZM19.345,24.44a1.492,1.492,0,0,0-1.491,1.491V40.136a1.492,1.492,0,0,0,1.491,1.491H29.3a1.492,1.492,0,0,0,1.491-1.491v-14.2A1.492,1.492,0,0,0,29.3,24.441H19.345Zm17.071,6.878H34.831V29.733h1.586Zm0,6.342H34.831V36.075h1.586Z" transform="translate(2 -22.949)" fill="#0080fc" stroke="#0080fc" stroke-width="1"/>
    <path id="Caminho_14102" data-name="Caminho 14102" d="M44.988,29.56v2.678l-.846.846L43.86,32.8V29.138ZM43.86,37.311V33.647l.282-.282.846.846v2.678Zm4.932.986H44.564a.9.9,0,0,1-.7-.7l1.128-.422h3.382Zm-.422-9.019H45l-1.128-.422a.9.9,0,0,1,.705-.7h4.213Zm.282,2.959V29.278l.423-1.128a.9.9,0,0,1,.7.7V32.8l-.282.282Zm.845,1.127.282.282v3.946a.9.9,0,0,1-.7.7l-.423-1.128V34.209Zm13.855-3.8v2.678l-.846.846-.282-.282V29.138Zm-1.128,7.751V33.647l.282-.282.846.846v2.678Zm4.932.986H62.928a.9.9,0,0,1-.7-.7l1.128-.422h3.382Zm-.422-9.019H63.364l-1.128-.422a.9.9,0,0,1,.705-.7h4.213Zm.282,2.959V29.278l.423-1.128a.9.9,0,0,1,.7.7V32.8l-.282.282Zm.845,1.127.282.282v3.946a.9.9,0,0,1-.7.7l-.423-1.128V34.209ZM5.31,32.237V29.278l.422-1.128a.907.907,0,0,1,.705.7V32.8l-.282.282Zm.846,1.127.282.282v3.946a.9.9,0,0,1-.705.7L5.31,37.169V34.21Zm16.037,3.947V33.647l.282-.282.846.846v2.678Zm5.355.986H22.9a.9.9,0,0,1-.7-.7l1.128-.422h3.805ZM26.7,29.278H23.334l-1.128-.422a.9.9,0,0,1,.705-.7h4.213Zm.282,3.382.564.564-.564.564H23.32l-.564-.564.564-.564h3.664Zm0-.422V29.278l.423-1.128a.9.9,0,0,1,.7.7V32.8l-.282.282Zm9.432-.919H34.831V29.733h1.586Zm0,6.342H34.831V36.075h1.586Z" transform="translate(2 -22.95)" fill="#0795ff" stroke="#0795ff" stroke-width="1"/>
  </g>
</svg>
