<svg xmlns="http://www.w3.org/2000/svg" width="66.791" height="28.638" viewBox="0 0 66.791 28.638">
  <path id="Counter" d="M26325.7,15844.637h-59.629a3.586,3.586,0,0,1-3.582-3.581v-21.476a3.586,3.586,0,0,1,3.582-3.581h59.629a3.586,3.586,0,0,1,3.58,3.581v21.476A3.586,3.586,0,0,1,26325.7,15844.637Zm-6.264-10.936a4.623,4.623,0,0,1,3.521,1.227,3.489,3.489,0,0,1,.885,2.388,3.337,3.337,0,0,1-1.988,3.079l.932.661h2.914v-21.476h-2.215a4.33,4.33,0,0,1,.34,1.972c0,.015,0,.026,0,.035v.015a7.142,7.142,0,0,1-1.266,2.9l0,0-4.168,4.56,5.939-.033.02,2.181-9.311-.053-.066-1.791.047-.05c1.273-1.351,5.441-5.793,5.676-6.247.17-.341.742-1.917.172-2.84a1.546,1.546,0,0,0-1.426-.649,1.946,1.946,0,0,0-1.471.626,2.468,2.468,0,0,0-.482,1.7h0v0l-2.752.019v-.01a5.594,5.594,0,0,1,.68-2.335h-2.232v21.476h4.611l-.014-1.54,1.732-.02a2,2,0,0,0,1.652-1.877,1.558,1.558,0,0,0-1.725-1.791c-.078,0-1.91.018-1.91,1.56h-2.723v-.009a3.961,3.961,0,0,1,.607-1.835A4.564,4.564,0,0,1,26319.436,15833.7Zm-28.949-14.121h0v21.476h12.527v-21.476Zm-24.416,0h0v21.476h12.527v-21.476Zm33.225,17.894h-2.689v-10.381l-3.219,1v-2.2l5.617-2h.291v13.578Zm-24.424,0h-2.682v-10.381l-3.225,1v-2.2l5.623-2h.283v13.578Z" transform="translate(-26262.488 -15815.999)" fill="#0081fd"/>
</svg>
