<svg xmlns="http://www.w3.org/2000/svg" width="34.594" height="28.947" viewBox="0 0 34.594 28.947">
  <g id="Layer_2" data-name="Layer 2" transform="translate(-4.074 -8.392)">
    <path id="Caminho_13948" data-name="Caminho 13948" d="M4.443,24.412l7.34,11.924A2.478,2.478,0,1,0,16,33.741L9.461,23.111,16,12.488a2.478,2.478,0,1,0-4.218-2.6L4.443,21.811A2.478,2.478,0,0,0,4.443,24.412Z" transform="translate(0 -0.246)" fill="#0080fc"/>
    <path id="Caminho_13949" data-name="Caminho 13949" d="M41.241,37.144a2.478,2.478,0,0,0,3.407-.811l7.328-11.924a2.478,2.478,0,0,0,0-2.6l-7.34-11.93a2.478,2.478,0,1,0-4.218,2.6l6.541,10.629L40.418,33.731a2.478,2.478,0,0,0,.824,3.413Z" transform="translate(-13.675 -0.242)" fill="#0080fc"/>
    <path id="Caminho_13950" data-name="Caminho 13950" d="M29.9,8.84,28.1,29.175a.924.924,0,0,0,.846,1.008h.083a.924.924,0,0,0,.924-.841l1.8-20.335A.928.928,0,1,0,29.9,8.844Z" transform="translate(-8.517 3.775)" fill="#6fb0ff"/>
  </g>
</svg>
