<svg xmlns="http://www.w3.org/2000/svg" width="31" height="34" viewBox="0 0 31 34">
  <g id="Facebook_Button" data-name="Facebook Button" transform="translate(-1514.568 230.395)">
    <path id="facebook-like" d="M37.674,18.669a4.426,4.426,0,0,0-3.2-1.317h-6.42s.94-3.674,1.263-4.907a11.074,11.074,0,0,0,.307-4.938,5.946,5.946,0,0,0-1.113-2.689,3.385,3.385,0,0,0-1.877-1.232A1.6,1.6,0,0,0,24.47,4.739c-.033.087-1.419,4.841-1.419,4.841a3.326,3.326,0,0,1-.372.915A36.755,36.755,0,0,1,19,15.1v20.28c3.845,1.07,9.626,2.049,10.02,2.085.224.022.447.032.667.032a6.834,6.834,0,0,0,6.646-5.052c.722-2.718,2.211-9.219,2.211-9.219a6.736,6.736,0,0,0,.284-1.446A4.1,4.1,0,0,0,37.674,18.669Z" transform="translate(1506.735 -233.895)" fill="#0080fc"/>
    <path id="facebook-like-2" data-name="facebook-like" d="M12.034,40.551H9.448A3.448,3.448,0,0,1,6,37.1V22.448A3.448,3.448,0,0,1,9.448,19h6.034V37.1A3.448,3.448,0,0,1,12.034,40.551Z" transform="translate(1508.568 -236.946)" fill="#6fb0ff"/>
  </g>
</svg>
