<svg xmlns="http://www.w3.org/2000/svg" width="40" height="39" viewBox="0 0 40 39">
  <g id="Facebook_Comments" data-name="Facebook Comments" transform="translate(-1513.488 230)">
    <path id="sms" d="M10.5,10A6.508,6.508,0,0,0,4,16.5V30.463a6.508,6.508,0,0,0,6.5,6.5H11V41.5a2.5,2.5,0,0,0,3.971,2.021l9.018-6.557H32.5a6.508,6.508,0,0,0,6.5-6.5V16.5A6.508,6.508,0,0,0,32.5,10Zm5,11.963a1.5,1.5,0,1,1-1.5,1.5A1.5,1.5,0,0,1,15.5,21.963Zm6,0a1.5,1.5,0,1,1-1.5,1.5A1.5,1.5,0,0,1,21.5,21.963Zm6,0a1.5,1.5,0,1,1-1.5,1.5A1.5,1.5,0,0,1,27.5,21.963Z" transform="translate(1509.488 -235)" fill="#0080fc"/>
    <path id="sms-2" data-name="sms" d="M15.5,5a6.5,6.5,0,0,0-5.469,3H33.5A7.508,7.508,0,0,1,41,15.5V31.969A6.5,6.5,0,0,0,44,26.5v-11A10.512,10.512,0,0,0,33.5,5ZM29,23.463Z" transform="translate(1509.488 -235)" fill="#6fb0ff"/>
  </g>
</svg>
