<svg xmlns="http://www.w3.org/2000/svg" width="36.057" height="44.278" viewBox="0 0 36.057 44.278">
  <g id="Facebook_Page" data-name="Facebook Page" transform="translate(-1520.016 228.922)">
    <path id="Caminho_16062" data-name="Caminho 16062" d="M1443.359-310.895v2.852h6.546v16.058h-6.546v3.577h36.057l-3.817-11.458,3.817-11.029Z" transform="translate(76.656 87.261)" fill="#0080fc"/>
    <rect id="Retângulo_1217" data-name="Retângulo 1217" width="3.473" height="14.759" transform="translate(1521.295 -221.108)" fill="#6fb0ff"/>
    <path id="Retângulo_1219" data-name="Retângulo 1219" d="M1.736,0h0A1.736,1.736,0,0,1,3.473,1.736V3.473a0,0,0,0,1,0,0H0a0,0,0,0,1,0,0V1.736A1.736,1.736,0,0,1,1.736,0Z" transform="translate(1521.295 -228.922)" fill="#6fb0ff"/>
    <rect id="Retângulo_1218" data-name="Retângulo 1218" width="3.473" height="16.495" transform="translate(1521.295 -201.14)" fill="#6fb0ff"/>
  </g>
</svg>
