<svg xmlns="http://www.w3.org/2000/svg" width="43.841" height="43.841" viewBox="0 0 43.841 43.841">
  <path id="Facebook_Share_Button" data-name="Facebook Share Button" d="M31.839,44.55A24.116,24.116,0,0,1,30.2,40.168a18.394,18.394,0,0,1-.624-4.794,19.4,19.4,0,0,1,2.289-9.324,20.6,20.6,0,0,1,6.095-7.029L43.85,24.9V4.55H23.336l5.827,5.824a22.8,22.8,0,0,0-5.322,7.147,20.448,20.448,0,0,0-1.992,8.971,20.285,20.285,0,0,0,2.765,10.471A22.4,22.4,0,0,0,31.839,44.55Z" transform="translate(16.051 -18.668) rotate(45)" fill="#0080fc"/>
</svg>
