<svg xmlns="http://www.w3.org/2000/svg" width="40" height="34" viewBox="0 0 40 34">
  <path id="Facebook_Video" data-name="Facebook Video" d="M38.5,7H9.5A5.506,5.506,0,0,0,4,12.5v23A5.506,5.506,0,0,0,9.5,41h29A5.506,5.506,0,0,0,44,35.5v-23A5.506,5.506,0,0,0,38.5,7Zm-13,5a1,1,0,0,1,1-1h1a1,1,0,0,1,1,1v1a1,1,0,0,1-1,1h-1a1,1,0,0,1-1-1Zm-6,0a1,1,0,0,1,1-1h1a1,1,0,0,1,1,1v1a1,1,0,0,1-1,1h-1a1,1,0,0,1-1-1Zm-9,24a1,1,0,0,1-1,1h-1a1,1,0,0,1-1-1V35a1,1,0,0,1,1-1h1a1,1,0,0,1,1,1Zm0-23a1,1,0,0,1-1,1h-1a1,1,0,0,1-1-1V12a1,1,0,0,1,1-1h1a1,1,0,0,1,1,1Zm6,23a1,1,0,0,1-1,1h-1a1,1,0,0,1-1-1V35a1,1,0,0,1,1-1h1a1,1,0,0,1,1,1Zm0-23a1,1,0,0,1-1,1h-1a1,1,0,0,1-1-1V12a1,1,0,0,1,1-1h1a1,1,0,0,1,1,1Zm6,23a1,1,0,0,1-1,1h-1a1,1,0,0,1-1-1V35a1,1,0,0,1,1-1h1a1,1,0,0,1,1,1Zm6,0a1,1,0,0,1-1,1h-1a1,1,0,0,1-1-1V35a1,1,0,0,1,1-1h1a1,1,0,0,1,1,1Zm.612-10.477-7.5,4.25A1.75,1.75,0,0,1,19,28.25v-8.5a1.749,1.749,0,0,1,2.612-1.522l7.5,4.25a1.749,1.749,0,0,1,0,3.045ZM34.5,36a1,1,0,0,1-1,1h-1a1,1,0,0,1-1-1V35a1,1,0,0,1,1-1h1a1,1,0,0,1,1,1Zm0-23a1,1,0,0,1-1,1h-1a1,1,0,0,1-1-1V12a1,1,0,0,1,1-1h1a1,1,0,0,1,1,1Zm6,23a1,1,0,0,1-1,1h-1a1,1,0,0,1-1-1V35a1,1,0,0,1,1-1h1a1,1,0,0,1,1,1Zm0-23a1,1,0,0,1-1,1h-1a1,1,0,0,1-1-1V12a1,1,0,0,1,1-1h1a1,1,0,0,1,1,1Z" transform="translate(-4 -7)" fill="#0080fc"/>
</svg>
