<svg xmlns="http://www.w3.org/2000/svg" width="55.395" height="36.32" viewBox="0 0 55.395 36.32">
  <g id="Flip_Box" data-name="Flip Box" transform="translate(-1502.318 230.16)">
    <g id="Caminho_16061" data-name="Caminho 16061" transform="translate(1517.197 -230.16)" fill="rgba(223,232,244,0.64)" stroke-linecap="round">
      <path d="M4.48.054,22.14.265a3.655,3.655,0,0,1,1.7.446,4.517,4.517,0,0,1,1.383,1.176,5.718,5.718,0,0,1,.931,1.729,6.583,6.583,0,0,1,.341,2.108V30.6a6.583,6.583,0,0,1-.341,2.108,5.718,5.718,0,0,1-.931,1.729,4.517,4.517,0,0,1-1.383,1.176,3.655,3.655,0,0,1-1.7.446l-17.66.211a3.728,3.728,0,0,1-1.741-.411,4.488,4.488,0,0,1-1.424-1.162,5.636,5.636,0,0,1-.962-1.738A6.536,6.536,0,0,1,0,30.817V5.5A6.536,6.536,0,0,1,.353,3.364a5.636,5.636,0,0,1,.962-1.738A4.488,4.488,0,0,1,2.739.464,3.728,3.728,0,0,1,4.48.054Z" stroke="none"/>
      <path d="M 22.13967323303223 32.57525634765625 C 22.31704330444336 32.57355117797852 22.48748970031738 32.51630401611328 22.64338111877441 32.41495895385742 C 22.79924011230469 32.31364059448242 22.94055557250977 32.16822814941406 23.0596981048584 31.99016189575195 C 23.1788215637207 31.81212043762207 23.27578544616699 31.60141944885254 23.34296607971191 31.36945533752441 C 23.41014289855957 31.13751602172852 23.44754409790039 30.88430213928223 23.44754409790039 30.62120819091797 L 23.44754409790039 5.698492527008057 C 23.44754409790039 5.43540096282959 23.41014289855957 5.182190418243408 23.34296607971191 4.950250625610352 C 23.27578544616699 4.718291282653809 23.1788215637207 4.507587909698486 23.0596981048584 4.329547882080078 C 22.94055557250977 4.151478290557861 22.79924011230469 4.0060715675354 22.64338111877441 3.904748916625977 C 22.48748970031738 3.803405523300171 22.31704330444336 3.746160268783569 22.13967323303223 3.744450807571411 L 4.48011302947998 3.574261665344238 C 4.298490047454834 3.572511434555054 4.123869895935059 3.627113580703735 3.964092969894409 3.726674318313599 C 3.804281949996948 3.826255798339844 3.659326314926147 3.970811128616333 3.537071228027344 4.148929119110107 C 3.414796590805054 4.327075958251953 3.315237760543823 4.538785934448242 3.246244668960571 4.772632122039795 C 3.177244901657104 5.006499290466309 3.138821840286255 5.26248836517334 3.138821840286255 5.529155731201172 L 3.138821840286255 30.79054832458496 C 3.138821840286255 31.05721855163574 3.177244901657104 31.31320381164551 3.246244668960571 31.54707717895508 C 3.315237760543823 31.78092384338379 3.414796590805054 31.99263572692871 3.537071228027344 32.17078018188477 C 3.659326314926147 32.34889984130859 3.804281949996948 32.49345397949219 3.964092969894409 32.59303283691406 C 4.123869895935059 32.69259643554688 4.298490047454834 32.74719619750977 4.48011302947998 32.74544525146484 L 22.13967323303223 32.57525634765625 M 22.13967323303223 36.05483627319336 L 4.48011302947998 36.26610565185547 C 3.863096475601196 36.27349090576172 3.274818181991577 36.12687301635742 2.739351749420166 35.85526657104492 C 2.203506231307983 35.58345794677734 1.720622420310974 35.18651962280273 1.314853310585022 34.69358825683594 C 0.9088668823242188 34.20038986206055 0.5801604986190796 33.61119842529297 0.3529165983200073 32.95529174804688 C 0.1256046444177628 32.29919052124023 -0.0001231543865287676 31.57652473449707 -0.0001231543865287676 30.81671905517578 L -0.0001231543865287676 5.502982139587402 C -0.0001231543865287676 4.743178844451904 0.1256046444177628 4.020512104034424 0.3529166281223297 3.364415407180786 C 0.5801604986190796 2.708514928817749 0.9088668823242188 2.119319915771484 1.314853429794312 1.626122713088989 C 1.720622420310974 1.133188962936401 2.203506231307983 0.736250102519989 2.739351749420166 0.4644464254379272 C 3.274818181991577 0.1928347796201706 3.863096475601196 0.04621938616037369 4.48011302947998 0.05360103398561478 L 22.13967323303223 0.2648704349994659 C 22.74188804626465 0.2720749974250793 23.31514549255371 0.4305534064769745 23.83617210388184 0.7108270525932312 C 24.35683441162109 0.990905225276947 24.82540893554688 1.392647743225098 25.21869850158691 1.88671350479126 C 25.61177825927734 2.380519151687622 25.92972755432129 2.966650247573853 26.14937782287598 3.615912675857544 C 26.36896133422852 4.264984130859375 26.4903621673584 4.977321147918701 26.4903621673584 5.723864555358887 L 26.4903621673584 30.59584045410156 C 26.4903621673584 31.34238624572754 26.36896133422852 32.05472183227539 26.14937782287598 32.70379257202148 C 25.92972755432129 33.35305786132812 25.61177825927734 33.93919372558594 25.21869850158691 34.43299865722656 C 24.82540893554688 34.92706298828125 24.35683441162109 35.32880401611328 23.83617210388184 35.60888671875 C 23.31514549255371 35.88915252685547 22.74188804626465 36.04763412475586 22.13967323303223 36.05483627319336 Z" stroke="none" fill="#6fb0ff"/>
    </g>
    <path id="_3d-rotate" data-name="3d-rotate" d="M11.262,5.618C4.468,6.633,0,11.012,0,16.289,0,22.067,6.154,26.8,13.906,27.178v3.017l5-4.059-5-3.888v2.945c-6.656-.353-11.919-4.208-11.919-8.9,0-4.219,3.589-7.663,9.275-8.6Z" transform="translate(1503.418 -226.686)" fill="#0080fc" stroke="#0080fc" stroke-linecap="round" stroke-width="2.2"/>
    <path id="_3d-rotate-2" data-name="3d-rotate" d="M0,0,.252,1.8C5.36,2.635,9.175,5.812,9.175,9.6c0,2.275-1.421,4.459-3.9,5.99a.892.892,0,0,0,.938,1.518c3.014-1.863,4.744-4.6,4.744-7.508C10.96,4.862,6.1.912,0,0Z" transform="translate(1545.705 -221.632) rotate(8)" fill="#0080fc" stroke="#0080fc" stroke-width="2"/>
  </g>
</svg>
