<svg id="Layer_2" data-name="Layer 2" xmlns="http://www.w3.org/2000/svg" width="42.639" height="42.639" viewBox="0 0 42.639 42.639">
  <path id="Caminho_13960" data-name="Caminho 13960" d="M45.9,15.927a1.848,1.848,0,0,0-1.475,1.839V37.193A7.222,7.222,0,0,1,37.2,44.415H17.777a1.777,1.777,0,0,0,0,3.553H38.394a9.585,9.585,0,0,0,9.585-9.585V17.677a1.777,1.777,0,0,0-2.079-1.75Z" transform="translate(-5.34 -5.329)" fill="#6fb0ff"/>
  <path id="Caminho_13962" data-name="Caminho 13962" d="M4,11.32V32.213a7.32,7.32,0,0,0,7.32,7.32H32.213a7.32,7.32,0,0,0,7.32-7.32V11.32A7.32,7.32,0,0,0,32.213,4H11.32A7.32,7.32,0,0,0,4,11.32Zm19.214,4.788,3.553,3.553a1.874,1.874,0,0,1,0,2.665l-.968.968a1.777,1.777,0,0,0,0,2.523h0a1.777,1.777,0,0,0,2.532,0l2.318-2.274L31.813,22.4a2.443,2.443,0,0,1,4.157,1.777v6.8a5.054,5.054,0,0,1-5.046,5.01H12.581a5.028,5.028,0,0,1-5.028-5.552,5.268,5.268,0,0,1,1.6-3.153L20.318,16.108A2.052,2.052,0,0,1,23.214,16.108Zm-6.778-3.225A3.553,3.553,0,1,1,12.883,9.33,3.553,3.553,0,0,1,16.436,12.883Z" transform="translate(-4 -4)" fill="#0080fc"/>
</svg>
