<svg xmlns="http://www.w3.org/2000/svg" width="36.388" height="36.388" viewBox="0 0 36.388 36.388">
  <g id="Layer_2" data-name="Layer 2" transform="translate(-14 -13)">
    <path id="Caminho_13959" data-name="Caminho 13959" d="M4,11.5v21.4a7.5,7.5,0,0,0,7.5,7.5h21.4a7.5,7.5,0,0,0,7.5-7.5V11.5a7.5,7.5,0,0,0-7.5-7.5H11.5A7.5,7.5,0,0,0,4,11.5Zm19.677,4.9,3.639,3.639a1.919,1.919,0,0,1,0,2.729l-.992.992a1.819,1.819,0,0,0,0,2.584h0a1.819,1.819,0,0,0,2.593,0l2.374-2.329,1.192-1.174a2.5,2.5,0,0,1,4.257,1.819v6.959a5.176,5.176,0,0,1-5.167,5.131H12.788a5.149,5.149,0,0,1-5.149-5.686,5.4,5.4,0,0,1,1.637-3.229L20.711,16.4a2.1,2.1,0,0,1,2.966,0Zm-6.941-3.3A3.639,3.639,0,1,1,13.1,9.458,3.639,3.639,0,0,1,16.736,13.1Z" transform="translate(10 9)" fill="#0080fc"/>
  </g>
</svg>
