<svg xmlns="http://www.w3.org/2000/svg" width="44.095" height="31.496" viewBox="0 0 44.095 31.496">
  <g id="Layer_2" data-name="Layer 2" transform="translate(-4 -12)">
    <path id="Caminho_13966" data-name="Caminho 13966" d="M10.236,43.5H29.378a6.189,6.189,0,0,0,6.189-6.189V18.213A6.189,6.189,0,0,0,29.378,12H10.236A6.236,6.236,0,0,0,4,18.26V37.236a6.236,6.236,0,0,0,6.236,6.26ZM29.2,16.724A1.575,1.575,0,1,1,27.622,18.3,1.575,1.575,0,0,1,29.2,16.724Z" transform="translate(0)" fill="#0080fc"/>
    <path id="Caminho_13967" data-name="Caminho 13967" d="M57.462,38.2V19.678a2.079,2.079,0,0,0-3.031-1.85l-4.976,2.551a2.575,2.575,0,0,0-1.394,2.26v12.6a2.575,2.575,0,0,0,1.394,2.283L54.43,40.08A2.079,2.079,0,0,0,57.462,38.2Z" transform="translate(-9.367 -1.19)" fill="#6fb0ff"/>
  </g>
</svg>
