<svg xmlns="http://www.w3.org/2000/svg" width="19.004" height="19.004" viewBox="0 0 19.004 19.004">
  <g id="_" data-name="?" transform="translate(0.5 0.5)">
    <circle id="Elipse_161" data-name="Elipse 161" cx="9.002" cy="9.002" r="9.002" fill="rgba(222,222,222,0.13)" stroke="#707070" stroke-width="1" opacity="0.999"/>
    <path id="Caminho_14034" data-name="Caminho 14034" d="M11.23,13.921H9.956V12.647H11.23Zm1.319-4.937-.573.586a2.231,2.231,0,0,0-.663,1.077,2.922,2.922,0,0,0-.083.726H9.956v-.319a2.577,2.577,0,0,1,.14-.835,2.546,2.546,0,0,1,.605-.968l.79-.8a1.25,1.25,0,0,0,.35-1.147,1.268,1.268,0,0,0-.885-.975,1.284,1.284,0,0,0-1.573.809.563.563,0,0,1-.522.414H8.669a.552.552,0,0,1-.522-.713,2.553,2.553,0,0,1,2.058-1.8A2.591,2.591,0,0,1,12.67,6.181,2.107,2.107,0,0,1,12.549,8.984Z" transform="translate(-1.632 -0.601)" fill="#707070"/>
  </g>
</svg>
