<svg xmlns="http://www.w3.org/2000/svg" width="76.507" height="19.258" viewBox="0 0 76.507 19.258">
  <g id="Grupo_5435" data-name="Grupo 5435" transform="translate(-1496.489 220.001)">
    <path id="Caminho_13948" data-name="Caminho 13948" d="M4.32,19.137,9.2,27.071a1.649,1.649,0,1,0,2.807-1.727L7.659,18.271,12.012,11.2A1.649,1.649,0,1,0,9.2,9.475L4.32,17.405A1.649,1.649,0,0,0,4.32,19.137Z" transform="translate(1492.414 -228.645)" fill="#6fb0ff"/>
    <path id="Caminho_13949" data-name="Caminho 13949" d="M40.828,27.605a1.649,1.649,0,0,0,2.267-.54l4.876-7.934a1.649,1.649,0,0,0,0-1.727L43.087,9.465a1.649,1.649,0,1,0-2.807,1.727l4.353,7.073L40.28,25.334a1.649,1.649,0,0,0,.548,2.271Z" transform="translate(1524.779 -228.635)" fill="#6fb0ff"/>
    <path id="iframe" d="M146.645,47.866v-1.81h-1.993v1.81h1.993Zm0,10.278V49.626H144.66v8.518h1.984Zm5.4,0V51h1.918V49.627h-1.918V49.27q0-.457.017-.718a2.086,2.086,0,0,1,.091-.5.809.809,0,0,1,.183-.34.92.92,0,0,1,.345-.183,2,2,0,0,1,.515-.1q.278-.017.751-.017l.075-1.6h-.44a9.627,9.627,0,0,0-1.241.071,5.471,5.471,0,0,0-.918.191,1.777,1.777,0,0,0-.643.349,2.164,2.164,0,0,0-.415.473,1.97,1.97,0,0,0-.236.648,5.738,5.738,0,0,0-.108.785q-.025.382-.025.963v.332H148.4V51h1.586v7.14Zm5.985,0V53.321a2.222,2.222,0,0,1,.54-1.611,1.858,1.858,0,0,1,1.394-.556,3.319,3.319,0,0,1,1.03.183v-1.8a3.366,3.366,0,0,0-.847-.125,1.99,1.99,0,0,0-1.133.336,4.385,4.385,0,0,0-1.009,1v-1.12h-2.19l.041.291q.042.291.083.83t.041,1.037v6.359h2.051Zm6.629-2.233a3.178,3.178,0,0,1-.61-2.042,3.143,3.143,0,0,1,.61-2.034,2.126,2.126,0,0,1,1.756-.755,2.065,2.065,0,0,1,1.748.751,3.3,3.3,0,0,1,.577,2.055,3.417,3.417,0,0,1-.544,2.03,1.992,1.992,0,0,1-1.739.76,2.164,2.164,0,0,1-1.8-.764Zm3.964,1.071v1.162h2.067V49.626H168.67v.9A2.777,2.777,0,0,0,166.3,49.41a4.5,4.5,0,0,0-1.9.386,3.576,3.576,0,0,0-1.349,1.037,4.771,4.771,0,0,0-.776,1.453A5.328,5.328,0,0,0,162,53.976a4.979,4.979,0,0,0,.257,1.6,4.5,4.5,0,0,0,.755,1.387,3.518,3.518,0,0,0,1.32,1,4.445,4.445,0,0,0,1.86.374,2.825,2.825,0,0,0,2.424-1.353h0Zm6.592,1.162V52.972a1.8,1.8,0,0,1,.581-1.324,1.994,1.994,0,0,1,1.453-.569,1.219,1.219,0,0,1,.561.124,1.038,1.038,0,0,1,.382.315,1.606,1.606,0,0,1,.22.452,2.818,2.818,0,0,1,.112.49,3.806,3.806,0,0,1,.029.477v5.205h2.059V53.321a2.336,2.336,0,0,1,.589-1.544,1.881,1.881,0,0,1,1.5-.7.986.986,0,0,1,.6.187,1.151,1.151,0,0,1,.382.5,3.124,3.124,0,0,1,.187.627,3.615,3.615,0,0,1,.058.656v5.1h2.059V52.922a3.89,3.89,0,0,0-.785-2.574,2.884,2.884,0,0,0-2.345-.938,3.264,3.264,0,0,0-2.764,1.577,2.6,2.6,0,0,0-1.046-1.179,2.92,2.92,0,0,0-1.5-.4,2.8,2.8,0,0,0-1.416.374,2.449,2.449,0,0,0-.967.955V49.627H173l.075.93q.083.93.083,1.81v5.778h2.059Zm15.774-6.65a2.243,2.243,0,0,1,1.486-.5,1.819,1.819,0,0,1,1.279.482,2.334,2.334,0,0,1,.672,1.386h-4.234a2.422,2.422,0,0,1,.8-1.37Zm3.45,6.58a6.171,6.171,0,0,0,1.625-.819l-.556-1.495a4.657,4.657,0,0,1-2.69.913,2.835,2.835,0,0,1-1.889-.6,2.41,2.41,0,0,1-.76-1.843h5.978a1.22,1.22,0,0,0,.042-.365,6.589,6.589,0,0,0-.212-1.727,4.461,4.461,0,0,0-.652-1.407,2.92,2.92,0,0,0-1.2-.975,4.183,4.183,0,0,0-1.768-.349,4.558,4.558,0,0,0-1.847.365,3.845,3.845,0,0,0-1.377.988,4.565,4.565,0,0,0-.843,1.428,4.851,4.851,0,0,0-.3,1.7,4.323,4.323,0,0,0,1.241,3.214,4.607,4.607,0,0,0,3.391,1.229,5.936,5.936,0,0,0,1.813-.262Z" transform="translate(1364.273 -262.842)" fill="#0080fc" fill-rule="evenodd"/>
  </g>
</svg>
