<svg xmlns="http://www.w3.org/2000/svg" xmlns:xlink="http://www.w3.org/1999/xlink" width="58" height="41" viewBox="0 0 58 41">
  <defs>
    <filter id="Uni達o_3" x="0" y="0" width="58" height="41" filterUnits="userSpaceOnUse">
      <feOffset dy="1" input="SourceAlpha"/>
      <feGaussianBlur stdDeviation="1.5" result="blur"/>
      <feFlood flood-opacity="0.122"/>
      <feComposite operator="in" in2="blur"/>
      <feComposite in="SourceGraphic"/>
    </filter>
  </defs>
  <g id="Grupo_3080" data-name="Grupo 3080" transform="translate(4.5 3.502)">
    <g transform="matrix(1, 0, 0, 1, -4.5, -3.5)" filter="url(#Uni達o_3)">
      <g id="Uni達o_3-2" data-name="Uni達o 3" transform="translate(53.5 35.5) rotate(180)" fill="#fff">
        <path d="M 48.50230026245117 31.50220108032227 L 17.50279998779297 31.50220108032227 L 17.50279998779297 31.43953132629395 L 16.97200012207031 31.4722900390625 C 16.650390625 31.49214172363281 16.32404136657715 31.50220108032227 16.00200080871582 31.50220108032227 C 11.86203098297119 31.50220108032227 7.969820499420166 29.88984107971191 5.042340755462646 26.9621410369873 C 2.11491060256958 24.03448104858398 0.5027005076408386 20.14209175109863 0.5027005076408386 16.00200080871582 C 0.5027005076408386 11.86191082000732 2.11491060256958 7.969521045684814 5.042340755462646 5.041860580444336 C 7.969820499420166 2.114160776138306 11.86203098297119 0.5018008351325989 16.00200080871582 0.5018008351325989 C 16.32415008544922 0.5018008351325989 16.6505012512207 0.5118607878684998 16.97200012207031 0.5317007899284363 L 17.50279998779297 0.564460813999176 L 17.50279998779297 0.5018008351325989 L 48.50230026245117 0.5018008351325989 L 48.50230026245117 31.50220108032227 Z" stroke="none"/>
        <path d="M 48.00230026245117 31.00220108032227 L 48.00230026245117 1.001800775527954 L 18.00279998779297 1.001800775527954 L 18.00279998779297 1.096260786056519 L 16.94120025634766 1.030750751495361 C 16.62991142272949 1.011540770530701 16.31392097473145 1.001800775527954 16.00200080871582 1.001800775527954 C 11.99560070037842 1.001800775527954 8.228950500488281 2.562150716781616 5.395910739898682 5.395401000976563 C 2.562910556793213 8.228631019592285 1.002700567245483 11.99546051025391 1.002700567245483 16.00200080871582 C 1.002700567245483 20.00854110717773 2.562910556793213 23.77537155151367 5.395910739898682 26.60860061645508 C 8.228950500488281 29.44185066223145 11.99560070037842 31.00220108032227 16.00200080871582 31.00220108032227 C 16.31381034851074 31.00220108032227 16.62980079650879 30.99246025085449 16.94120025634766 30.97323989868164 L 18.00279998779297 30.90773010253906 L 18.00279998779297 31.00220108032227 L 48.00230026245117 31.00220108032227 M 49.00230026245117 32.00220108032227 L 17.00279998779297 32.00220108032227 L 17.00279998779297 31.97134017944336 C 16.67191123962402 31.99176025390625 16.3380298614502 32.00220108032227 16.00200080871582 32.00220108032227 C 7.16580057144165 32.00220108032227 0.002700533950701356 24.83820152282715 0.002700533950701356 16.00200080871582 C 0.002700533950701356 7.16580057144165 7.16580057144165 0.001800808706320822 16.00200080871582 0.001800808706320822 C 16.3380298614502 0.001800808706320822 16.67191123962402 0.01223080884665251 17.00279998779297 0.03265080973505974 L 17.00279998779297 0.001800808706320822 L 49.00230026245117 0.001800808706320822 L 49.00230026245117 32.00220108032227 Z" stroke="none" fill="#e0e0e0"/>
      </g>
    </g>
    <g id="Elipse_145" data-name="Elipse 145" transform="translate(18.002 4)" fill="#f7f8fa" stroke="#ddd" stroke-width="1">
      <circle cx="12" cy="12" r="12" stroke="none"/>
      <circle cx="12" cy="12" r="11.5" fill="none"/>
    </g>
    <path id="Shape" d="M12.217,2.126C11.777,2.579,7.134,7,7.134,7A1.187,1.187,0,0,1,5.427,7S.784,2.579.342,2.126a1.289,1.289,0,0,1,0-1.75,1.154,1.154,0,0,1,1.706,0L6.28,4.435,10.511.378a1.154,1.154,0,0,1,1.706,0A1.285,1.285,0,0,1,12.217,2.126Z" transform="translate(25.781 22.408) rotate(-90)" fill="#1475df"/>
  </g>
</svg>
