<svg xmlns="http://www.w3.org/2000/svg" width="38.169" height="27.85" viewBox="0 0 38.169 27.85">
  <g id="Layer_2" data-name="Layer 2" transform="translate(-4.157 -7.997)">
    <path id="Caminho_13951" data-name="Caminho 13951" d="M44.606,8H22.734a2.734,2.734,0,0,0,0,5.468H44.606a2.734,2.734,0,1,0,0-5.468Z" transform="translate(-5.014 -0.001)" fill="#0080fc"/>
    <path id="Caminho_13952" data-name="Caminho 13952" d="M22.734,33.468h16.63a2.734,2.734,0,0,0,0-5.468H22.734a2.734,2.734,0,0,0,0,5.468Z" transform="translate(-5.014 -8.811)" fill="#0080fc"/>
    <path id="Caminho_13953" data-name="Caminho 13953" d="M44.606,48H22.734a2.734,2.734,0,1,0,0,5.468H44.606a2.734,2.734,0,1,0,0-5.468Z" transform="translate(-5.014 -17.621)" fill="#0080fc"/>
    <path id="Caminho_13954" data-name="Caminho 13954" d="M6.9,13.467a2.83,2.83,0,0,0,.533-.055,2.9,2.9,0,0,0,.513-.157,3.069,3.069,0,0,0,.472-.246,2.877,2.877,0,0,0,.41-.342,2.734,2.734,0,0,0,0-3.869,3.336,3.336,0,0,0-.417-.342,3.137,3.137,0,0,0-.472-.246,2.775,2.775,0,0,0-.513-.157,2.57,2.57,0,0,0-1.073,0,2.734,2.734,0,0,0-.506.157,2.6,2.6,0,0,0-.472.246,2.925,2.925,0,0,0-.417.342A2.734,2.734,0,0,0,6.9,13.467Z" transform="translate(0)" fill="#6fb0ff"/>
    <path id="Caminho_13955" data-name="Caminho 13955" d="M4.221,31.267a3.192,3.192,0,0,0,.157.513,3.137,3.137,0,0,0,.253.472,2.87,2.87,0,0,0,.342.417,2.973,2.973,0,0,0,.417.342,2.8,2.8,0,0,0,.472.246,2.59,2.59,0,0,0,.513.157,2.734,2.734,0,0,0,2.467-.745,2.5,2.5,0,0,0,.342-.417,2.734,2.734,0,0,0,.41-.984,2.843,2.843,0,0,0,.055-.533,2.734,2.734,0,0,0-5.468,0,2.83,2.83,0,0,0,.041.533Z" transform="translate(-0.007 -8.811)" fill="#6fb0ff"/>
    <path id="Caminho_13956" data-name="Caminho 13956" d="M4.97,52.669a2.734,2.734,0,0,0,3.862,0,2.5,2.5,0,0,0,.342-.417,2.734,2.734,0,0,0,.41-.984,2.625,2.625,0,0,0,0-1.066,2.734,2.734,0,0,0-.41-.984,2.208,2.208,0,0,0-.342-.417,2.83,2.83,0,0,0-.41-.342,3.138,3.138,0,0,0-.472-.246,2.775,2.775,0,0,0-.513-.157A2.734,2.734,0,0,0,4.97,48.8a2.5,2.5,0,0,0-.342.417,3.11,3.11,0,0,0-.253.472,2.6,2.6,0,0,0-.15.513,2.351,2.351,0,0,0-.055.533,2.734,2.734,0,0,0,.8,1.934Z" transform="translate(-0.004 -17.621)" fill="#6fb0ff"/>
  </g>
</svg>
