
<svg xmlns="http://www.w3.org/2000/svg" xmlns:xlink="http://www.w3.org/1999/xlink" width="92" height="39" viewBox="0 0 92 39">
  <defs>
    <clipPath id="clip-path">
      <rect width="17" height="15" fill="none"/>
    </clipPath>
    <clipPath id="clip-path-3">
      <rect width="17" height="5" fill="none"/>
    </clipPath>
  </defs>
  <g id="Mega_Menu" data-name="Mega Menu" transform="translate(-1487.488 227)">
    <g id="Grupo_5395" data-name="Grupo 5395" transform="translate(1487.488 -227)">
      <rect id="Retângulo_1140" data-name="Retângulo 1140" width="92" height="13" rx="3" fill="#0080fc"/>
      <rect id="Retângulo_1141" data-name="Retângulo 1141" width="15" height="3" rx="1.5" transform="translate(6 5)" fill="#fff" opacity="0.75"/>
      <rect id="Retângulo_1144" data-name="Retângulo 1144" width="15" height="3" rx="1.5" transform="translate(27 5)" fill="#fff"/>
      <rect id="Retângulo_1145" data-name="Retângulo 1145" width="15" height="3" rx="1.5" transform="translate(50 5)" fill="#fff" opacity="0.75"/>
      <rect id="Retângulo_1146" data-name="Retângulo 1146" width="15" height="3" rx="1.5" transform="translate(71 5)" fill="#fff" opacity="0.75"/>
    </g>
    <path id="Retângulo_1142" data-name="Retângulo 1142" d="M0,0H86a0,0,0,0,1,0,0V23a3,3,0,0,1-3,3H3a3,3,0,0,1-3-3V0A0,0,0,0,1,0,0Z" transform="translate(1490.488 -214)" fill="#6fb0ff"/>
    <g id="Repetição_de_grade_10" data-name="Repetição de grade 10" transform="translate(1494.488 -209)" opacity="0.948" clip-path="url(#clip-path)">
      <g transform="translate(-1518.488 211)">
        <rect id="Retângulo_1143" data-name="Retângulo 1143" width="17" height="3" rx="1.5" transform="translate(1518.488 -211)" fill="#fff"/>
      </g>
      <g transform="translate(-1518.488 217)">
        <rect id="Retângulo_1143-2" data-name="Retângulo 1143" width="17" height="3" rx="1.5" transform="translate(1518.488 -211)" fill="#fff"/>
      </g>
      <g transform="translate(-1518.488 223)">
        <rect id="Retângulo_1143-3" data-name="Retângulo 1143" width="17" height="3" rx="1.5" transform="translate(1518.488 -211)" fill="#fff"/>
      </g>
    </g>
    <g id="Repetição_de_grade_17" data-name="Repetição de grade 17" transform="translate(1536.488 -209)" opacity="0.948" clip-path="url(#clip-path)">
      <g transform="translate(-1518.488 211)">
        <rect id="Retângulo_1143-4" data-name="Retângulo 1143" width="17" height="3" rx="1.5" transform="translate(1518.488 -211)" fill="#fff"/>
      </g>
      <g transform="translate(-1518.488 217)">
        <rect id="Retângulo_1143-5" data-name="Retângulo 1143" width="17" height="3" rx="1.5" transform="translate(1518.488 -211)" fill="#fff"/>
      </g>
      <g transform="translate(-1518.488 223)">
        <rect id="Retângulo_1143-6" data-name="Retângulo 1143" width="17" height="3" rx="1.5" transform="translate(1518.488 -211)" fill="#fff"/>
      </g>
    </g>
    <g id="Repetição_de_grade_16" data-name="Repetição de grade 16" transform="translate(1515.488 -209)" opacity="0.948" clip-path="url(#clip-path-3)">
      <g transform="translate(-1518.488 211)">
        <rect id="Retângulo_1143-7" data-name="Retângulo 1143" width="17" height="3" rx="1.5" transform="translate(1518.488 -211)" fill="#fff"/>
      </g>
    </g>
    <rect id="Retângulo_1227" data-name="Retângulo 1227" width="19" height="15" rx="2" transform="translate(1572.488 -211) rotate(90)" fill="#fff" opacity="0.9"/>
    <rect id="Retângulo_1228" data-name="Retângulo 1228" width="11" height="17" rx="2" transform="translate(1532.488 -203) rotate(90)" fill="#fff" opacity="0.9"/>
  </g>
</svg>
