<?xml version="1.0" encoding="UTF-8"?>
<svg viewBox="0 0 50 62" xmlns="http://www.w3.org/2000/svg">
<defs>
<clipPath id="a">
<rect width="50" height="62" fill="none"/>
</clipPath>
</defs>
<g clip-path="url(#a)" data-name="Repetição de grade 15">
<g transform="translate(-1502.5 238)">
<path transform="translate(1498.5 -241.33)" d="M4,8.074V19.7a4.075,4.075,0,0,0,4.076,4.074H19.711A4.075,4.075,0,0,0,23.787,19.7V8.074A4.075,4.075,0,0,0,19.711,4H8.076A4.075,4.075,0,0,0,4,8.074Zm10.7,2.665,1.979,1.978a1.043,1.043,0,0,1,0,1.483l-.539.539a.988.988,0,0,0,0,1.4h0a.99.99,0,0,0,1.41,0l1.291-1.266.648-.638a1.36,1.36,0,0,1,2.315.989V19.01a2.814,2.814,0,0,1-2.81,2.788H8.779a2.8,2.8,0,0,1-2.8-3.09,2.931,2.931,0,0,1,.89-1.755l6.218-6.215A1.143,1.143,0,0,1,14.7,10.739ZM10.925,8.944A1.979,1.979,0,1,1,8.947,6.966,1.978,1.978,0,0,1,10.925,8.944Z" fill="#0080fc" data-name="Caminho 13962"/>
<g transform="translate(1502.5 -214.93)" fill="#6fb0ff" data-name="Grupo 5535">
<rect transform="translate(0 .001)" width="19.787" height="2.032" rx="1.016" data-name="Retângulo 1199"/>
<rect transform="translate(0 4.065)" width="13.005" height="2.032" rx="1.016" data-name="Retângulo 1200"/>
</g>
</g>
<g transform="translate(-1472.5 238)">
<path transform="translate(1498.5 -241.33)" d="M4,8.074V19.7a4.075,4.075,0,0,0,4.076,4.074H19.711A4.075,4.075,0,0,0,23.787,19.7V8.074A4.075,4.075,0,0,0,19.711,4H8.076A4.075,4.075,0,0,0,4,8.074Zm10.7,2.665,1.979,1.978a1.043,1.043,0,0,1,0,1.483l-.539.539a.988.988,0,0,0,0,1.4h0a.99.99,0,0,0,1.41,0l1.291-1.266.648-.638a1.36,1.36,0,0,1,2.315.989V19.01a2.814,2.814,0,0,1-2.81,2.788H8.779a2.8,2.8,0,0,1-2.8-3.09,2.931,2.931,0,0,1,.89-1.755l6.218-6.215A1.143,1.143,0,0,1,14.7,10.739ZM10.925,8.944A1.979,1.979,0,1,1,8.947,6.966,1.978,1.978,0,0,1,10.925,8.944Z" fill="#0080fc" data-name="Caminho 13962"/>
<g transform="translate(1502.5 -214.93)" fill="#6fb0ff" data-name="Grupo 5535">
<rect transform="translate(0 .001)" width="19.787" height="2.032" rx="1.016" data-name="Retângulo 1199"/>
<rect transform="translate(0 4.065)" width="13.005" height="2.032" rx="1.016" data-name="Retângulo 1200"/>
</g>
</g>
<g transform="translate(-1502.5 270)">
<path transform="translate(1498.5 -241.33)" d="M4,8.074V19.7a4.075,4.075,0,0,0,4.076,4.074H19.711A4.075,4.075,0,0,0,23.787,19.7V8.074A4.075,4.075,0,0,0,19.711,4H8.076A4.075,4.075,0,0,0,4,8.074Zm10.7,2.665,1.979,1.978a1.043,1.043,0,0,1,0,1.483l-.539.539a.988.988,0,0,0,0,1.4h0a.99.99,0,0,0,1.41,0l1.291-1.266.648-.638a1.36,1.36,0,0,1,2.315.989V19.01a2.814,2.814,0,0,1-2.81,2.788H8.779a2.8,2.8,0,0,1-2.8-3.09,2.931,2.931,0,0,1,.89-1.755l6.218-6.215A1.143,1.143,0,0,1,14.7,10.739ZM10.925,8.944A1.979,1.979,0,1,1,8.947,6.966,1.978,1.978,0,0,1,10.925,8.944Z" fill="#0080fc" data-name="Caminho 13962"/>
<g transform="translate(1502.5 -214.93)" fill="#6fb0ff" data-name="Grupo 5535">
<rect transform="translate(0 .001)" width="19.787" height="2.032" rx="1.016" data-name="Retângulo 1199"/>
<rect transform="translate(0 4.065)" width="13.005" height="2.032" rx="1.016" data-name="Retângulo 1200"/>
</g>
</g>
<g transform="translate(-1472.5 270)">
<path transform="translate(1498.5 -241.33)" d="M4,8.074V19.7a4.075,4.075,0,0,0,4.076,4.074H19.711A4.075,4.075,0,0,0,23.787,19.7V8.074A4.075,4.075,0,0,0,19.711,4H8.076A4.075,4.075,0,0,0,4,8.074Zm10.7,2.665,1.979,1.978a1.043,1.043,0,0,1,0,1.483l-.539.539a.988.988,0,0,0,0,1.4h0a.99.99,0,0,0,1.41,0l1.291-1.266.648-.638a1.36,1.36,0,0,1,2.315.989V19.01a2.814,2.814,0,0,1-2.81,2.788H8.779a2.8,2.8,0,0,1-2.8-3.09,2.931,2.931,0,0,1,.89-1.755l6.218-6.215A1.143,1.143,0,0,1,14.7,10.739ZM10.925,8.944A1.979,1.979,0,1,1,8.947,6.966,1.978,1.978,0,0,1,10.925,8.944Z" fill="#0080fc" data-name="Caminho 13962"/>
<g transform="translate(1502.5 -214.93)" fill="#6fb0ff" data-name="Grupo 5535">
<rect transform="translate(0 .001)" width="19.787" height="2.032" rx="1.016" data-name="Retângulo 1199"/>
<rect transform="translate(0 4.065)" width="13.005" height="2.032" rx="1.016" data-name="Retângulo 1200"/>
</g>
</g>
</g>
</svg>
