
<svg xmlns="http://www.w3.org/2000/svg" xmlns:xlink="http://www.w3.org/1999/xlink" width="70" height="42" viewBox="0 0 70 42">
  <defs>
    <clipPath id="clip-path">
      <rect width="12" height="8" fill="none"/>
    </clipPath>
    <clipPath id="clip-path-3">
      <rect width="14" height="7" fill="none"/>
    </clipPath>
  </defs>
  <g id="Grupo_4994" data-name="Grupo 4994" transform="translate(-0.134 0.115)">
    <g id="Grupo_4991" data-name="Grupo 4991" transform="translate(0 1.998)">
      <g id="Retângulo_1064" data-name="Retângulo 1064" transform="translate(0.134 -0.113)" fill="#fff" stroke="#0080fc" stroke-width="2">
        <rect width="20" height="39" rx="3" stroke="none"/>
        <rect x="1" y="1" width="18" height="37" rx="2" fill="none"/>
      </g>
      <path id="Caminho_14070" data-name="Caminho 14070" d="M27.825,25.068h1.354A2.93,2.93,0,0,1,32.1,27.993V28.5a2.93,2.93,0,0,1-2.621,2.91,1.014,1.014,0,0,1-1.962,0A2.93,2.93,0,0,1,24.9,28.5a1.014,1.014,0,1,1,2.028,0,.9.9,0,0,0,.9.9h1.354a.9.9,0,0,0,.9-.9v-.507a.9.9,0,0,0-.9-.9H27.825A2.93,2.93,0,0,1,24.9,24.17v-.507a2.93,2.93,0,0,1,2.621-2.91,1.014,1.014,0,0,1,1.962,0,2.93,2.93,0,0,1,2.621,2.91,1.014,1.014,0,1,1-2.028,0,.9.9,0,0,0-.9-.9H27.825a.9.9,0,0,0-.9.9v.507A.9.9,0,0,0,27.825,25.068Z" transform="translate(-18.67 -11.97)" fill="#0080fc"/>
      <g id="Repetição_de_grade_7" data-name="Repetição de grade 7" transform="translate(4.134 23.887)" clip-path="url(#clip-path)">
        <g transform="translate(-1497.488 206)">
          <rect id="Retângulo_1065" data-name="Retângulo 1065" width="12" height="3" rx="1.5" transform="translate(1497.488 -206)" fill="#0080fc"/>
        </g>
        <g transform="translate(-1497.488 211)">
          <rect id="Retângulo_1065-2" data-name="Retângulo 1065" width="12" height="3" rx="1.5" transform="translate(1497.488 -206)" fill="#0080fc"/>
        </g>
      </g>
    </g>
    <g id="Grupo_4993" data-name="Grupo 4993" transform="translate(50.004 1.998)">
      <g id="Retângulo_1064-2" data-name="Retângulo 1064" transform="translate(0.13 -0.113)" fill="#fff" stroke="#0080fc" stroke-width="2">
        <rect width="20" height="39" rx="3" stroke="none"/>
        <rect x="1" y="1" width="18" height="37" rx="2" fill="none"/>
      </g>
      <path id="Caminho_14070-2" data-name="Caminho 14070" d="M27.825,25.068h1.354A2.93,2.93,0,0,1,32.1,27.993V28.5a2.93,2.93,0,0,1-2.621,2.91,1.014,1.014,0,0,1-1.962,0A2.93,2.93,0,0,1,24.9,28.5a1.014,1.014,0,1,1,2.028,0,.9.9,0,0,0,.9.9h1.354a.9.9,0,0,0,.9-.9v-.507a.9.9,0,0,0-.9-.9H27.825A2.93,2.93,0,0,1,24.9,24.17v-.507a2.93,2.93,0,0,1,2.621-2.91,1.014,1.014,0,0,1,1.962,0,2.93,2.93,0,0,1,2.621,2.91,1.014,1.014,0,1,1-2.028,0,.9.9,0,0,0-.9-.9H27.825a.9.9,0,0,0-.9.9v.507A.9.9,0,0,0,27.825,25.068Z" transform="translate(-18.67 -11.97)" fill="#0080fc"/>
      <g id="Repetição_de_grade_7-2" data-name="Repetição de grade 7" transform="translate(4.13 23.887)" clip-path="url(#clip-path)">
        <g transform="translate(-1497.488 206)">
          <rect id="Retângulo_1065-3" data-name="Retângulo 1065" width="12" height="3" rx="1.5" transform="translate(1497.488 -206)" fill="#0080fc"/>
        </g>
        <g transform="translate(-1497.488 211)">
          <rect id="Retângulo_1065-4" data-name="Retângulo 1065" width="12" height="3" rx="1.5" transform="translate(1497.488 -206)" fill="#0080fc"/>
        </g>
      </g>
    </g>
    <g id="Grupo_4992" data-name="Grupo 4992" transform="translate(24.002 0)">
      <rect id="Retângulo_1064-3" data-name="Retângulo 1064" width="22" height="42" rx="3" transform="translate(0.132 -0.115)" fill="#0080fc"/>
      <path id="Caminho_14070-3" data-name="Caminho 14070" d="M28.053,25.462h1.459a3.158,3.158,0,0,1,3.153,3.153v.546A3.158,3.158,0,0,1,29.839,32.3a1.093,1.093,0,0,1-2.114,0A3.158,3.158,0,0,1,24.9,29.161a1.093,1.093,0,1,1,2.185,0,.967.967,0,0,0,.967.967h1.459a.967.967,0,0,0,.967-.967v-.546a.967.967,0,0,0-.973-.967H28.053A3.158,3.158,0,0,1,24.9,24.495v-.546a3.158,3.158,0,0,1,2.825-3.136,1.093,1.093,0,0,1,2.114,0,3.158,3.158,0,0,1,2.825,3.136,1.093,1.093,0,1,1-2.185,0,.967.967,0,0,0-.967-.967H28.053a.967.967,0,0,0-.967.967v.546A.967.967,0,0,0,28.053,25.462Z" transform="translate(-18.186 -11.339)" fill="#fff"/>
      <g id="Repetição_de_grade_7-3" data-name="Repetição de grade 7" transform="translate(4.132 25.885)" clip-path="url(#clip-path-3)">
        <g transform="translate(-1497.488 206)">
          <rect id="Retângulo_1065-5" data-name="Retângulo 1065" width="16" height="3" rx="1.5" transform="translate(1497.488 -206)" fill="#fff"/>
        </g>
        <g transform="translate(-1497.488 211)">
          <rect id="Retângulo_1065-6" data-name="Retângulo 1065" width="16" height="3" rx="1.5" transform="translate(1497.488 -206)" fill="#fff"/>
        </g>
      </g>
    </g>
  </g>
</svg>
