<svg xmlns="http://www.w3.org/2000/svg" width="43.987" height="36" viewBox="0 0 43.987 36">
  <path id="Restaurant_s_Menu" data-name="Restaurant’s Menu" d="M42.987,7H30a4.5,4.5,0,0,0-4.5,4.5v26a1.5,1.5,0,0,1-3,0v-26A4.5,4.5,0,0,0,18,7H5a3,3,0,0,0-3,3V38a3,3,0,0,0,3,3H20.555a3.967,3.967,0,0,0,6.89,0H42.987a3,3,0,0,0,3-3V10A3,3,0,0,0,42.987,7ZM13.5,23.731V33.5a1.5,1.5,0,0,1-3,0V23.731A4.737,4.737,0,0,1,7.5,19c0-2.767,1.848-6,4.5-6s4.5,3.233,4.5,6A4.737,4.737,0,0,1,13.5,23.731Zm22,8.769H32a1.5,1.5,0,0,1,0-3h3.5a1.5,1.5,0,0,1,0,3Zm0-7H32a1.5,1.5,0,0,1,0-3h3.5a1.5,1.5,0,0,1,0,3Zm0-7H32a1.5,1.5,0,0,1,0-3h3.5a1.5,1.5,0,0,1,0,3Zm5,14A1.5,1.5,0,1,1,42,31,1.5,1.5,0,0,1,40.5,32.5Zm0-7A1.5,1.5,0,1,1,42,24,1.5,1.5,0,0,1,40.5,25.5Zm0-7A1.5,1.5,0,1,1,42,17,1.5,1.5,0,0,1,40.5,18.5Z" transform="translate(-2 -7)" fill="#0080fc"/>
</svg>
