
<svg xmlns="http://www.w3.org/2000/svg" width="37.555" height="37.705" viewBox="0 0 37.555 37.705">
  <g id="Progress_Circle" data-name="Progress Circle" transform="translate(-1514.617 228.923)">
    <path id="Subtração_32" data-name="Subtração 32" d="M24772.7,16082.479a18.715,18.715,0,1,1,7.311-1.477A18.65,18.65,0,0,1,24772.7,16082.479Zm0-30.381a11.6,11.6,0,1,0,11.6,11.6A11.525,11.525,0,0,0,24772.7,16052.1Z" transform="translate(-23239.305 -16273.844)" fill="#dfe8f4"/>
    <path id="Subtração_39" data-name="Subtração 39" d="M26307.986,15838.9h-7.158a12.08,12.08,0,0,0-1.654-6.07,10.689,10.689,0,0,0-4.436-4.238,10.937,10.937,0,0,0-7.449-1.281,6.9,6.9,0,0,1-1.234.123,2.585,2.585,0,0,1-2.713-1.807,4.291,4.291,0,0,1,.357-3.5,3.508,3.508,0,0,1,2.33-1.8,17.24,17.24,0,0,1,12.8,2.377,18.2,18.2,0,0,1,6.824,6.949,18.785,18.785,0,0,1,2.336,9.242Z" transform="translate(-24755.871 -16048.898)" fill="#0080fc"/>
    <path id="Subtração_40" data-name="Subtração 40" d="M6.387,18.925a17.411,17.411,0,0,1-3.479-.353,3.511,3.511,0,0,1-2.332-1.8,4.291,4.291,0,0,1-.355-3.495,2.583,2.583,0,0,1,2.709-1.81,6.9,6.9,0,0,1,1.24.125,11.136,11.136,0,0,0,1.988.18,10.932,10.932,0,0,0,5.458-1.463A10.709,10.709,0,0,0,16.051,6.07,12.087,12.087,0,0,0,17.708,0h7.156a18.785,18.785,0,0,1-2.335,9.242A18.212,18.212,0,0,1,15.7,16.192,17.392,17.392,0,0,1,6.387,18.925Z" transform="translate(1527.25 -210.143)" fill="#0080fc"/>
  </g>
</svg>
