<svg xmlns="http://www.w3.org/2000/svg" width="38.493" height="28.589" viewBox="0 0 38.493 28.589">
  <g id="Progress_Bar" data-name="Progress Bar" transform="translate(-8 -8)">
    <g id="Grupo_5550" data-name="Grupo 5550">
      <path id="Caminho_16045" data-name="Caminho 16045" d="M24.646,8H21.471L12.89,16.589h3.168Z" transform="translate(-0.969)" fill="#ccd8e5"/>
      <path id="Caminho_16046" data-name="Caminho 16046" d="M29.7,8H26.529L17.94,16.589h3.176Z" transform="translate(-1.969)" fill="#ccd8e5"/>
      <path id="Caminho_16047" data-name="Caminho 16047" d="M34.756,8H31.589L23,16.589h3.168Z" transform="translate(-2.971)" fill="#ccd8e5"/>
      <path id="Caminho_16048" data-name="Caminho 16048" d="M16.444,8,8,16.444v.144h3.031L19.62,8Z" fill="#ccd8e5"/>
      <path id="Caminho_16049" data-name="Caminho 16049" d="M8,12.395v3.168L15.562,8H12.395Z" fill="#ccd8e5"/>
      <path id="Caminho_16050" data-name="Caminho 16050" d="M39.816,8H36.641L28.06,16.589h3.168Z" transform="translate(-3.973)" fill="#ccd8e5"/>
      <path id="Caminho_16051" data-name="Caminho 16051" d="M55.475,16.05,53.35,18.183h2.125Z" transform="translate(-8.982 -1.595)" fill="#ccd8e5"/>
      <path id="Caminho_16052" data-name="Caminho 16052" d="M54.473,14.166V10.99L48.29,17.181h3.168Z" transform="translate(-7.98 -0.592)" fill="#ccd8e5"/>
      <path id="Caminho_16053" data-name="Caminho 16053" d="M11.5,8H8v3.5Z" fill="#ccd8e5"/>
      <path id="Caminho_16054" data-name="Caminho 16054" d="M53.471,9.516V8H51.819L43.23,16.589h3.176Z" transform="translate(-6.979)" fill="#ccd8e5"/>
      <path id="Caminho_16055" data-name="Caminho 16055" d="M49.926,8H46.759L38.17,16.589h3.176Z" transform="translate(-5.977)" fill="#ccd8e5"/>
      <path id="Caminho_16056" data-name="Caminho 16056" d="M44.876,8H41.7L33.12,16.589h3.168Z" transform="translate(-4.977)" fill="#ccd8e5"/>
    </g>
    <g id="Grupo_5551" data-name="Grupo 5551" transform="translate(0 10)">
      <path id="Caminho_16045-2" data-name="Caminho 16045" d="M24.646,8H21.471L12.89,16.589h3.168Z" transform="translate(-0.969)" fill="#ccd8e5"/>
      <path id="Caminho_16046-2" data-name="Caminho 16046" d="M29.7,8H26.529L17.94,16.589h3.176Z" transform="translate(-1.969)" fill="#ccd8e5"/>
      <path id="Caminho_16047-2" data-name="Caminho 16047" d="M34.756,8H31.589L23,16.589h3.168Z" transform="translate(-2.971)" fill="#ccd8e5"/>
      <path id="Caminho_16048-2" data-name="Caminho 16048" d="M16.444,8,8,16.444v.144h3.031L19.62,8Z" fill="#ccd8e5"/>
      <path id="Caminho_16049-2" data-name="Caminho 16049" d="M8,12.395v3.168L15.562,8H12.395Z" fill="#ccd8e5"/>
      <path id="Caminho_16050-2" data-name="Caminho 16050" d="M39.816,8H36.641L28.06,16.589h3.168Z" transform="translate(-3.973)" fill="#ccd8e5"/>
      <path id="Caminho_16051-2" data-name="Caminho 16051" d="M55.475,16.05,53.35,18.183h2.125Z" transform="translate(-8.982 -1.595)" fill="#ccd8e5"/>
      <path id="Caminho_16052-2" data-name="Caminho 16052" d="M54.473,14.166V10.99L48.29,17.181h3.168Z" transform="translate(-7.98 -0.592)" fill="#ccd8e5"/>
      <path id="Caminho_16053-2" data-name="Caminho 16053" d="M11.5,8H8v3.5Z" fill="#ccd8e5"/>
      <path id="Caminho_16054-2" data-name="Caminho 16054" d="M53.471,9.516V8H51.819L43.23,16.589h3.176Z" transform="translate(-6.979)" fill="#ccd8e5"/>
      <path id="Caminho_16055-2" data-name="Caminho 16055" d="M49.926,8H46.759L38.17,16.589h3.176Z" transform="translate(-5.977)" fill="#ccd8e5"/>
      <path id="Caminho_16056-2" data-name="Caminho 16056" d="M44.876,8H41.7L33.12,16.589h3.168Z" transform="translate(-4.977)" fill="#ccd8e5"/>
    </g>
    <g id="Grupo_5552" data-name="Grupo 5552" transform="translate(0 20)">
      <path id="Caminho_16045-3" data-name="Caminho 16045" d="M24.646,8H21.471L12.89,16.589h3.168Z" transform="translate(-0.969)" fill="#ccd8e5"/>
      <path id="Caminho_16046-3" data-name="Caminho 16046" d="M29.7,8H26.529L17.94,16.589h3.176Z" transform="translate(-1.969)" fill="#ccd8e5"/>
      <path id="Caminho_16047-3" data-name="Caminho 16047" d="M34.756,8H31.589L23,16.589h3.168Z" transform="translate(-2.971)" fill="#ccd8e5"/>
      <path id="Caminho_16048-3" data-name="Caminho 16048" d="M16.444,8,8,16.444v.144h3.031L19.62,8Z" fill="#ccd8e5"/>
      <path id="Caminho_16049-3" data-name="Caminho 16049" d="M8,12.395v3.168L15.562,8H12.395Z" fill="#ccd8e5"/>
      <path id="Caminho_16050-3" data-name="Caminho 16050" d="M39.816,8H36.641L28.06,16.589h3.168Z" transform="translate(-3.973)" fill="#ccd8e5"/>
      <path id="Caminho_16051-3" data-name="Caminho 16051" d="M55.475,16.05,53.35,18.183h2.125Z" transform="translate(-8.982 -1.595)" fill="#ccd8e5"/>
      <path id="Caminho_16052-3" data-name="Caminho 16052" d="M54.473,14.166V10.99L48.29,17.181h3.168Z" transform="translate(-7.98 -0.592)" fill="#ccd8e5"/>
      <path id="Caminho_16053-3" data-name="Caminho 16053" d="M11.5,8H8v3.5Z" fill="#ccd8e5"/>
      <path id="Caminho_16054-3" data-name="Caminho 16054" d="M53.471,9.516V8H51.819L43.23,16.589h3.176Z" transform="translate(-6.979)" fill="#ccd8e5"/>
      <path id="Caminho_16055-3" data-name="Caminho 16055" d="M49.926,8H46.759L38.17,16.589h3.176Z" transform="translate(-5.977)" fill="#ccd8e5"/>
      <path id="Caminho_16056-3" data-name="Caminho 16056" d="M44.876,8H41.7L33.12,16.589h3.168Z" transform="translate(-4.977)" fill="#ccd8e5"/>
    </g>
    <rect id="Retângulo_1205" data-name="Retângulo 1205" width="5.277" height="8.589" transform="translate(8 8)" fill="#0081fd"/>
    <rect id="Retângulo_1206" data-name="Retângulo 1206" width="19.246" height="8.589" transform="translate(8 17.968)" fill="#0795ff"/>
    <rect id="Retângulo_1207" data-name="Retângulo 1207" width="14.435" height="8.589" transform="translate(8 27.936)" fill="#0080fc"/>
    <rect id="Retângulo_1209" data-name="Retângulo 1209" width="1.075" height="8.589" transform="translate(13.277 8)" fill="#b1becc"/>
    <rect id="Retângulo_1210" data-name="Retângulo 1210" width="1.075" height="8.589" transform="translate(27.246 17.968)" fill="#b1becc"/>
    <rect id="Retângulo_1211" data-name="Retângulo 1211" width="1.075" height="8.589" transform="translate(22.435 27.936)" fill="#b1becc"/>
  </g>
</svg>
