<svg xmlns="http://www.w3.org/2000/svg" xmlns:xlink="http://www.w3.org/1999/xlink" width="58.002" height="41" viewBox="0 0 58.002 41">
  <defs>
    <filter id="Uni達o_3" x="0" y="0" width="58.002" height="41" filterUnits="userSpaceOnUse">
      <feOffset dy="1" input="SourceAlpha"/>
      <feGaussianBlur stdDeviation="1.5" result="blur"/>
      <feFlood flood-opacity="0.122"/>
      <feComposite operator="in" in2="blur"/>
      <feComposite in="SourceGraphic"/>
    </filter>
  </defs>
  <g id="Grupo_3080" data-name="Grupo 3080" transform="translate(-1455.5 -693.5)">
    <g transform="matrix(1, 0, 0, 1, 1455.5, 693.5)" filter="url(#Uni達o_3)">
      <g id="Uni達o_3-2" data-name="Uni達o 3" transform="translate(1753.5 -23528.5)" fill="#fff">
        <path d="M -1700.500610351563 23563.501953125 L -1731.500122070313 23563.501953125 L -1731.500122070313 23563.4375 L -1732.032592773438 23563.47265625 C -1732.340576171875 23563.4921875 -1732.665893554688 23563.501953125 -1732.999633789063 23563.501953125 C -1737.139038085938 23563.501953125 -1741.03173828125 23561.888671875 -1743.960571289063 23558.9609375 C -1746.889404296875 23556.03125 -1748.502319335938 23552.138671875 -1748.502319335938 23548 C -1748.502319335938 23543.861328125 -1746.889404296875 23539.96875 -1743.960693359375 23537.041015625 C -1741.032348632813 23534.11328125 -1737.139526367188 23532.501953125 -1732.999633789063 23532.501953125 C -1732.692626953125 23532.501953125 -1732.375366210938 23532.51171875 -1732.029663085938 23532.533203125 L -1731.500122070313 23532.564453125 L -1731.500122070313 23532.501953125 L -1700.500610351563 23532.501953125 L -1700.500610351563 23563.501953125 Z" stroke="none"/>
        <path d="M -1701.000610351563 23563.001953125 L -1701.000610351563 23533.001953125 L -1731.000122070313 23533.001953125 L -1731.000122070313 23533.09375 L -1732.059204101563 23533.03125 C -1732.39501953125 23533.01171875 -1732.70263671875 23533.001953125 -1732.999633789063 23533.001953125 C -1737.006103515625 23533.001953125 -1740.773315429688 23534.5625 -1743.607177734375 23537.39453125 C -1746.44140625 23540.228515625 -1748.002319335938 23543.994140625 -1748.002319335938 23548 C -1748.002319335938 23552.005859375 -1746.44140625 23555.771484375 -1743.607055664063 23558.607421875 C -1740.772705078125 23561.44140625 -1737.005493164063 23563.001953125 -1732.999633789063 23563.001953125 C -1732.6767578125 23563.001953125 -1732.3623046875 23562.9921875 -1732.065063476563 23562.97265625 L -1731.000122070313 23562.904296875 L -1731.000122070313 23563.001953125 L -1701.000610351563 23563.001953125 M -1700.000610351563 23564.001953125 L -1732.000122070313 23564.001953125 L -1732.000122070313 23563.970703125 C -1732.330444335938 23563.9921875 -1732.664184570313 23564.001953125 -1732.999633789063 23564.001953125 C -1741.834838867188 23564.001953125 -1749.002319335938 23556.833984375 -1749.002319335938 23548 C -1749.002319335938 23539.1640625 -1741.834838867188 23532.001953125 -1732.999633789063 23532.001953125 C -1732.664184570313 23532.001953125 -1732.330444335938 23532.013671875 -1732.000122070313 23532.033203125 L -1732.000122070313 23532.001953125 L -1700.000610351563 23532.001953125 L -1700.000610351563 23564.001953125 Z" stroke="none" fill="#e0e0e0"/>
      </g>
    </g>
    <g id="Elipse_145" data-name="Elipse 145" transform="translate(1467 701)" fill="#f7f8fa" stroke="#ddd" stroke-width="1">
      <circle cx="12" cy="12" r="12" stroke="none"/>
      <circle cx="12" cy="12" r="11.5" fill="none"/>
    </g>
    <path id="Shape" d="M12.217,2.126C11.776,2.579,7.133,7,7.133,7A1.187,1.187,0,0,1,5.427,7S.784,2.579.342,2.126a1.289,1.289,0,0,1,0-1.75,1.154,1.154,0,0,1,1.706,0L6.28,4.435,10.51.378a1.154,1.154,0,0,1,1.706,0A1.285,1.285,0,0,1,12.217,2.126Z" transform="translate(1475.857 719.407) rotate(-90)" fill="#1475df"/>
  </g>
</svg>
