<svg xmlns="http://www.w3.org/2000/svg" width="84.176" height="49.766" viewBox="0 0 84.176 49.766">
  <g id="Grupo_5400" data-name="Grupo 5400" transform="translate(-1492.156 235)">
    <rect id="Retângulo_996" data-name="Retângulo 996" width="67" height="31" rx="5" transform="translate(1500.488 -235)" fill="#0080fc"/>
    <path id="Caminho_15808" data-name="Caminho 15808" d="M4,7.136v8.953a3.136,3.136,0,0,0,3.136,3.136h8.953a3.136,3.136,0,0,0,3.136-3.136V7.136A3.136,3.136,0,0,0,16.089,4H7.136A3.136,3.136,0,0,0,4,7.136Zm8.233,2.052,1.523,1.523a.8.8,0,0,1,0,1.142l-.415.415a.761.761,0,0,0,0,1.081h0a.761.761,0,0,0,1.085,0l.993-.974.5-.491a1.047,1.047,0,0,1,1.781.761v2.912A2.166,2.166,0,0,1,15.537,17.7H7.677a2.154,2.154,0,0,1-2.154-2.379,2.257,2.257,0,0,1,.685-1.351l4.785-4.785A.879.879,0,0,1,12.233,9.188Zm-2.9-1.382A1.523,1.523,0,1,1,7.806,6.284,1.523,1.523,0,0,1,9.329,7.806Z" transform="translate(1522.488 -231)" fill="#fff" opacity="0.849"/>
    <path id="Caminho_15809" data-name="Caminho 15809" d="M0,3.991V14.068a1.991,1.991,0,0,0,1.991,1.991H14.7a1.991,1.991,0,0,0,1.991-1.991V3.991A1.991,1.991,0,0,0,14.7,2H1.991A1.991,1.991,0,0,0,0,3.991Zm8.741,3.06.967.967a.51.51,0,0,1,0,.725l-.263.263a.483.483,0,0,0,0,.686h0a.483.483,0,0,0,.689,0l.631-.619.317-.312a.664.664,0,0,1,1.131.483v1.848a1.375,1.375,0,0,1-1.372,1.363H5.849a1.368,1.368,0,0,1-1.368-1.51,1.433,1.433,0,0,1,.435-.858L7.953,7.051A.558.558,0,0,1,8.741,7.051ZM6.9,6.174a.967.967,0,1,1-.967-.967A.967.967,0,0,1,6.9,6.174Z" transform="translate(1504.053 -201.293)" fill="#0080fc"/>
    <path id="Caminho_15810" data-name="Caminho 15810" d="M0,3.991V14.068a1.991,1.991,0,0,0,1.991,1.991H14.7a1.991,1.991,0,0,0,1.991-1.991V3.991A1.991,1.991,0,0,0,14.7,2H1.991A1.991,1.991,0,0,0,0,3.991Zm8.741,3.06.967.967a.51.51,0,0,1,0,.725l-.263.263a.483.483,0,0,0,0,.686h0a.483.483,0,0,0,.689,0l.631-.619.317-.312a.664.664,0,0,1,1.131.483v1.848a1.375,1.375,0,0,1-1.372,1.363H5.849a1.368,1.368,0,0,1-1.368-1.51,1.433,1.433,0,0,1,.435-.858L7.953,7.051A.558.558,0,0,1,8.741,7.051ZM6.9,6.174a.967.967,0,1,1-.967-.967A.967.967,0,0,1,6.9,6.174Z" transform="translate(1525.141 -201.293)" fill="#0080fc"/>
    <path id="Caminho_15811" data-name="Caminho 15811" d="M0,3.991V14.068a1.991,1.991,0,0,0,1.991,1.991H14.7a1.991,1.991,0,0,0,1.991-1.991V3.991A1.991,1.991,0,0,0,14.7,2H1.991A1.991,1.991,0,0,0,0,3.991Zm8.741,3.06.967.967a.51.51,0,0,1,0,.725l-.263.263a.483.483,0,0,0,0,.686h0a.483.483,0,0,0,.689,0l.631-.619.317-.312a.664.664,0,0,1,1.131.483v1.848a1.375,1.375,0,0,1-1.372,1.363H5.849a1.368,1.368,0,0,1-1.368-1.51,1.433,1.433,0,0,1,.435-.858L7.953,7.051A.558.558,0,0,1,8.741,7.051ZM6.9,6.174a.967.967,0,1,1-.967-.967A.967.967,0,0,1,6.9,6.174Z" transform="translate(1546.229 -201.293)" fill="#0080fc"/>
    <path id="angle-up" d="M6.871,4.522a.722.722,0,0,1-.512-.212L3.8,1.749,1.236,4.309A.724.724,0,1,1,.212,3.285L3.285.212a.724.724,0,0,1,1.024,0L7.383,3.285a.724.724,0,0,1-.512,1.236Z" transform="translate(1576.332 -223) rotate(90)" fill="#0080fc" opacity="0.743"/>
    <path id="angle-up-2" data-name="angle-up" d="M6.87,0a.722.722,0,0,0-.512.212L3.8,2.773,1.236.212A.724.724,0,1,0,.212,1.236L3.285,4.309a.724.724,0,0,0,1.024,0L7.382,1.236A.724.724,0,0,0,6.87,0Z" transform="translate(1496.678 -223) rotate(90)" fill="#0080fc" opacity="0.743"/>
  </g>
</svg>
