<svg xmlns="http://www.w3.org/2000/svg" width="42.95" height="42.588" viewBox="0 0 42.95 42.588">
  <g id="Grupo_5120" data-name="Grupo 5120" transform="translate(-1511.792 232.2)">
    <path id="Caminho_15425" data-name="Caminho 15425" d="M8.122,14.894a3.836,3.836,0,0,1-.914-.145.585.585,0,0,0-.734.692,4.061,4.061,0,0,0,3.054,2.981,3.788,3.788,0,0,1-1.039.142.474.474,0,0,0-.422.692,3.961,3.961,0,0,0,3.372,2.077h.346a.692.692,0,0,1,0,1.385,8.143,8.143,0,0,1-1.565-.166,1.786,1.786,0,0,0-1,.052,7.782,7.782,0,0,1-1.852.433.464.464,0,0,0-.436.454h0a.457.457,0,0,0,.27.419,11.013,11.013,0,0,0,4.449.938c7.312,0,11.311-6.211,11.311-11.6h0a1.084,1.084,0,0,1,.381-.831,8.167,8.167,0,0,0,1.139-1.17.225.225,0,0,0-.256-.346,7.769,7.769,0,0,1-1.274.319A.069.069,0,0,1,22.9,11.1a4.065,4.065,0,0,0,1.257-1.482.225.225,0,0,0-.3-.3,7.765,7.765,0,0,1-1.215.488A1.361,1.361,0,0,1,21.4,9.555a3.9,3.9,0,0,0-2.423-.845,3.992,3.992,0,0,0-3.84,3.036.478.478,0,0,0,.488.582,9.171,9.171,0,0,0,1.523-.19.713.713,0,0,1,.814.405.692.692,0,0,1-.443.931,8.634,8.634,0,0,1-3.362.149h0a11.189,11.189,0,0,1-6.782-3.611.464.464,0,0,0-.789.156,4.155,4.155,0,0,0-.222,1.343A4.1,4.1,0,0,0,8.122,14.894Z" transform="translate(1530.221 -215.224)" fill="#0081fd"/>
    <path id="Caminho_15426" data-name="Caminho 15426" d="M12.518,25.146h8.108a4.583,4.583,0,0,0,4.518-4.615V12.615A4.583,4.583,0,0,0,20.626,8H12.518A4.583,4.583,0,0,0,8,12.615v7.916a4.583,4.583,0,0,0,4.518,4.615Zm9.055-14.288a1.072,1.072,0,1,1-1.05,1.072,1.072,1.072,0,0,1,1.05-1.072Zm-5,1.429a4.286,4.286,0,1,1-4.2,4.286A4.243,4.243,0,0,1,16.572,12.286Z" transform="translate(1528.353 -238.094)" fill="#0081fd"/>
    <path id="Caminho_15427" data-name="Caminho 15427" d="M7.11,24.152a48.916,48.916,0,0,0,6.566.435,48.916,48.916,0,0,0,6.566-.432,3.591,3.591,0,0,0,3.11-3.553V11.988a3.591,3.591,0,0,0-3.11-3.553,49.724,49.724,0,0,0-13.132,0A3.591,3.591,0,0,0,4,11.988V20.6A3.591,3.591,0,0,0,7.11,24.152Zm4.34-9.448a1.182,1.182,0,0,1,1.821-1l2.709,1.728a1,1,0,0,1,0,1.686l-2.709,1.728a1.182,1.182,0,0,1-1.821-1Z" transform="translate(1507.792 -214.199)" fill="#0081fd"/>
    <path id="Caminho_15424" data-name="Caminho 15424" d="M18.8,15.244h1.178a.205.205,0,0,1,.205.205v7.44a.7.7,0,0,0,.695.7h2.707a.7.7,0,0,0,.695-.7V15.446a.205.205,0,0,1,.205-.205h1.96a.7.7,0,0,0,.695-.594l.455-2.724a.7.7,0,0,0-.695-.831H24.61a.323.323,0,0,1-.323-.323V9.031a.626.626,0,0,1,.695-.7h2.054a.7.7,0,0,0,.695-.7V4.885a.7.7,0,0,0-.695-.7H24.593c-4.517,0-4.4,3.638-4.4,4.17v2.533a.205.205,0,0,1-.205.205H18.8a.7.7,0,0,0-.695.7v2.724a.7.7,0,0,0,.695.726Z" transform="translate(1498.267 -236.39)" fill="#0081fd"/>
  </g>
</svg>
