<svg xmlns="http://www.w3.org/2000/svg" width="34.481" height="58.217" viewBox="0 0 34.481 58.217">
  <g id="Spacing" transform="translate(10 17)">
    <path id="Caminho_15833" data-name="Caminho 15833" d="M25.407,42.956a2.02,2.02,0,0,0,2.02-2.02V29.9l1.258,1.258A2.021,2.021,0,1,0,31.543,28.3l-4.707-4.708a2.02,2.02,0,0,0-2.859,0L19.27,28.3a2.021,2.021,0,0,0,2.859,2.859L23.386,29.9V40.936A2.02,2.02,0,0,0,25.407,42.956Z" transform="translate(-18.678 -24.997)" fill="#0080fc"/>
    <path id="Caminho_15834" data-name="Caminho 15834" d="M6.729,19.959a2.02,2.02,0,0,0,2.02-2.02V6.9l1.258,1.258A2.021,2.021,0,1,0,12.865,5.3L8.158.593A2.02,2.02,0,0,0,5.3.593L.592,5.3A2.021,2.021,0,0,0,3.451,8.159L4.708,6.9V17.939A2.02,2.02,0,0,0,6.729,19.959Z" transform="translate(13.458 27.283) rotate(180)" fill="#0080fc"/>
    <path id="Menu" d="M-30.579,50.261a2,2,0,0,1-2-2,2,2,0,0,1,2-2H-4.41a2,2,0,0,1,2,2,2,2,0,0,1-2,2ZM-33,42.814a2,2,0,0,1-2-2,2,2,0,0,1,2-2h30.48a2,2,0,0,1,2,2,2,2,0,0,1-2,2Zm0-39.326a2,2,0,0,1-2-2,2,2,0,0,1,2-2H-2.52a2,2,0,0,1,2,2,2,2,0,0,1-2,2Zm1.891-7.445a2,2,0,0,1-2-2,2,2,0,0,1,2-2H-4.94a2,2,0,0,1,2,2,2,2,0,0,1-2,2Z" transform="translate(25 -9.043)" fill="#6fb0ff"/>
  </g>
</svg>
