
<svg xmlns="http://www.w3.org/2000/svg" width="55" height="42.002" viewBox="0 0 55 42.002">
  <g id="Grupo_4990" data-name="Grupo 4990" transform="translate(-0.129 0.115)">
    <path id="Subtração_6" data-name="Subtração 6" d="M18,8H0C0,3.588,2.164,0,4.823,0h5.189a4.237,4.237,0,0,1,3.45,2.41l2.351,4A2.85,2.85,0,0,0,18,8Z" transform="translate(31.906)" fill="#6fb0ff"/>
    <path id="Subtração_5" data-name="Subtração 5" d="M18,8H0C0,3.588,2.164,0,4.823,0h5.189a4.237,4.237,0,0,1,3.45,2.41l2.351,4A2.85,2.85,0,0,0,18,8Z" transform="translate(18.105)" fill="#2b97ff"/>
    <path id="Subtração_7" data-name="Subtração 7" d="M49.262,42H5.734C2.571,42,0,38.411,0,34V8C0,3.587,2.571,0,5.734,0H11.9a5.13,5.13,0,0,1,4.1,2.41l2.8,4A3.383,3.383,0,0,0,21.506,8H49.262C52.425,8,55,11.587,55,16V34C55,38.411,52.425,42,49.262,42ZM8.08,11.5a5.006,5.006,0,0,0-5,5v17a5.006,5.006,0,0,0,5,5h39a5.006,5.006,0,0,0,5-5v-17a5.006,5.006,0,0,0-5-5Z" transform="translate(0.131 -0.113)" fill="#0080fc"/>
  </g>
</svg>
