<svg xmlns="http://www.w3.org/2000/svg" width="56.861" height="33.632" viewBox="0 0 56.861 33.632">
  <g id="Grupo_4995" data-name="Grupo 4995" transform="translate(-1495.352 228.472)">
    <path id="Caminho_594" data-name="Caminho 594" d="M22.154,20.13C12.124,20.13,4,27.654,4,36.942A15.943,15.943,0,0,0,7.568,46.963a2.075,2.075,0,0,1,.371,1.847L6.91,52.581a.7.7,0,0,0,.844.844l5.18-1.417a2.151,2.151,0,0,1,1.434.118,19.267,19.267,0,0,0,7.786,1.636c10.022,0,18.12-7.533,18.12-16.82S32.175,20.13,22.154,20.13Z" transform="translate(1491.352 -248.602)" fill="#0080fc"/>
    <g id="star-with-five-points" transform="translate(1506.098 -219.121)">
      <path id="Caminho_13968" data-name="Caminho 13968" d="M14.606,6.006c-.224-.7-1.46-.862-2.768-1.036a5.786,5.786,0,0,1-1.778-.383,5.8,5.8,0,0,1-.9-1.582C8.607,1.81,8.081.682,7.346.68l-.014,0C6.6.69,6.072,1.8,5.507,2.987A5.9,5.9,0,0,1,4.6,4.562a5.881,5.881,0,0,1-1.784.365C1.5,5.086.267,5.235.036,5.933S.708,7.49,1.665,8.4A5.873,5.873,0,0,1,2.879,9.752a5.833,5.833,0,0,1-.2,1.807c-.254,1.292-.493,2.516.1,2.954a.86.86,0,0,0,.53.148,6.368,6.368,0,0,0,2.316-.937,5.811,5.811,0,0,1,1.663-.737,5.759,5.759,0,0,1,1.657.752A6.054,6.054,0,0,0,11.3,14.7a.825.825,0,0,0,.482-.146c.6-.429.369-1.653.13-2.95a5.942,5.942,0,0,1-.186-1.81,5.922,5.922,0,0,1,1.228-1.343C13.918,7.554,14.829,6.708,14.606,6.006Z" transform="translate(0 -0.679)" fill="#fff"/>
    </g>
    <path id="Subtração_8" data-name="Subtração 8" d="M23969.021,17942.2h-.045a17.325,17.325,0,0,1-8.441-2.162,15.172,15.172,0,0,0,4.02-4.381,16.956,16.956,0,0,0,2.229-5.881,1.957,1.957,0,0,0,1,.271,2,2,0,1,0,0-4,2.1,2.1,0,0,0-.723.133,16.763,16.763,0,0,0-5.3-12.062,17.347,17.347,0,0,1,7.217-1.541,16.947,16.947,0,0,1,11.482,4.338,13.865,13.865,0,0,1,1.563,19.3,1.805,1.805,0,0,0-.336,1.631l.92,3.322a.605.605,0,0,1-.162.578.641.641,0,0,1-.445.18.743.743,0,0,1-.145-.016l-4.635-1.248a1.933,1.933,0,0,0-1.283.1A17.262,17.262,0,0,1,23969.021,17942.2Zm10.762-16.156a2,2,0,1,0,2,2.006A2,2,0,0,0,23979.783,17926.041Zm-6,0a2,2,0,1,0,2,2.006A2,2,0,0,0,23973.781,17926.041Z" transform="translate(-22433 -18138.043)" fill="#6fb0ff"/>
  </g>
</svg>
