<svg xmlns="http://www.w3.org/2000/svg" width="35.933" height="33.195" viewBox="0 0 35.933 33.195">
  <g id="Layer_2" data-name="Layer 2" transform="translate(0.014 3.003)">
    <path id="Caminho_13951" data-name="Caminho 13951" d="M42.244,8H31.32a2.32,2.32,0,1,0,0,4.641H42.244a2.32,2.32,0,1,0,0-4.641Z" transform="translate(-8.646 -11.001)" fill="#6fb0ff"/>
    <path id="Caminho_13963" data-name="Caminho 13963" d="M42.244,8H31.32a2.32,2.32,0,1,0,0,4.641H42.244a2.32,2.32,0,1,0,0-4.641Z" transform="translate(-8.646 -4.363)" fill="#6fb0ff"/>
    <path id="Caminho_13964" data-name="Caminho 13964" d="M42.244,8H31.32a2.32,2.32,0,1,0,0,4.641H42.244a2.32,2.32,0,1,0,0-4.641Z" transform="translate(-8.646 2.275)" fill="#6fb0ff"/>
    <path id="Caminho_13953" data-name="Caminho 13953" d="M38.613,48H7.32a2.32,2.32,0,1,0,0,4.641H38.613a2.32,2.32,0,1,0,0-4.641Z" transform="translate(-5.014 -30.087)" fill="#6fb0ff"/>
    <path id="Caminho_13965" data-name="Caminho 13965" d="M38.613,48H7.32a2.32,2.32,0,1,0,0,4.641H38.613a2.32,2.32,0,1,0,0-4.641Z" transform="translate(-5.014 -22.449)" fill="#6fb0ff"/>
    <path id="Text" d="M22.441,8h-8.8A1.693,1.693,0,0,0,11.9,9.636v2.85a.6.6,0,0,0,.609.572h0a.591.591,0,0,0,.609-.572h0a.554.554,0,0,1,.18-.406.63.63,0,0,1,.433-.166H17.66a.591.591,0,0,1,.609.572V25.072a.591.591,0,0,1-.609.572h-.184a.6.6,0,0,0-.609.572h0a.554.554,0,0,0,.177.407.63.63,0,0,0,.432.169h5.614a.591.591,0,0,0,.609-.572h0a.6.6,0,0,0-.609-.572h-.046a.625.625,0,0,1-.429-.168.55.55,0,0,1-.176-.4V12.486a.55.55,0,0,1,.176-.4.625.625,0,0,1,.429-.168h3.792a.591.591,0,0,1,.609.572h0a.591.591,0,0,0,.609.572h0a.6.6,0,0,0,.609-.572V9.636A1.692,1.692,0,0,0,26.925,8Z" transform="translate(-11.914 -11.003)" fill="#0080fc"/>
  </g>
</svg>
