<svg xmlns="http://www.w3.org/2000/svg" xmlns:xlink="http://www.w3.org/1999/xlink" width="162.298" height="100.255" viewBox="0 0 162.298 100.255">
  <defs>
    <linearGradient id="linear-gradient" x1="0.003" y1="-2.596" x2="1" y2="-2.596" gradientUnits="objectBoundingBox">
      <stop offset="0.066" stop-color="#0bdeff"/>
      <stop offset="0.226" stop-color="#0baeff"/>
      <stop offset="0.288" stop-color="#1ea2f7"/>
      <stop offset="0.45" stop-color="#4985e4"/>
      <stop offset="0.606" stop-color="#6c6ed5"/>
      <stop offset="0.753" stop-color="#845ecb"/>
      <stop offset="0.888" stop-color="#9354c4"/>
      <stop offset="1" stop-color="#9851c2"/>
    </linearGradient>
    <linearGradient id="linear-gradient-2" x1="0.003" y1="-2.596" x2="0.999" y2="-2.596" xlink:href="#linear-gradient"/>
    <linearGradient id="linear-gradient-3" x1="-0.004" y1="0.765" x2="0.992" y2="0.765" xlink:href="#linear-gradient"/>
    <linearGradient id="linear-gradient-4" x1="-0.003" y1="0.616" x2="1" y2="0.616" xlink:href="#linear-gradient"/>
    <linearGradient id="linear-gradient-5" x1="0" y1="0.034" x2="1" y2="0.034" xlink:href="#linear-gradient"/>
    <linearGradient id="linear-gradient-6" x1="-0.004" y1="-0.504" x2="0.999" y2="-0.504" xlink:href="#linear-gradient"/>
    <linearGradient id="linear-gradient-7" x1="-0.007" y1="-0.2" x2="0.995" y2="-0.2" xlink:href="#linear-gradient"/>
    <linearGradient id="linear-gradient-8" x1="-0.235" y1="189.916" x2="0.804" y2="189.916" xlink:href="#linear-gradient"/>
    <linearGradient id="linear-gradient-9" x1="0.219" y1="-112.431" x2="1.309" y2="-112.431" xlink:href="#linear-gradient"/>
    <linearGradient id="linear-gradient-10" x1="-0.201" y1="-73.159" x2="1.396" y2="-73.159" xlink:href="#linear-gradient"/>
    <linearGradient id="linear-gradient-11" x1="-0.17" y1="-96.266" x2="0.68" y2="-96.266" xlink:href="#linear-gradient"/>
    <linearGradient id="linear-gradient-12" x1="0.425" y1="-52.95" x2="1.472" y2="-52.95" xlink:href="#linear-gradient"/>
    <linearGradient id="linear-gradient-13" x1="0.186" y1="-48.565" x2="0.966" y2="-48.565" xlink:href="#linear-gradient"/>
    <linearGradient id="linear-gradient-14" x1="0" y1="0.5" x2="1" y2="0.5" xlink:href="#linear-gradient"/>
    <linearGradient id="linear-gradient-16" x1="0" y1="1.903" x2="0.998" y2="1.903" xlink:href="#linear-gradient"/>
    <linearGradient id="linear-gradient-17" x1="-0.001" y1="9.383" x2="1.003" y2="9.383" xlink:href="#linear-gradient"/>
    <linearGradient id="linear-gradient-18" x1="0" y1="1.861" x2="1" y2="1.861" xlink:href="#linear-gradient"/>
    <linearGradient id="linear-gradient-19" x1="0" y1="4.822" x2="1.005" y2="4.822" xlink:href="#linear-gradient"/>
    <linearGradient id="linear-gradient-20" x1="0" y1="2.147" x2="1" y2="2.147" xlink:href="#linear-gradient"/>
  </defs>
  <g id="Approve_integration_-_Builderall_Builder" data-name="Approve integration - Builderall Builder" transform="translate(-271.647 -334.649)">
    <g id="Camada_1-2" data-name="Camada 1-2" transform="translate(271.647 334.649)">
      <g id="Grupo_7161" data-name="Grupo 7161">
        <g id="Grupo_7159" data-name="Grupo 7159" transform="translate(72.778 77.021)">
          <path id="Caminho_16094" data-name="Caminho 16094" d="M491.009,545.235a8.908,8.908,0,0,0,1.937.93,8.61,8.61,0,0,0,4.649.232,11,11,0,0,0,5.5-3.177c.775-.775,1.627-1.55,2.4-2.247,2.093-1.86,4.185-3.72,6.354-5.58l6.044-5.114c1.008-.852,2.093-1.7,3.1-2.557h.077a2.247,2.247,0,0,0,0-3.255,2.581,2.581,0,0,0-1.627-.7c-.233,0-.388.078-.62.078a1.723,1.723,0,0,0-1.007.62c-1.7,1.394-3.332,2.789-5.037,4.184-3.177,2.635-6.277,5.346-9.376,8.059-.775.7-1.472,1.395-2.247,2.092a23.169,23.169,0,0,1-2.48,2.247l.465-.388a8.57,8.57,0,0,1-2.015,1.163l.542-.232a6.694,6.694,0,0,1-1.783.465c.233,0,.388-.077.62-.077a6.877,6.877,0,0,1-1.783,0c.233,0,.388.077.62.077a6.147,6.147,0,0,1-1.7-.465c.155.077.387.155.542.232l-.93-.465a2.375,2.375,0,0,0-1.782-.233,2.192,2.192,0,0,0-1.395,1.085,2.068,2.068,0,0,0-.232,1.782,5.686,5.686,0,0,0,1.162,1.24Z" transform="translate(-473.695 -523.771)" fill="url(#linear-gradient)"/>
          <path id="Caminho_16095" data-name="Caminho 16095" d="M451.623,545.235a8.907,8.907,0,0,0,1.937.93,8.61,8.61,0,0,0,4.649.232,11,11,0,0,0,5.5-3.177c.775-.775,1.627-1.55,2.4-2.247,2.092-1.86,4.185-3.72,6.354-5.58l6.044-5.114c1.007-.852,2.092-1.7,3.1-2.557h.077a2.248,2.248,0,0,0,0-3.255,2.583,2.583,0,0,0-1.627-.7c-.232,0-.387.078-.62.078a1.723,1.723,0,0,0-1.007.62c-1.7,1.394-3.332,2.789-5.037,4.184-3.177,2.635-6.276,5.346-9.376,8.059-.775.7-1.472,1.395-2.247,2.092a23.129,23.129,0,0,1-2.479,2.247c.155-.155.31-.233.465-.388a8.563,8.563,0,0,1-2.015,1.163l.542-.232a6.7,6.7,0,0,1-1.782.465c.233,0,.387-.077.62-.077a6.874,6.874,0,0,1-1.782,0c.233,0,.387.077.62.077a6.151,6.151,0,0,1-1.7-.465c.155.077.388.155.542.232l-.93-.465a2.376,2.376,0,0,0-1.782-.233,2.192,2.192,0,0,0-1.395,1.085,2.068,2.068,0,0,0-.233,1.782,4.263,4.263,0,0,0,1.162,1.24Z" transform="translate(-450.349 -523.771)" fill="url(#linear-gradient-2)"/>
        </g>
        <circle id="Elipse_323" data-name="Elipse 323" cx="3.254" cy="3.254" r="3.254" transform="translate(129.146 48.971)" fill="url(#linear-gradient-3)"/>
        <g id="Grupo_7160" data-name="Grupo 7160" transform="translate(13.612 36.263)">
          <path id="Caminho_16096" data-name="Caminho 16096" d="M419.051,449.649c-.387-.233-.7-.387-1.085-.62-1.007-.542-2.015-1.162-3.022-1.7-1.472-.852-3.022-1.7-4.495-2.557-1.859-1.085-3.719-2.092-5.5-3.177-2.014-1.162-4.029-2.325-6.122-3.487s-4.184-2.4-6.2-3.564c-2.092-1.162-3.952-2.325-5.967-3.41-1.7-1.007-3.487-2.015-5.191-3.022-1.317-.775-2.635-1.55-3.952-2.4-.775-.465-1.55-.93-2.325-1.472L374.96,424c.155.155.31.233.465.387h0a2.773,2.773,0,0,0-1.627-.7,2.23,2.23,0,0,0-1.627.7,2.584,2.584,0,0,0-.7,1.627,2.23,2.23,0,0,0,.7,1.627,23.109,23.109,0,0,0,2.247,1.55c1.162.7,2.4,1.472,3.564,2.169,1.627.93,3.255,1.937,4.882,2.867,1.937,1.162,3.875,2.247,5.812,3.332,2.092,1.162,4.107,2.4,6.2,3.564s4.107,2.325,6.2,3.564c1.937,1.085,3.8,2.17,5.734,3.254,1.627.93,3.177,1.783,4.8,2.712,1.162.62,2.325,1.317,3.41,1.937l1.627.93h.077a2.42,2.42,0,0,0,1.782.232,2.19,2.19,0,0,0,1.395-1.085,2.227,2.227,0,0,0-.852-3.022Z" transform="translate(-344.43 -423.691)" fill="url(#linear-gradient-4)"/>
          <path id="Caminho_16097" data-name="Caminho 16097" d="M386.549,471.67l-1.162-.7c-1.085-.62-2.092-1.24-3.177-1.782-1.55-.93-3.1-1.782-4.727-2.712-1.937-1.085-3.874-2.247-5.734-3.332-2.092-1.24-4.262-2.48-6.354-3.719-2.169-1.24-4.339-2.557-6.509-3.8-2.092-1.24-4.107-2.4-6.2-3.642-1.783-1.085-3.565-2.092-5.347-3.177-1.395-.852-2.789-1.627-4.107-2.479-.775-.465-1.627-1.008-2.4-1.55a1.071,1.071,0,0,0-.31-.233c.155.155.31.233.465.387h0a2.772,2.772,0,0,0-1.627-.7,2.23,2.23,0,0,0-1.627.7,2.584,2.584,0,0,0-.7,1.627,2.228,2.228,0,0,0,.7,1.627,15.167,15.167,0,0,0,2.325,1.55c1.24.775,2.48,1.55,3.72,2.247l5.114,3.022c2.014,1.162,4.029,2.4,6.044,3.564,2.17,1.24,4.339,2.48,6.432,3.8,2.169,1.24,4.339,2.48,6.509,3.8,2.015,1.162,3.952,2.325,5.967,3.41,1.7.93,3.332,1.937,5.037,2.867,1.162.7,2.4,1.395,3.564,2.092a19.522,19.522,0,0,1,1.7,1.008.076.076,0,0,1,.077.077,2.423,2.423,0,0,0,1.783.233,2.191,2.191,0,0,0,1.394-1.085,2.394,2.394,0,0,0-.852-3.1Z" transform="translate(-324.017 -435.871)" fill="url(#linear-gradient-5)"/>
          <path id="Caminho_16098" data-name="Caminho 16098" d="M356.289,494.072c-.387-.233-.775-.465-1.24-.7-1.085-.62-2.169-1.317-3.254-1.937-1.627-.93-3.254-1.937-4.882-2.867-2.015-1.162-4.029-2.325-5.967-3.565-2.169-1.317-4.417-2.635-6.586-3.874-2.247-1.318-4.494-2.635-6.742-4.029-2.17-1.24-4.262-2.557-6.431-3.8-1.86-1.085-3.719-2.247-5.579-3.332-1.472-.852-2.867-1.7-4.262-2.635a27.233,27.233,0,0,1-2.479-1.627,1.071,1.071,0,0,0-.31-.233c.155.155.31.233.465.387h0a2.771,2.771,0,0,0-1.627-.7,2.231,2.231,0,0,0-1.627.7,2.584,2.584,0,0,0-.7,1.627,2.232,2.232,0,0,0,.7,1.627,26.127,26.127,0,0,0,2.4,1.627c1.24.775,2.557,1.55,3.875,2.4,1.782,1.085,3.564,2.17,5.347,3.177l6.277,3.72c2.247,1.317,4.494,2.635,6.741,4.029l6.741,3.952c2.092,1.24,4.185,2.479,6.2,3.642,1.782,1.008,3.487,2.092,5.269,3.1,1.24.7,2.479,1.472,3.719,2.17.62.31,1.162.7,1.782,1.007a.076.076,0,0,1,.077.077,2.286,2.286,0,0,0,3.177-.852,2.8,2.8,0,0,0-1.085-3.1Z" transform="translate(-305.07 -448.277)" fill="url(#linear-gradient-6)"/>
        </g>
        <path id="Caminho_16099" data-name="Caminho 16099" d="M376.85,458.406a10.926,10.926,0,0,0-3.8-3.254c-1.7-.93-3.565-1.7-5.347-2.48-2.169-.93-4.262-1.782-6.587-2.867a51.673,51.673,0,0,1-7.051-3.8c-.542-.31-1.007-.7-1.55-1.007l-5.967,1.162a37.243,37.243,0,0,0,7.671,5.424,98.493,98.493,0,0,0,10.073,4.649c.542.233.542.233,1.162.465l1.627.7c.93.388,1.782.775,2.712,1.24.7.387,1.395.775,2.092,1.24.077.077.542.465.232.155-.232-.233.155.155.233.155.077.077.233.155.31.31l.077.077V460.5c0,.077.078.077.155.155h0l-.077-.078c.077.078.155.233.233.233h0v-.077a.27.27,0,0,1,.077.155v0h0a.076.076,0,0,0,.077.078v-.078c0,.155.077.233,0,.078h0v.233a.339.339,0,0,1-.077.232c0,.155-.077.233-.077.388,0,.077-.078.232-.078.31.155-.388,0,0,0,.077h0v-.077h0c-.155.233-.233.542-.387.775a5.219,5.219,0,0,1-.542.852c-.077.155-.155.233-.233.388a.076.076,0,0,1-.077.077c.155-.155-.077.077-.077.155a.272.272,0,0,0,.077-.155v.077a52.973,52.973,0,0,1-7.671,7.362c-3.255,2.712-6.587,5.269-9.841,7.9-3.642,2.867-7.052,5.967-10.616,8.911a13.483,13.483,0,0,0-1.162,1.007c-.233.155-.387.31-.62.465l-.155.155h0l-.077.078c-.077,0-.077.077-.155.077-.775.62-1.55,1.162-2.325,1.7a18.444,18.444,0,0,1-2.325,1.395,7.812,7.812,0,0,1-1.162.542.076.076,0,0,0-.077.078h-.077a1.1,1.1,0,0,1-.465.155,5.678,5.678,0,0,1-1.085.31c-.155,0-1.007.31-1.085.233h-.62a5.565,5.565,0,0,1-1.008-.077h-.155a1.43,1.43,0,0,1-.542-.155,6.041,6.041,0,0,1-1.085-.387h-.077c-.155-.077-.388-.155-.542-.233-.465-.233-.852-.387-1.24-.62-1.937-1.007-3.875-2.015-5.812-3.177-2.867-1.7-5.812-3.41-8.679-5.114-4.417-2.557-8.834-5.191-13.173-7.748-4.494-2.635-8.911-5.269-13.405-7.9-3.177-1.86-6.354-3.8-9.454-5.734-.387-.233-.775-.542-1.24-.775a.774.774,0,0,1-.387-.31c-.078,0-.078-.077-.155-.155-.155-.155,0,0,.155.078a2.36,2.36,0,0,0-3.1.155,2.411,2.411,0,0,0,0,3.332,66.474,66.474,0,0,0,6.277,4.029c3.874,2.4,7.826,4.727,11.778,7.051,4.572,2.712,9.066,5.347,13.638,8.059,3.8,2.247,7.672,4.494,11.468,6.741,1.782,1.007,3.487,2.092,5.269,3.1,1.24.7,2.48,1.317,3.719,2.015a23.681,23.681,0,0,0,4.727,2.092,11.779,11.779,0,0,0,5.192.233c3.564-.542,6.741-2.712,9.531-4.8,3.72-2.867,7.284-5.967,10.848-9.066,6.122-5.192,12.941-9.764,18.6-15.5,2.015-2.015,4.262-4.494,4.881-7.361a15.612,15.612,0,0,0-1.394-4.029Zm-46.183,36.5Z" transform="translate(-271.647 -400.059)" fill="url(#linear-gradient-7)"/>
        <path id="Caminho_16100" data-name="Caminho 16100" d="M411.725,566.2Z" transform="translate(-354.643 -471.9)" fill="#fff"/>
        <path id="Caminho_16101" data-name="Caminho 16101" d="M412,566.2Z" transform="translate(-354.84 -471.9)" fill="#fff"/>
        <path id="Caminho_16102" data-name="Caminho 16102" d="M416.376,567.533Z" transform="translate(-357.434 -472.689)" fill="#fff"/>
        <path id="Caminho_16103" data-name="Caminho 16103" d="M416.566,567.533Z" transform="translate(-357.547 -472.689)" fill="#fff"/>
        <path id="Caminho_16104" data-name="Caminho 16104" d="M427.031,565.82Z" transform="translate(-363.75 -471.674)" fill="#fff"/>
        <path id="Caminho_16105" data-name="Caminho 16105" d="M457.995,433.31l.077.078c-.077-.078-.077-.155-.077-.078C457.917,433.232,457.995,433.232,457.995,433.31Z" transform="translate(-382.083 -393.095)" fill="url(#linear-gradient-8)"/>
        <path id="Caminho_16106" data-name="Caminho 16106" d="M516.457,492.469a.272.272,0,0,0,.077-.155h0c.155-.155,0,.155-.077.155Z" transform="translate(-416.756 -428.078)" fill="url(#linear-gradient-9)"/>
        <path id="Caminho_16107" data-name="Caminho 16107" d="M519.881,487.183c.155-.387,0,0,0,.077h0Z" transform="translate(-418.786 -424.962)" fill="url(#linear-gradient-10)"/>
        <path id="Caminho_16108" data-name="Caminho 16108" d="M519.881,483.244c0,.078.078.078.155.155h0c-.077-.077-.155-.077-.155-.155Z" transform="translate(-418.786 -422.728)" fill="url(#linear-gradient-11)"/>
        <path id="Caminho_16109" data-name="Caminho 16109" d="M520.339,484.957h0c0,.077-.077.233-.077.31A.772.772,0,0,1,520.339,484.957Z" transform="translate(-419.012 -423.743)" fill="url(#linear-gradient-12)"/>
        <path id="Caminho_16110" data-name="Caminho 16110" d="M520.417,484.238h0c0,.077.077.155,0,0h0c-.078-.077-.078-.155-.155-.155v-.078a.272.272,0,0,1,.077.155v0h0a.076.076,0,0,1,.078.077Z" transform="translate(-419.012 -423.179)" fill="url(#linear-gradient-13)"/>
        <path id="Caminho_16111" data-name="Caminho 16111" d="M546.088,568.1Z" transform="translate(-434.299 -473.028)" fill="#fff"/>
        <path id="Caminho_16112" data-name="Caminho 16112" d="M546.519,568.1Z" transform="translate(-434.575 -473.028)" fill="#fff"/>
        <path id="Caminho_16113" data-name="Caminho 16113" d="M570.012,456.933a22.96,22.96,0,0,0-.114-7.094,31.576,31.576,0,0,0-3.95-10.609L559.753,438A52.242,52.242,0,0,1,563,443.8c.077.077.464,1.006.7,1.474-.077-.077-.077-.077,0,.077v.077a.077.077,0,0,1-.069-.037.3.3,0,0,0,.069.114c.077.077.077.232.155.387.077.31.236.542.314.851a20.5,20.5,0,0,1,.929,3.1c.077.464.155.929.232,1.4v.31c0,.232.077.464.077.7,0,.928.077,1.861,0,2.79a7.506,7.506,0,0,1-.077,1.315v.232a.5.5,0,0,1-.024.147A19.766,19.766,0,0,0,547.84,481.98c-1.715,1.527-3.49,3.022-5.221,4.512-.851.774-1.625,1.47-2.48,2.248a12.312,12.312,0,0,1-1.006,1.006c-.077,0-.387.31-.387.31a1.618,1.618,0,0,1-.464.31c-.232.077-.391.232-.623.31h-.077a.779.779,0,0,1-.232.077,4.439,4.439,0,0,1-1.083.309h-.7c-.387,0-.7-.077-1.087-.077h-.155a.585.585,0,0,0-.31-.077,9.353,9.353,0,0,1-1.393-.387.27.27,0,0,0-.155-.077h-.077a2.448,2.448,0,0,0-3.022.929,2.371,2.371,0,0,0,.851,3.181,11.4,11.4,0,0,0,7.669.851c3.026-.7,5.038-3.1,7.286-5.038,1.535-1.315,3.071-2.623,4.59-3.942a19.749,19.749,0,1,0,20.245-29.49Zm-3.217,36.8a17.32,17.32,0,0,1-15.154-8.952,17.3,17.3,0,0,1-2.159-8.361,17.329,17.329,0,0,1,15.333-17.194,16.776,16.776,0,0,1,1.979-.114,17,17,0,0,1,2.822.232,17.31,17.31,0,0,1-2.822,34.389Z" transform="translate(-424.245 -395.91)" fill="url(#linear-gradient-14)"/>
        <path id="Caminho_16114" data-name="Caminho 16114" d="M604.368,437.976a.031.031,0,0,0-.008-.016l6.2,1.242a0,0,0,0,0,0,0Z" transform="translate(-468.86 -395.886)" fill="url(#linear-gradient-14)"/>
        <path id="Caminho_16115" data-name="Caminho 16115" d="M588.848,455.189a5.535,5.535,0,0,0-5.037-2.712s8.059-1.085,8.446,4.185Z" transform="translate(-456.68 -404.436)" fill="url(#linear-gradient-16)"/>
        <path id="Caminho_16116" data-name="Caminho 16116" d="M583.941,348.531l-1.472-7.051a4.293,4.293,0,0,0-4.107-3.41H572.4a36.439,36.439,0,0,1,11.546,10.461Z" transform="translate(-449.913 -336.677)" fill="url(#linear-gradient-17)"/>
        <path id="Caminho_16117" data-name="Caminho 16117" d="M522.943,373.7l-13.4-5.347v-1.083a32.236,32.236,0,1,0-64.469-.387v2.944h-2.558a1.752,1.752,0,0,0-1.784,1.78v2.248a1.755,1.755,0,0,0,1.784,1.784H468.24a1.754,1.754,0,0,0,1.78-1.784v-6.972a1.471,1.471,0,0,1,1.474-1.474h11.7a1.47,1.47,0,0,1,1.47,1.474v7.127a1.722,1.722,0,0,0,1.706,1.706h15.883l5.123,1.022,6.194,1.23,8.133,1.621a2.171,2.171,0,0,0,2.558-2.093v-1.78A2.3,2.3,0,0,0,522.943,373.7Zm-28.2-14.181a1.517,1.517,0,0,1-1.32-1.548c-.077-7.208-7.282-13.1-16.115-13.1s-16.042,5.889-16.119,13.1a1.473,1.473,0,1,1-2.945.077c0-8.911,8.524-16.119,19.064-16.119s19.06,7.208,19.06,16.119A1.462,1.462,0,0,1,494.741,359.521Z" transform="translate(-371.87 -334.649)" fill="url(#linear-gradient-18)"/>
        <path id="Caminho_16118" data-name="Caminho 16118" d="M521.4,417.412h5.347a1.72,1.72,0,0,1,1.7,1.7v3.874a1.72,1.72,0,0,1-1.7,1.7H521.4a1.72,1.72,0,0,1-1.7-1.7v-3.874A1.72,1.72,0,0,1,521.4,417.412Z" transform="translate(-418.673 -383.706)" fill="url(#linear-gradient-19)"/>
        <path id="Caminho_16119" data-name="Caminho 16119" d="M452.838,445.89l.31,1.627a2.5,2.5,0,0,0,2.945,2.015l35.489-6.819h-36.11a2.647,2.647,0,0,0-2.635,3.177Z" transform="translate(-379.018 -398.702)" fill="url(#linear-gradient-20)"/>
      </g>
    </g>
    <g id="Grupo_7163" data-name="Grupo 7163" transform="translate(398.631 399.593)">
      <g id="Grupo_7162" data-name="Grupo 7162" transform="translate(0 0)">
        <path id="Caminho_16120" data-name="Caminho 16120" d="M615.541,535.676l-4.67,13.569a15.564,15.564,0,0,0,9.565-.248,1.384,1.384,0,0,1-.11-.215Z" transform="translate(-599.703 -518.75)" fill="url(#linear-gradient-14)"/>
        <path id="Caminho_16121" data-name="Caminho 16121" d="M583.449,523.112a15.566,15.566,0,0,0,8.773,14.008L584.8,516.778A15.508,15.508,0,0,0,583.449,523.112Z" transform="translate(-583.449 -507.548)" fill="url(#linear-gradient-14)"/>
        <path id="Caminho_16122" data-name="Caminho 16122" d="M613.248,508.894a8.2,8.2,0,0,0-1.282-4.293c-.789-1.282-1.529-2.367-1.529-3.65a2.7,2.7,0,0,1,2.614-2.762c.069,0,.134.009.2.012a15.561,15.561,0,0,0-23.515,2.931c.365.011.708.019,1,.019,1.628,0,4.149-.2,4.149-.2a.643.643,0,0,1,.1,1.281s-.843.1-1.781.149l5.667,16.859,3.406-10.216-2.426-6.644c-.838-.05-1.632-.149-1.632-.149a.643.643,0,0,1,.1-1.281s2.571.2,4.1.2c1.628,0,4.149-.2,4.149-.2a.643.643,0,0,1,.1,1.281s-.844.1-1.781.149l5.625,16.731,1.552-5.188A18.817,18.817,0,0,0,613.248,508.894Z" transform="translate(-587.177 -494.115)" fill="url(#linear-gradient-14)"/>
        <path id="Caminho_16123" data-name="Caminho 16123" d="M646.713,514a11.976,11.976,0,0,1,.1,1.6,14.678,14.678,0,0,1-1.183,5.575l-4.755,13.745A15.564,15.564,0,0,0,646.713,514Z" transform="translate(-617.491 -505.899)" fill="url(#linear-gradient-14)"/>
      </g>
    </g>
  </g>
</svg>
