<svg xmlns="http://www.w3.org/2000/svg" xmlns:xlink="http://www.w3.org/1999/xlink" width="138.174" height="33.884" viewBox="0 0 138.174 33.884">
  <defs>
    <linearGradient id="linear-gradient" x1="0.003" y1="-2.596" x2="1" y2="-2.596" gradientUnits="objectBoundingBox">
      <stop offset="0.066" stop-color="#0bdeff"/>
      <stop offset="0.226" stop-color="#0baeff"/>
      <stop offset="0.288" stop-color="#1ea2f7"/>
      <stop offset="0.45" stop-color="#4985e4"/>
      <stop offset="0.606" stop-color="#6c6ed5"/>
      <stop offset="0.753" stop-color="#845ecb"/>
      <stop offset="0.888" stop-color="#9354c4"/>
      <stop offset="1" stop-color="#9851c2"/>
    </linearGradient>
    <linearGradient id="linear-gradient-2" x1="0.003" y1="-2.596" x2="0.999" y2="-2.596" xlink:href="#linear-gradient"/>
    <linearGradient id="linear-gradient-3" x1="-0.004" y1="0.765" x2="0.992" y2="0.765" xlink:href="#linear-gradient"/>
    <linearGradient id="linear-gradient-4" x1="-0.003" y1="0.616" x2="1" y2="0.616" xlink:href="#linear-gradient"/>
    <linearGradient id="linear-gradient-5" x1="0" y1="0.034" x2="1" y2="0.034" xlink:href="#linear-gradient"/>
    <linearGradient id="linear-gradient-6" x1="-0.004" y1="-0.504" x2="0.999" y2="-0.504" xlink:href="#linear-gradient"/>
    <linearGradient id="linear-gradient-7" x1="-0.007" y1="-0.2" x2="0.995" y2="-0.2" xlink:href="#linear-gradient"/>
    <linearGradient id="linear-gradient-8" x1="-0.235" y1="189.916" x2="0.804" y2="189.916" xlink:href="#linear-gradient"/>
    <linearGradient id="linear-gradient-9" x1="0.219" y1="-112.431" x2="1.309" y2="-112.431" xlink:href="#linear-gradient"/>
    <linearGradient id="linear-gradient-10" x1="-0.201" y1="-73.159" x2="1.396" y2="-73.159" xlink:href="#linear-gradient"/>
    <linearGradient id="linear-gradient-11" x1="-0.17" y1="-96.266" x2="0.68" y2="-96.266" xlink:href="#linear-gradient"/>
    <linearGradient id="linear-gradient-12" x1="0.425" y1="-52.95" x2="1.472" y2="-52.95" xlink:href="#linear-gradient"/>
    <linearGradient id="linear-gradient-13" x1="0.186" y1="-48.565" x2="0.966" y2="-48.565" xlink:href="#linear-gradient"/>
    <linearGradient id="linear-gradient-14" x1="0" y1="0.5" x2="1" y2="0.5" xlink:href="#linear-gradient"/>
    <linearGradient id="linear-gradient-16" x1="0" y1="1.903" x2="0.998" y2="1.903" xlink:href="#linear-gradient"/>
    <linearGradient id="linear-gradient-17" x1="-0.001" y1="9.383" x2="1.003" y2="9.383" xlink:href="#linear-gradient"/>
    <linearGradient id="linear-gradient-18" x1="0" y1="1.861" x2="1" y2="1.861" xlink:href="#linear-gradient"/>
    <linearGradient id="linear-gradient-19" x1="0" y1="4.822" x2="1.005" y2="4.822" xlink:href="#linear-gradient"/>
    <linearGradient id="linear-gradient-20" x1="0" y1="2.147" x2="1" y2="2.147" xlink:href="#linear-gradient"/>
  </defs>
  <g id="Always" transform="translate(-5276.653 -722.26)">
    <path id="Caminho_14087" data-name="Caminho 14087" d="M5.117-5.781H8.926Q7.8-9.111,7.041-11.318,6.406-9.473,5.117-5.781ZM.117,0,5.83-14.219H8.35L14.111,0h-2.8L9.932-3.467H4.189L2.842,0ZM15.625,0V-14.229h2.393V0Zm7.52,0L19.512-10.02H22.09q1.523,4.688,2.285,7.041.391-1.182,2.363-7.041h2.109q.254.781.708,2.222t.83,2.617Q30.762-4,31.1-2.959q.283-.889,2.334-7.061h2.256L31.895,0H29.873Q27.813-6.162,27.6-6.816,27.217-5.732,25.176,0ZM42.119-1.729a2.343,2.343,0,0,0,2.046-.894A4.021,4.021,0,0,0,44.8-5.01a3.877,3.877,0,0,0-.679-2.417,2.429,2.429,0,0,0-2.056-.884A2.5,2.5,0,0,0,40-7.422a3.7,3.7,0,0,0-.718,2.393A3.739,3.739,0,0,0,40-2.627,2.545,2.545,0,0,0,42.119-1.729Zm-.3,1.953a5.23,5.23,0,0,1-2.187-.439,4.138,4.138,0,0,1-1.553-1.172,5.3,5.3,0,0,1-.889-1.631,5.862,5.862,0,0,1-.3-1.885A6.273,6.273,0,0,1,37.2-6.89,5.613,5.613,0,0,1,38.11-8.6,4.208,4.208,0,0,1,39.7-9.819a5.289,5.289,0,0,1,2.236-.454,3.267,3.267,0,0,1,2.793,1.318V-10.02H47.1V0H44.668V-1.367A3.324,3.324,0,0,1,41.816.225Zm9.1,4.121L49.9,2.705a7.536,7.536,0,0,0,2.036-1.089A2.742,2.742,0,0,0,52.852.264l.137-.488L48.73-10.02h2.52l2.9,7.188,2.5-7.187h2.471L55.059.547a6.584,6.584,0,0,1-1.1,1.831,6,6,0,0,1-1.426,1.245A7.369,7.369,0,0,1,50.918,4.346ZM64.531.225a7.559,7.559,0,0,1-2.422-.371,5.819,5.819,0,0,1-1.758-.889l.605-1.738a5.1,5.1,0,0,0,1.553.786,5.786,5.786,0,0,0,1.807.308,2.241,2.241,0,0,0,1.226-.273.985.985,0,0,0,.415-.889v-.176a.69.69,0,0,0-.244-.532,3.558,3.558,0,0,0-1.123-.5l-1.426-.459q-.547-.176-.908-.327a5.189,5.189,0,0,1-.737-.386,2.138,2.138,0,0,1-.586-.513,2.316,2.316,0,0,1-.342-.684,3.014,3.014,0,0,1-.132-.933,2.874,2.874,0,0,1,.3-1.338,2.3,2.3,0,0,1,.825-.908,4.006,4.006,0,0,1,1.172-.493,5.835,5.835,0,0,1,1.416-.161,7.717,7.717,0,0,1,1.914.244,5.462,5.462,0,0,1,1.68.723l-.625,1.66a6.632,6.632,0,0,0-1.372-.527,5.442,5.442,0,0,0-1.421-.215,2.616,2.616,0,0,0-1.2.205.71.71,0,0,0-.371.674A.873.873,0,0,0,62.891-7a1.269,1.269,0,0,0,.488.361,9.946,9.946,0,0,0,1.191.459l1.3.439a5.493,5.493,0,0,1,1.255.576,2.229,2.229,0,0,1,.762.889,3.219,3.219,0,0,1,.288,1.445,3.146,3.146,0,0,1-.22,1.2,2.517,2.517,0,0,1-.576.879,3.071,3.071,0,0,1-.84.566,4.109,4.109,0,0,1-.981.317A5.588,5.588,0,0,1,64.531.225Z" transform="translate(5346.653 744.488)" fill="#0080fc"/>
    <g id="Grupo_7153" data-name="Grupo 7153" transform="translate(5005.006 387.611)">
      <g id="Grupo_7156" data-name="Grupo 7156" transform="translate(271.647 334.649)">
        <g id="Grupo_7154" data-name="Grupo 7154" transform="translate(24.597 26.032)">
          <path id="Caminho_14057" data-name="Caminho 14057" d="M490.165,531.025a3.013,3.013,0,0,0,.655.314,2.91,2.91,0,0,0,1.571.078,3.718,3.718,0,0,0,1.859-1.074c.262-.262.55-.524.812-.759.707-.629,1.414-1.257,2.148-1.886l2.043-1.728c.341-.288.707-.576,1.048-.864h.026a.759.759,0,0,0,0-1.1.872.872,0,0,0-.55-.236c-.079,0-.131.026-.21.026a.582.582,0,0,0-.34.209c-.576.471-1.126.943-1.7,1.414-1.074.89-2.121,1.807-3.169,2.724-.262.236-.5.471-.759.707a7.836,7.836,0,0,1-.838.76l.157-.131a2.9,2.9,0,0,1-.681.393l.183-.079a2.263,2.263,0,0,1-.6.157c.079,0,.131-.026.21-.026a2.326,2.326,0,0,1-.6,0c.079,0,.131.026.21.026a2.078,2.078,0,0,1-.576-.157c.052.026.131.052.183.079l-.314-.157a.8.8,0,0,0-.6-.079.741.741,0,0,0-.471.367.7.7,0,0,0-.078.6,1.922,1.922,0,0,0,.393.419Z" transform="translate(-484.314 -523.771)" fill="url(#linear-gradient)"/>
          <path id="Caminho_14058" data-name="Caminho 14058" d="M450.78,531.025a3.012,3.012,0,0,0,.655.314,2.91,2.91,0,0,0,1.571.078,3.718,3.718,0,0,0,1.859-1.074c.262-.262.55-.524.812-.759.707-.629,1.414-1.257,2.148-1.886l2.043-1.728c.34-.288.707-.576,1.048-.864h.026a.759.759,0,0,0,0-1.1.873.873,0,0,0-.55-.236c-.078,0-.131.026-.21.026a.582.582,0,0,0-.34.209c-.576.471-1.126.943-1.7,1.414-1.074.89-2.121,1.807-3.169,2.724-.262.236-.5.471-.759.707a7.823,7.823,0,0,1-.838.76c.052-.052.1-.079.157-.131a2.9,2.9,0,0,1-.681.393l.183-.079a2.263,2.263,0,0,1-.6.157c.079,0,.131-.026.21-.026a2.324,2.324,0,0,1-.6,0c.079,0,.131.026.21.026a2.08,2.08,0,0,1-.576-.157c.052.026.131.052.183.079l-.314-.157a.8.8,0,0,0-.6-.079.741.741,0,0,0-.471.367.7.7,0,0,0-.079.6,1.44,1.44,0,0,0,.393.419Z" transform="translate(-450.349 -523.771)" fill="url(#linear-gradient-2)"/>
        </g>
        <circle id="Elipse_317" data-name="Elipse 317" cx="1.1" cy="1.1" r="1.1" transform="translate(43.649 16.551)" fill="url(#linear-gradient-3)"/>
        <g id="Grupo_7155" data-name="Grupo 7155" transform="translate(4.601 12.256)">
          <path id="Caminho_14059" data-name="Caminho 14059" d="M387.553,432.464c-.131-.079-.236-.131-.367-.21-.34-.183-.681-.393-1.021-.576-.5-.288-1.021-.576-1.519-.864-.629-.367-1.257-.707-1.859-1.074-.681-.393-1.362-.786-2.069-1.178s-1.414-.812-2.1-1.2c-.707-.393-1.336-.786-2.017-1.152-.576-.34-1.178-.681-1.755-1.021-.445-.262-.891-.524-1.336-.812-.262-.157-.524-.314-.786-.5l-.079-.079c.052.052.1.079.157.131h0a.937.937,0,0,0-.55-.236.754.754,0,0,0-.55.236.873.873,0,0,0-.236.55.754.754,0,0,0,.236.55,7.825,7.825,0,0,0,.76.524c.393.236.812.5,1.2.733.55.314,1.1.655,1.65.969.655.393,1.31.76,1.964,1.126.707.393,1.388.812,2.1,1.2s1.388.786,2.1,1.2c.655.367,1.283.733,1.938,1.1.55.314,1.074.6,1.624.917.393.21.786.445,1.152.655l.55.314h.026a.818.818,0,0,0,.6.078.74.74,0,0,0,.471-.367.753.753,0,0,0-.288-1.021Z" transform="translate(-362.333 -423.691)" fill="url(#linear-gradient-4)"/>
          <path id="Caminho_14060" data-name="Caminho 14060" d="M353.77,453.511l-.393-.236c-.367-.209-.707-.419-1.074-.6-.524-.314-1.047-.6-1.6-.917-.655-.367-1.309-.759-1.938-1.126-.707-.419-1.44-.838-2.148-1.257-.733-.419-1.467-.864-2.2-1.283-.707-.419-1.388-.812-2.1-1.231-.6-.367-1.2-.707-1.807-1.074-.471-.288-.943-.55-1.388-.838-.262-.157-.55-.341-.812-.524a.362.362,0,0,0-.1-.079c.052.052.1.079.157.131h0a.937.937,0,0,0-.55-.236.754.754,0,0,0-.55.236.874.874,0,0,0-.236.55.753.753,0,0,0,.236.55,5.129,5.129,0,0,0,.786.524c.419.262.838.524,1.257.759l1.729,1.022c.681.393,1.362.812,2.043,1.2.733.419,1.467.838,2.174,1.283.733.419,1.467.838,2.2,1.283.681.393,1.336.786,2.017,1.152.576.314,1.126.655,1.7.969.393.236.812.471,1.2.707a6.6,6.6,0,0,1,.576.341.026.026,0,0,1,.026.026.819.819,0,0,0,.6.079.74.74,0,0,0,.471-.367.809.809,0,0,0-.288-1.048Z" transform="translate(-332.635 -441.411)" fill="url(#linear-gradient-5)"/>
          <path id="Caminho_14061" data-name="Caminho 14061" d="M322.381,474.938c-.131-.079-.262-.157-.419-.236-.367-.21-.733-.445-1.1-.655-.55-.314-1.1-.655-1.65-.969-.681-.393-1.362-.786-2.017-1.2-.733-.445-1.493-.89-2.226-1.309-.76-.445-1.519-.89-2.279-1.362-.733-.419-1.44-.864-2.174-1.283-.629-.367-1.257-.76-1.886-1.126-.5-.288-.969-.576-1.44-.89a9.2,9.2,0,0,1-.838-.55.362.362,0,0,0-.1-.079c.052.052.1.079.157.131h0a.937.937,0,0,0-.55-.236.754.754,0,0,0-.55.236.873.873,0,0,0-.236.55.754.754,0,0,0,.236.55,8.82,8.82,0,0,0,.812.55c.419.262.864.524,1.31.812.6.367,1.2.733,1.807,1.074l2.121,1.257c.76.445,1.519.89,2.278,1.362l2.278,1.336c.707.419,1.414.838,2.1,1.231.6.341,1.178.707,1.781,1.048.419.236.838.5,1.257.733.209.1.393.236.6.34a.026.026,0,0,1,.026.026.773.773,0,0,0,1.074-.288.945.945,0,0,0-.367-1.047Z" transform="translate(-305.07 -459.46)" fill="url(#linear-gradient-6)"/>
        </g>
        <path id="Caminho_14062" data-name="Caminho 14062" d="M307.2,449.532a3.693,3.693,0,0,0-1.283-1.1c-.576-.314-1.2-.576-1.807-.838-.733-.314-1.44-.6-2.226-.969a17.457,17.457,0,0,1-2.383-1.283c-.183-.1-.34-.236-.524-.34l-2.017.393a12.587,12.587,0,0,0,2.593,1.833,33.279,33.279,0,0,0,3.4,1.571c.183.079.183.079.393.157l.55.236c.314.131.6.262.917.419.236.131.471.262.707.419.026.026.183.157.078.052-.078-.079.052.052.079.052.026.026.079.052.1.1l.026.026v-.026c0,.026.026.026.052.052h0l-.026-.026c.026.026.052.079.079.079h0v-.026a.091.091,0,0,1,.026.052v0h0a.026.026,0,0,0,.026.026v-.026c0,.052.026.079,0,.026h0v.079a.114.114,0,0,1-.026.078c0,.052-.026.079-.026.131,0,.026-.026.078-.026.1.052-.131,0,0,0,.026h0v-.026h0c-.052.079-.079.183-.131.262a1.764,1.764,0,0,1-.183.288c-.026.052-.052.079-.079.131a.026.026,0,0,1-.026.026c.052-.052-.026.026-.026.052a.092.092,0,0,0,.026-.052v.026a17.9,17.9,0,0,1-2.593,2.488c-1.1.917-2.226,1.781-3.326,2.671-1.231.969-2.383,2.017-3.588,3.012a4.557,4.557,0,0,0-.393.34c-.079.052-.131.1-.21.157l-.052.052h0l-.026.026c-.026,0-.026.026-.052.026-.262.21-.524.393-.786.576a6.234,6.234,0,0,1-.786.471,2.642,2.642,0,0,1-.393.183.026.026,0,0,0-.026.026h-.026a.373.373,0,0,1-.157.052,1.923,1.923,0,0,1-.367.1c-.052,0-.34.1-.367.079h-.21a1.883,1.883,0,0,1-.341-.026h-.052a.484.484,0,0,1-.183-.052,2.044,2.044,0,0,1-.367-.131h-.026c-.052-.026-.131-.052-.183-.079-.157-.079-.288-.131-.419-.21-.655-.34-1.31-.681-1.964-1.074-.969-.576-1.964-1.152-2.933-1.729-1.493-.864-2.986-1.755-4.452-2.619-1.519-.89-3.012-1.781-4.531-2.671-1.074-.629-2.148-1.283-3.2-1.938-.131-.079-.262-.183-.419-.262a.261.261,0,0,1-.131-.1c-.026,0-.026-.026-.052-.052-.052-.052,0,0,.052.026a.8.8,0,0,0-1.048.052.815.815,0,0,0,0,1.126A22.479,22.479,0,0,0,274,453.408c1.309.812,2.645,1.6,3.981,2.383,1.545.917,3.064,1.807,4.609,2.724,1.283.759,2.593,1.519,3.876,2.279.6.34,1.179.707,1.781,1.048.419.236.838.445,1.257.681a8,8,0,0,0,1.6.707,3.981,3.981,0,0,0,1.755.079,7.519,7.519,0,0,0,3.221-1.624c1.257-.969,2.462-2.017,3.666-3.064,2.069-1.755,4.374-3.3,6.286-5.238a5.483,5.483,0,0,0,1.65-2.488,5.276,5.276,0,0,0-.471-1.362Zm-15.609,12.335Z" transform="translate(-271.647 -429.812)" fill="url(#linear-gradient-7)"/>
        <path id="Caminho_14063" data-name="Caminho 14063" d="M411.686,566.2Z" transform="translate(-392.394 -534.329)" fill="#fff"/>
        <path id="Caminho_14064" data-name="Caminho 14064" d="M412,566.2Z" transform="translate(-392.681 -534.329)" fill="#fff"/>
        <path id="Caminho_14065" data-name="Caminho 14065" d="M416.376,567.533Z" transform="translate(-396.455 -535.478)" fill="#fff"/>
        <path id="Caminho_14066" data-name="Caminho 14066" d="M416.566,567.533Z" transform="translate(-396.619 -535.478)" fill="#fff"/>
        <path id="Caminho_14067" data-name="Caminho 14067" d="M427.031,565.82Z" transform="translate(-405.643 -534)" fill="#fff"/>
        <path id="Caminho_14068" data-name="Caminho 14068" d="M457.972,433.271l.026.026c-.026-.026-.026-.052-.026-.026C457.945,433.245,457.972,433.245,457.972,433.271Z" transform="translate(-432.315 -419.679)" fill="url(#linear-gradient-8)"/>
        <path id="Caminho_14069" data-name="Caminho 14069" d="M516.457,492.338a.092.092,0,0,0,.026-.052h0c.052-.052,0,.052-.026.052Z" transform="translate(-482.76 -470.575)" fill="url(#linear-gradient-9)"/>
        <path id="Caminho_14070" data-name="Caminho 14070" d="M519.881,487.071c.052-.131,0,0,0,.026h0Z" transform="translate(-485.713 -466.042)" fill="url(#linear-gradient-10)"/>
        <path id="Caminho_14071" data-name="Caminho 14071" d="M519.881,483.244c0,.026.026.026.052.052h0c-.026-.026-.052-.026-.052-.052Z" transform="translate(-485.713 -462.791)" fill="url(#linear-gradient-11)"/>
        <path id="Caminho_14072" data-name="Caminho 14072" d="M520.288,484.957h0c0,.026-.026.079-.026.1A.261.261,0,0,1,520.288,484.957Z" transform="translate(-486.041 -464.268)" fill="url(#linear-gradient-12)"/>
        <path id="Caminho_14073" data-name="Caminho 14073" d="M520.314,484.084h0c0,.026.026.052,0,0h0c-.026-.026-.026-.052-.052-.052v-.026a.092.092,0,0,1,.026.052v0h0a.026.026,0,0,1,.026.026Z" transform="translate(-486.041 -463.447)" fill="url(#linear-gradient-13)"/>
        <path id="Caminho_14074" data-name="Caminho 14074" d="M546.065,568.1Z" transform="translate(-508.283 -535.97)" fill="#fff"/>
        <path id="Caminho_14075" data-name="Caminho 14075" d="M546.519,568.1Z" transform="translate(-508.684 -535.97)" fill="#fff"/>
        <path id="Caminho_14076" data-name="Caminho 14076" d="M542.921,444.4a7.758,7.758,0,0,0-.039-2.4,10.671,10.671,0,0,0-1.335-3.586L539.454,438a17.659,17.659,0,0,1,1.1,1.959c.026.026.157.34.235.5-.026-.026-.026-.026,0,.026v.026a.026.026,0,0,1-.023-.012.1.1,0,0,0,.023.039c.026.026.026.078.052.131.026.1.08.183.106.288a6.937,6.937,0,0,1,.314,1.048l.078.472v.1c0,.078.026.157.026.235,0,.314.026.629,0,.943a2.54,2.54,0,0,1-.026.445v.078a.173.173,0,0,1-.008.05,6.68,6.68,0,0,0-5.9,8.535c-.579.516-1.18,1.021-1.765,1.525l-.838.76a4.181,4.181,0,0,1-.34.34c-.026,0-.131.1-.131.1a.548.548,0,0,1-.157.1c-.078.026-.132.078-.211.1h-.026a.263.263,0,0,1-.078.026,1.5,1.5,0,0,1-.366.1h-.235c-.131,0-.237-.026-.368-.026h-.052a.2.2,0,0,0-.1-.026,3.172,3.172,0,0,1-.471-.131.091.091,0,0,0-.052-.026h-.026a.827.827,0,0,0-1.021.314.8.8,0,0,0,.288,1.075,3.852,3.852,0,0,0,2.592.288,6.129,6.129,0,0,0,2.462-1.7c.519-.445,1.038-.886,1.551-1.332a6.675,6.675,0,1,0,6.842-9.967Zm-1.087,12.436a5.854,5.854,0,0,1-5.122-3.025,5.847,5.847,0,0,1-.73-2.826,5.857,5.857,0,0,1,5.182-5.811,5.675,5.675,0,0,1,.669-.039,5.742,5.742,0,0,1,.954.078,5.851,5.851,0,0,1-.954,11.623Z" transform="translate(-493.655 -423.774)" fill="url(#linear-gradient-14)"/>
        <path id="Caminho_14077" data-name="Caminho 14077" d="M604.363,437.965a.011.011,0,0,0,0-.006l2.095.42a0,0,0,0,0,0,0Z" transform="translate(-558.564 -423.74)" fill="url(#linear-gradient-14)"/>
        <path id="Caminho_14078" data-name="Caminho 14078" d="M585.513,453.332a1.871,1.871,0,0,0-1.7-.917s2.724-.367,2.855,1.414Z" transform="translate(-540.843 -436.179)" fill="url(#linear-gradient-16)"/>
        <path id="Caminho_14079" data-name="Caminho 14079" d="M576.3,341.606l-.5-2.383a1.451,1.451,0,0,0-1.388-1.152H572.4a12.315,12.315,0,0,1,3.9,3.536Z" transform="translate(-530.998 -337.599)" fill="url(#linear-gradient-17)"/>
        <path id="Caminho_14080" data-name="Caminho 14080" d="M468.516,347.848l-4.53-1.807v-.366a10.9,10.9,0,1,0-21.789-.131v1h-.864a.592.592,0,0,0-.6.6v.76a.593.593,0,0,0,.6.6h8.7a.593.593,0,0,0,.6-.6v-2.356a.5.5,0,0,1,.5-.5h3.955a.5.5,0,0,1,.5.5v2.409a.582.582,0,0,0,.577.577h5.368l1.732.345,2.094.416,2.749.548a.734.734,0,0,0,.864-.708v-.6A.778.778,0,0,0,468.516,347.848Zm-9.532-4.793a.513.513,0,0,1-.446-.523c-.026-2.436-2.461-4.427-5.447-4.427s-5.422,1.99-5.448,4.427a.5.5,0,1,1-1,.026c0-3.012,2.881-5.448,6.443-5.448s6.442,2.436,6.442,5.448A.494.494,0,0,1,458.985,343.055Z" transform="translate(-417.457 -334.649)" fill="url(#linear-gradient-18)"/>
        <path id="Caminho_14081" data-name="Caminho 14081" d="M520.267,417.412h1.807a.581.581,0,0,1,.576.576V419.3a.581.581,0,0,1-.576.576h-1.807a.581.581,0,0,1-.576-.576v-1.309A.581.581,0,0,1,520.267,417.412Z" transform="translate(-485.549 -406.02)" fill="url(#linear-gradient-19)"/>
        <path id="Caminho_14082" data-name="Caminho 14082" d="M452.806,443.785l.1.55a.844.844,0,0,0,1,.681l11.995-2.3H453.7a.9.9,0,0,0-.89,1.074Z" transform="translate(-427.857 -427.836)" fill="url(#linear-gradient-20)"/>
      </g>
      <g id="Grupo_7157" data-name="Grupo 7157" transform="translate(314.565 356.599)">
        <path id="Caminho_14083" data-name="Caminho 14083" d="M612.449,535.676l-1.578,4.586a5.261,5.261,0,0,0,3.233-.084.458.458,0,0,1-.037-.073Z" transform="translate(-607.096 -529.955)" fill="url(#linear-gradient-14)"/>
        <path id="Caminho_14084" data-name="Caminho 14084" d="M583.449,518.919a5.261,5.261,0,0,0,2.965,4.734l-2.509-6.875A5.243,5.243,0,0,0,583.449,518.919Z" transform="translate(-583.449 -513.659)" fill="url(#linear-gradient-14)"/>
        <path id="Caminho_14085" data-name="Caminho 14085" d="M597.684,499.11a2.772,2.772,0,0,0-.433-1.451,2.461,2.461,0,0,1-.517-1.234.911.911,0,0,1,.883-.934c.023,0,.045,0,.068,0a5.26,5.26,0,0,0-7.948.991c.123,0,.239.006.339.006.55,0,1.4-.067,1.4-.067a.217.217,0,0,1,.034.433s-.285.033-.6.05l1.915,5.7,1.151-3.453-.82-2.245c-.283-.017-.552-.05-.552-.05a.217.217,0,0,1,.033-.433s.869.067,1.386.067c.55,0,1.4-.067,1.4-.067a.217.217,0,0,1,.033.433s-.285.033-.6.05l1.9,5.655.525-1.753A6.36,6.36,0,0,0,597.684,499.11Z" transform="translate(-588.872 -494.115)" fill="url(#linear-gradient-14)"/>
        <path id="Caminho_14086" data-name="Caminho 14086" d="M642.851,514a4.051,4.051,0,0,1,.036.541,4.961,4.961,0,0,1-.4,1.884l-1.607,4.646A5.26,5.26,0,0,0,642.851,514Z" transform="translate(-632.975 -511.259)" fill="url(#linear-gradient-14)"/>
      </g>
    </g>
  </g>
</svg>
