<svg xmlns="http://www.w3.org/2000/svg" width="36" height="22.5" viewBox="0 0 36 22.5">
  <g id="Menu_WordPress_-_Builderall_Builder_-_Grey" data-name="Menu WordPress - Builderall Builder - Grey" transform="translate(-271.647 -334.649)">
    <g id="Grupo_7156" data-name="Grupo 7156" transform="translate(271.647 334.649)">
      <g id="Grupo_7154" data-name="Grupo 7154" transform="translate(16.143 17.347)">
        <path id="Caminho_14057" data-name="Caminho 14057" d="M490.017,528.532a1.978,1.978,0,0,0,.43.206,1.911,1.911,0,0,0,1.031.051,2.44,2.44,0,0,0,1.22-.7c.172-.172.361-.344.533-.5.464-.413.928-.825,1.409-1.238l1.341-1.134c.224-.189.464-.378.688-.567h.017a.5.5,0,0,0,0-.722.573.573,0,0,0-.361-.155c-.052,0-.086.017-.138.017a.383.383,0,0,0-.223.138c-.378.309-.739.619-1.117.928-.7.584-1.392,1.186-2.08,1.788-.172.155-.327.309-.5.464a5.142,5.142,0,0,1-.55.5l.1-.086a1.9,1.9,0,0,1-.447.258l.12-.052a1.484,1.484,0,0,1-.4.1c.052,0,.086-.017.138-.017a1.525,1.525,0,0,1-.4,0c.052,0,.086.017.138.017a1.364,1.364,0,0,1-.378-.1c.034.017.086.034.12.052l-.206-.1a.527.527,0,0,0-.4-.052.486.486,0,0,0-.309.241.459.459,0,0,0-.052.4,1.261,1.261,0,0,0,.258.275Z" transform="translate(-486.177 -523.771)" fill="#b4b8bc"/>
        <path id="Caminho_14058" data-name="Caminho 14058" d="M450.632,528.532a1.976,1.976,0,0,0,.43.206,1.91,1.91,0,0,0,1.031.051,2.44,2.44,0,0,0,1.22-.7c.172-.172.361-.344.533-.5.464-.413.928-.825,1.409-1.238l1.341-1.134c.223-.189.464-.378.688-.567h.017a.5.5,0,0,0,0-.722.573.573,0,0,0-.361-.155c-.051,0-.086.017-.138.017a.383.383,0,0,0-.223.138c-.378.309-.739.619-1.117.928-.7.584-1.392,1.186-2.08,1.788-.172.155-.327.309-.5.464a5.138,5.138,0,0,1-.55.5c.034-.034.069-.052.1-.086a1.9,1.9,0,0,1-.447.258l.12-.052a1.486,1.486,0,0,1-.4.1c.052,0,.086-.017.137-.017a1.525,1.525,0,0,1-.4,0c.052,0,.086.017.137.017a1.365,1.365,0,0,1-.378-.1c.034.017.086.034.12.052l-.206-.1a.527.527,0,0,0-.4-.052.486.486,0,0,0-.309.241.459.459,0,0,0-.052.4.946.946,0,0,0,.258.275Z" transform="translate(-450.349 -523.771)" fill="#b4b8bc"/>
      </g>
      <circle id="Elipse_317" data-name="Elipse 317" cx="0.722" cy="0.722" r="0.722" transform="translate(28.647 10.999)" fill="#b4b8bc"/>
      <g id="Grupo_7155" data-name="Grupo 7155" transform="translate(3.019 8.306)">
        <path id="Caminho_14059" data-name="Caminho 14059" d="M382.026,429.449c-.086-.052-.155-.086-.241-.138-.223-.12-.447-.258-.67-.378-.327-.189-.67-.378-1-.567-.413-.241-.825-.464-1.22-.7-.447-.258-.894-.516-1.358-.773s-.928-.533-1.375-.791c-.464-.258-.877-.516-1.324-.756-.378-.223-.773-.447-1.152-.67-.292-.172-.584-.344-.877-.533-.172-.1-.344-.206-.516-.327l-.052-.052c.034.034.069.052.1.086h0a.615.615,0,0,0-.361-.155.5.5,0,0,0-.361.155.573.573,0,0,0-.155.361.5.5,0,0,0,.155.361,5.137,5.137,0,0,0,.5.344c.258.155.533.327.791.481.361.206.722.43,1.083.636.43.258.859.5,1.289.739.464.258.911.533,1.375.791s.911.516,1.375.791c.43.241.842.481,1.272.722.361.206.7.4,1.066.6.258.138.516.292.756.43l.361.206h.017a.537.537,0,0,0,.4.052.486.486,0,0,0,.309-.241.494.494,0,0,0-.189-.67Z" transform="translate(-365.474 -423.691)" fill="#b4b8bc"/>
        <path id="Caminho_14060" data-name="Caminho 14060" d="M348.018,450.324l-.258-.155c-.241-.138-.464-.275-.7-.4-.344-.206-.687-.4-1.048-.6-.43-.241-.859-.5-1.272-.739-.464-.275-.945-.55-1.409-.825-.481-.275-.963-.567-1.444-.842-.464-.275-.911-.533-1.375-.808-.4-.241-.791-.464-1.186-.7-.309-.189-.619-.361-.911-.55-.172-.1-.361-.224-.533-.344a.238.238,0,0,0-.069-.052c.034.034.069.052.1.086h0a.614.614,0,0,0-.361-.155.494.494,0,0,0-.361.155.573.573,0,0,0-.155.361.494.494,0,0,0,.155.361,3.371,3.371,0,0,0,.516.344c.275.172.55.344.825.5l1.134.67c.447.258.894.533,1.341.791.481.275.963.55,1.427.842.481.275.963.55,1.444.842.447.258.877.516,1.323.756.378.206.739.43,1.117.636.258.155.533.309.791.464a4.312,4.312,0,0,1,.378.224.017.017,0,0,1,.017.017.537.537,0,0,0,.4.052.486.486,0,0,0,.309-.241.531.531,0,0,0-.189-.688Z" transform="translate(-334.147 -442.384)" fill="#b4b8bc"/>
        <path id="Caminho_14061" data-name="Caminho 14061" d="M316.431,471.58c-.086-.052-.172-.1-.275-.155-.241-.137-.481-.292-.722-.43-.361-.206-.722-.43-1.083-.636-.447-.258-.894-.516-1.324-.791-.481-.292-.98-.584-1.461-.859-.5-.292-1-.584-1.5-.894-.481-.275-.945-.567-1.427-.842-.412-.241-.825-.5-1.238-.739-.327-.189-.636-.378-.945-.584a6.031,6.031,0,0,1-.55-.361.237.237,0,0,0-.069-.052c.034.034.069.052.1.086h0a.615.615,0,0,0-.361-.155.5.5,0,0,0-.361.155.573.573,0,0,0-.155.361.5.5,0,0,0,.155.361,5.784,5.784,0,0,0,.533.361c.275.172.567.344.859.533.4.241.791.481,1.186.7l1.392.825c.5.292,1,.584,1.5.894l1.5.877c.464.275.928.55,1.375.808.4.223.773.464,1.169.688.275.155.55.327.825.481.137.069.258.155.4.223a.017.017,0,0,1,.017.017.507.507,0,0,0,.7-.189.62.62,0,0,0-.241-.687Z" transform="translate(-305.07 -461.422)" fill="#b4b8bc"/>
      </g>
      <path id="Caminho_14062" data-name="Caminho 14062" d="M294.983,447.974a2.423,2.423,0,0,0-.842-.722c-.378-.206-.791-.378-1.186-.55-.481-.206-.945-.4-1.461-.636a11.458,11.458,0,0,1-1.564-.842c-.12-.069-.223-.155-.344-.223l-1.323.258a8.261,8.261,0,0,0,1.7,1.2,21.851,21.851,0,0,0,2.234,1.031c.12.052.12.052.258.1l.361.155c.206.086.4.172.6.275.155.086.309.172.464.275.017.017.12.1.052.034-.052-.052.034.034.052.034.017.017.052.034.069.069l.017.017v-.017c0,.017.017.017.034.034h0l-.017-.017c.017.017.034.052.052.052h0v-.017a.06.06,0,0,1,.017.034v0h0a.017.017,0,0,0,.017.017v-.017c0,.034.017.052,0,.017h0v.052a.075.075,0,0,1-.017.051c0,.034-.017.052-.017.086,0,.017-.017.052-.017.069.034-.086,0,0,0,.017h0V448.8h0c-.034.052-.052.12-.086.172a1.16,1.16,0,0,1-.12.189c-.017.034-.034.051-.052.086a.017.017,0,0,1-.017.017c.034-.034-.017.017-.017.034a.06.06,0,0,0,.017-.034v.017a11.747,11.747,0,0,1-1.7,1.633c-.722.6-1.461,1.169-2.183,1.753-.808.636-1.564,1.323-2.355,1.977a3,3,0,0,0-.258.223c-.052.034-.086.069-.138.1l-.034.034h0l-.017.017c-.017,0-.017.017-.034.017-.172.138-.344.258-.516.378a4.1,4.1,0,0,1-.516.309,1.729,1.729,0,0,1-.258.12.017.017,0,0,0-.017.017H285.8a.246.246,0,0,1-.1.034,1.262,1.262,0,0,1-.241.069c-.034,0-.223.069-.241.052h-.137a1.233,1.233,0,0,1-.224-.017h-.034a.317.317,0,0,1-.12-.034,1.338,1.338,0,0,1-.241-.086h-.017c-.034-.017-.086-.034-.12-.052-.1-.052-.189-.086-.275-.138-.43-.223-.859-.447-1.289-.7-.636-.378-1.289-.756-1.925-1.134-.98-.567-1.959-1.152-2.922-1.719-1-.584-1.977-1.169-2.973-1.753-.7-.413-1.409-.842-2.1-1.272-.086-.052-.172-.12-.275-.172a.171.171,0,0,1-.086-.069c-.017,0-.017-.017-.034-.034-.034-.034,0,0,.034.017a.523.523,0,0,0-.688.034.535.535,0,0,0,0,.739,14.752,14.752,0,0,0,1.392.894c.859.533,1.736,1.048,2.613,1.564,1.014.6,2.011,1.186,3.025,1.788.842.5,1.7,1,2.544,1.5.4.223.773.464,1.169.688.275.155.55.292.825.447a5.254,5.254,0,0,0,1.048.464,2.613,2.613,0,0,0,1.152.052,4.935,4.935,0,0,0,2.114-1.066c.825-.636,1.616-1.323,2.406-2.011,1.358-1.152,2.87-2.166,4.125-3.438a3.6,3.6,0,0,0,1.083-1.633,3.462,3.462,0,0,0-.309-.894Zm-10.244,8.1Z" transform="translate(-271.647 -434.77)" fill="#b4b8bc"/>
      <path id="Caminho_14063" data-name="Caminho 14063" d="M411.68,566.2Z" transform="translate(-399.018 -545.021)" fill="#b4b8bc"/>
      <path id="Caminho_14064" data-name="Caminho 14064" d="M412,566.2Z" transform="translate(-399.321 -545.021)" fill="#b4b8bc"/>
      <path id="Caminho_14065" data-name="Caminho 14065" d="M416.376,567.533Z" transform="translate(-403.302 -546.233)" fill="#b4b8bc"/>
      <path id="Caminho_14066" data-name="Caminho 14066" d="M416.566,567.533Z" transform="translate(-403.475 -546.233)" fill="#b4b8bc"/>
      <path id="Caminho_14067" data-name="Caminho 14067" d="M427.031,565.82Z" transform="translate(-412.994 -544.675)" fill="#b4b8bc"/>
      <path id="Caminho_14068" data-name="Caminho 14068" d="M457.968,433.264l.017.017c-.017-.017-.017-.034-.017-.017C457.95,433.247,457.968,433.247,457.968,433.264Z" transform="translate(-441.129 -424.239)" fill="#b4b8bc"/>
      <path id="Caminho_14069" data-name="Caminho 14069" d="M516.457,492.315a.06.06,0,0,0,.017-.034h0c.034-.034,0,.034-.017.034Z" transform="translate(-494.342 -477.864)" fill="#b4b8bc"/>
      <path id="Caminho_14070" data-name="Caminho 14070" d="M519.881,487.052c.034-.086,0,0,0,.017h0Z" transform="translate(-497.457 -473.087)" fill="#b4b8bc"/>
      <path id="Caminho_14071" data-name="Caminho 14071" d="M519.881,483.244c0,.017.017.017.034.034h0c-.017-.017-.034-.017-.034-.034Z" transform="translate(-497.457 -469.662)" fill="#b4b8bc"/>
      <path id="Caminho_14072" data-name="Caminho 14072" d="M520.279,484.957h0c0,.017-.017.052-.017.069A.172.172,0,0,1,520.279,484.957Z" transform="translate(-497.803 -471.218)" fill="#b4b8bc"/>
      <path id="Caminho_14073" data-name="Caminho 14073" d="M520.3,484.057h0c0,.017.017.034,0,0h0c-.017-.017-.017-.034-.034-.034v-.017a.06.06,0,0,1,.017.034v0h0a.017.017,0,0,1,.017.017Z" transform="translate(-497.803 -470.353)" fill="#b4b8bc"/>
      <path id="Caminho_14074" data-name="Caminho 14074" d="M546.061,568.1Z" transform="translate(-521.265 -546.753)" fill="#b4b8bc"/>
      <path id="Caminho_14075" data-name="Caminho 14075" d="M546.519,568.1Z" transform="translate(-521.688 -546.753)" fill="#b4b8bc"/>
      <path id="Caminho_14076" data-name="Caminho 14076" d="M538.167,442.2a5.1,5.1,0,0,0-.025-1.574,7,7,0,0,0-.876-2.353L535.892,438a11.59,11.59,0,0,1,.72,1.285c.017.017.1.223.154.327-.017-.017-.017-.017,0,.017v.017a.017.017,0,0,1-.015-.008.066.066,0,0,0,.015.025c.017.017.017.052.034.086.017.069.052.12.07.189a4.552,4.552,0,0,1,.206.687l.051.31V441c0,.051.017.1.017.154,0,.206.017.413,0,.619a1.666,1.666,0,0,1-.017.292v.052a.114.114,0,0,1-.005.033,4.384,4.384,0,0,0-3.873,5.6c-.38.339-.774.67-1.158,1l-.55.5a2.728,2.728,0,0,1-.223.223c-.017,0-.086.069-.086.069a.36.36,0,0,1-.1.069c-.052.017-.087.051-.138.069h-.017a.173.173,0,0,1-.051.017.987.987,0,0,1-.24.069h-.154c-.086,0-.155-.017-.241-.017h-.034a.13.13,0,0,0-.069-.017,2.07,2.07,0,0,1-.309-.086.06.06,0,0,0-.034-.017h-.017a.543.543,0,0,0-.67.206.526.526,0,0,0,.189.706,2.528,2.528,0,0,0,1.7.189,4.02,4.02,0,0,0,1.616-1.117c.341-.292.681-.582,1.018-.874a4.381,4.381,0,1,0,4.491-6.541Zm-.714,8.162a3.842,3.842,0,0,1-3.361-1.986,3.837,3.837,0,0,1-.479-1.855,3.844,3.844,0,0,1,3.4-3.814,3.716,3.716,0,0,1,.439-.025,3.77,3.77,0,0,1,.626.051,3.84,3.84,0,0,1-.626,7.628Z" transform="translate(-505.834 -428.402)" fill="#b4b8bc"/>
      <path id="Caminho_14077" data-name="Caminho 14077" d="M604.362,437.964l0,0,1.375.276h0Z" transform="translate(-574.304 -428.516)" fill="#b4b8bc"/>
      <path id="Caminho_14078" data-name="Caminho 14078" d="M584.928,453.007a1.228,1.228,0,0,0-1.117-.6s1.788-.241,1.873.928Z" transform="translate(-555.611 -441.618)" fill="#b4b8bc"/>
      <path id="Caminho_14079" data-name="Caminho 14079" d="M574.956,340.39l-.327-1.564a.952.952,0,0,0-.911-.756h-1.324a8.083,8.083,0,0,1,2.561,2.32Z" transform="translate(-545.227 -337.761)" fill="#b4b8bc"/>
      <path id="Caminho_14080" data-name="Caminho 14080" d="M458.966,343.312l-2.973-1.186v-.24a7.15,7.15,0,1,0-14.3-.086v.653h-.567a.389.389,0,0,0-.4.395v.5a.389.389,0,0,0,.4.4h5.706a.389.389,0,0,0,.395-.4V341.8a.326.326,0,0,1,.327-.327h2.6a.326.326,0,0,1,.326.327v1.581a.382.382,0,0,0,.379.379h3.523l1.136.227,1.374.273,1.8.359a.482.482,0,0,0,.567-.464v-.395A.511.511,0,0,0,458.966,343.312Zm-6.256-3.145a.336.336,0,0,1-.293-.343c-.017-1.6-1.615-2.905-3.575-2.905s-3.558,1.306-3.576,2.905a.327.327,0,1,1-.653.017c0-1.977,1.891-3.575,4.229-3.575s4.228,1.6,4.228,3.575A.324.324,0,0,1,452.71,340.166Z" transform="translate(-425.456 -334.649)" fill="#b4b8bc"/>
      <path id="Caminho_14081" data-name="Caminho 14081" d="M520.069,417.412h1.186a.381.381,0,0,1,.378.378v.859a.381.381,0,0,1-.378.378h-1.186a.381.381,0,0,1-.378-.378v-.859A.381.381,0,0,1,520.069,417.412Z" transform="translate(-497.284 -409.841)" fill="#b4b8bc"/>
      <path id="Caminho_14082" data-name="Caminho 14082" d="M452.8,443.416l.069.361a.554.554,0,0,0,.653.447l7.872-1.513h-8.01a.587.587,0,0,0-.584.7Z" transform="translate(-436.426 -432.825)" fill="#b4b8bc"/>
    </g>
    <g id="Grupo_7157" data-name="Grupo 7157" transform="translate(299.814 349.317)">
      <path id="Caminho_14083" data-name="Caminho 14083" d="M611.907,535.676l-1.036,3.01a3.452,3.452,0,0,0,2.122-.055.305.305,0,0,1-.024-.048Z" transform="translate(-608.394 -531.922)" fill="#b4b8bc"/>
      <path id="Caminho_14084" data-name="Caminho 14084" d="M583.449,518.183a3.453,3.453,0,0,0,1.946,3.107l-1.647-4.512A3.44,3.44,0,0,0,583.449,518.183Z" transform="translate(-583.449 -514.731)" fill="#b4b8bc"/>
      <path id="Caminho_14085" data-name="Caminho 14085" d="M594.953,497.393a1.819,1.819,0,0,0-.284-.952,1.615,1.615,0,0,1-.339-.81.6.6,0,0,1,.58-.613l.045,0a3.452,3.452,0,0,0-5.216.65c.081,0,.157,0,.222,0,.361,0,.92-.044.92-.044a.143.143,0,0,1,.022.284s-.187.022-.4.033l1.257,3.74.755-2.266-.538-1.474c-.186-.011-.362-.033-.362-.033a.143.143,0,0,1,.022-.284s.57.044.909.044c.361,0,.92-.044.92-.044a.143.143,0,0,1,.022.284s-.187.022-.4.033l1.248,3.711.344-1.151A4.175,4.175,0,0,0,594.953,497.393Z" transform="translate(-589.17 -494.115)" fill="#b4b8bc"/>
      <path id="Caminho_14086" data-name="Caminho 14086" d="M642.174,514a2.66,2.66,0,0,1,.023.355,3.258,3.258,0,0,1-.262,1.237l-1.055,3.049A3.453,3.453,0,0,0,642.174,514Z" transform="translate(-635.692 -512.2)" fill="#b4b8bc"/>
    </g>
  </g>
</svg>
