<svg id="Frequently_Asked_Questions_4" data-name="Frequently Asked Questions 4" xmlns="http://www.w3.org/2000/svg" width="360.102" height="282.038" viewBox="0 0 360.102 282.038">
  <path id="Caminho_15690" data-name="Caminho 15690" d="M593.978,564.386l-183.554,22.66a33.427,33.427,0,0,1-37.16-28.993L357.85,433.2a33.426,33.426,0,0,1,28.993-37.16L570.4,373.384a33.427,33.427,0,0,1,37.16,28.993l15.413,124.848A33.425,33.425,0,0,1,593.978,564.386Z" transform="translate(-322.059 -373.131)" fill="#ebedfc"/>
  <path id="Caminho_15691" data-name="Caminho 15691" d="M559.715,1401.034l-75.512.064q-2.944,0-5.889.006h-.72c-.875,0-1.747,0-2.623,0h-1.912q-2.384,0-4.771,0c-.213,0-.425,0-.638,0H465c-1.149,0-2.295,0-3.443,0-.362,0-.723,0-1.085,0h-.72l-5.874,0q-127.134.11-254.268.216c12.755-8.606,31.838-18.419,55.307-18.537,16.579-.082,19.558,4.753,34.643,3.95,29.972-1.592,36.344-21.646,62.9-27.653,30.723-6.95,36.9,16.552,71.716,15.5,14.553-.441,26.192-4.932,36.2-10.709,3.133-1.805,6.111-3.741,8.965-5.716,17.227-11.922,30.078-25.328,47.211-21.56C530,1339.567,546.617,1353.212,559.715,1401.034Z" transform="translate(-199.613 -1119.368)" fill="#dadef2"/>
  <g id="Grupo_5374" data-name="Grupo 5374" transform="translate(245.831 235.779)">
    <path id="Caminho_15692" data-name="Caminho 15692" d="M1311.973,1538.882c-1.149,0-2.294,0-3.443,0-.362,0-.723,0-1.085,0h-.72l-5.874,0c-4.561-5.2-11.207-15.042-7.208-25.171a31.144,31.144,0,0,1,10.846,7.233A25.981,25.981,0,0,1,1311.973,1538.882Z" transform="translate(-1292.413 -1492.916)" fill="#9fa3bf"/>
    <path id="Caminho_15693" data-name="Caminho 15693" d="M1322.415,1558.1h-.72l-9.931-19.126a.315.315,0,0,1,.137-.427.32.32,0,0,1,.431.134Z" transform="translate(-1307.383 -1512.133)" fill="#30354f"/>
    <path id="Caminho_15694" data-name="Caminho 15694" d="M1426.316,1538.862q-2.944,0-5.889.006h-.72c-.875,0-1.747,0-2.622,0h-1.912a25.922,25.922,0,0,1,5.521-15.674,31.137,31.137,0,0,1,12.809-9.481C1437.5,1523.83,1430.877,1533.655,1426.316,1538.862Z" transform="translate(-1387.557 -1492.913)" fill="#9fa3bf"/>
    <path id="Caminho_15695" data-name="Caminho 15695" d="M1445.975,1538.973l-9.925,19.111h-.72l10.08-19.406a.32.32,0,0,1,.432-.134.317.317,0,0,1,.133.428Z" transform="translate(-1403.18 -1512.128)" fill="#30354f"/>
    <path id="Caminho_15696" data-name="Caminho 15696" d="M1366.56,1451.525a40.141,40.141,0,0,1-3.61,15.674h-1.912q-2.385,0-4.771,0c-.213,0-.425,0-.638,0h-2.647c-1.149,0-2.295,0-3.443,0a70.157,70.157,0,0,1-4.042-17.932c-.5-6.217-.006-13.122,2.869-19.3a26.642,26.642,0,0,1,6.476-8.74,33.485,33.485,0,0,1,2.489,3.024C1360.85,1429,1366.824,1438.926,1366.56,1451.525Z" transform="translate(-1333.422 -1421.24)" fill="#5f6386"/>
    <path id="Caminho_15697" data-name="Caminho 15697" d="M1390.155,1501.847c-.213,0-.425,0-.638,0l-.468-35.585a.321.321,0,0,1,.315-.325h0a.32.32,0,0,1,.319.315Z" transform="translate(-1367.31 -1455.885)" fill="#30354f"/>
  </g>
  <g id="Grupo_5380" data-name="Grupo 5380" transform="translate(18.537 4.828)">
    <g id="Grupo_5379" data-name="Grupo 5379" transform="translate(0 0)">
      <g id="Grupo_5378" data-name="Grupo 5378">
        <path id="Caminho_15698" data-name="Caminho 15698" d="M1018.371,448.214c-.409-.819-1.638-9.416,4.367-18.423s1.092-14.6,4.913-18.286,6.55-1.911,6.55-1.911a8.214,8.214,0,0,1,4.5-4.913c3.548-1.5,9.143-.546,12.417,4.776s2.866,7.232,1.092,17.74,5.322,12.009,5.186,18.7,8.461,14.465,11.463,31.8-1.228,25.792-14.465,24.018S1018.371,448.214,1018.371,448.214Z" transform="translate(-852.426 -401.913)" fill="#251138"/>
        <g id="Grupo_5377" data-name="Grupo 5377">
          <g id="Grupo_5376" data-name="Grupo 5376">
            <path id="Caminho_15699" data-name="Caminho 15699" d="M1499.631,1237.548l-.853,22.288a3.031,3.031,0,0,0,2.322,3.063h0a3.031,3.031,0,0,0,3.654-2.24l7.252-30.241-10.123-1.785Z" transform="translate(-1225.059 -1041.01)" fill="#1c5276"/>
            <path id="Caminho_15700" data-name="Caminho 15700" d="M0,0H9.195V9.255a2.771,2.771,0,0,1-2.771,2.771H2.771A2.771,2.771,0,0,1,0,9.255V0Z" transform="translate(267.414 195.161) rotate(-76.514)" fill="#fb855f"/>
            <path id="Caminho_15701" data-name="Caminho 15701" d="M988.673,1559.166l-20.744,8.2a3.031,3.031,0,0,0-1.869,3.359h0a3.031,3.031,0,0,0,3.523,2.442l30.6-5.542-2.444-9.985Z" transform="translate(-812.143 -1296.002)" fill="#1c5276"/>
            <path id="Caminho_15702" data-name="Caminho 15702" d="M0,0H9.195V9.255a2.771,2.771,0,0,1-2.771,2.771H2.771A2.771,2.771,0,0,1,0,9.255V0Z" transform="translate(174.902 256.059) rotate(-10.265)" fill="#fb855f"/>
            <path id="Caminho_15703" data-name="Caminho 15703" d="M717.921,468.847s13.752,11.767,23.12,23.455a56.885,56.885,0,0,1,6.734,10.109c2.378,4.9,2.663,9.019-.95,11.193a5.624,5.624,0,0,1-1.779.7s-.008,0-.01,0a6.408,6.408,0,0,1-1.648.118.2.2,0,0,1-.041,0A10.133,10.133,0,0,1,740,513.55a30.787,30.787,0,0,1-8.419-6.021c-11.468-10.808-23.292-30.5-23.292-30.5C710.1,470.07,717.921,468.847,717.921,468.847Z" transform="translate(-612.394 -452.141)" fill="#ffaa40"/>
            <path id="Caminho_15704" data-name="Caminho 15704" d="M875.9,605.8s-23.079,4.495-38.709,2.053c-5.222-.813-9.609-2.4-12.033-5.183,0,0,0-.008-.006-.008a8.558,8.558,0,0,1-.959-1.346.19.19,0,0,1-.02-.036,8.036,8.036,0,0,1-1-3.312,8.837,8.837,0,0,1-.036-1.086c.076-3.185,2.741-5.36,6.826-6.814a50.1,50.1,0,0,1,11.9-2.264c14.909-1.315,33.295.782,33.295.782C882.344,590.854,883.989,603.174,875.9,605.8Z" transform="translate(-701.406 -543.998)" fill="#ffaa40"/>
            <rect id="Retângulo_1132" data-name="Retângulo 1132" width="7.92" height="1.008" transform="translate(128.57 51.798) rotate(-67.167)" fill="#251138"/>
            <path id="Caminho_15705" data-name="Caminho 15705" d="M963.981,970.094h0A12.7,12.7,0,0,1,951.3,958.108c-1.575-28.488-2.267-57.67-1.6-79.075h27.8c-.877,24.382-1.094,52.752-.813,78.214a12.7,12.7,0,0,1-12.706,12.847Z" transform="translate(-799.302 -770.054)" fill="#494e6d"/>
            <path id="Caminho_15706" data-name="Caminho 15706" d="M963.857,1149.648h0a12.656,12.656,0,0,0-10.044,15.448c5.82,23.9,14.275,58.835,18.152,74.131l21.17-3.834c-4.037-17.5-10.335-53.726-14.6-75.7A12.656,12.656,0,0,0,963.857,1149.648Z" transform="translate(-802.411 -979.634)" fill="#494e6d"/>
            <path id="Caminho_15707" data-name="Caminho 15707" d="M1089.151,936.948h0a12.7,12.7,0,0,1-12.789-11.876c-1.822-28.473-2.767-57.649-2.286-79.058l27.8-.241c-.667,24.388-.637,52.76-.135,78.217a12.705,12.705,0,0,1-12.593,12.958Z" transform="translate(-895.802 -744.276)" fill="#494e6d"/>
            <path id="Caminho_15708" data-name="Caminho 15708" d="M1086.1,1147.825h0a12.657,12.657,0,0,0,10.525,15.124c24.33,3.613,59.878,8.945,75.508,11.116l4.425-21.056c-17.728-2.853-53.661-10.669-75.623-15A12.656,12.656,0,0,0,1086.1,1147.825Z" transform="translate(-905.011 -970.583)" fill="#494e6d"/>
            <path id="Caminho_15709" data-name="Caminho 15709" d="M950.568,647.417s.711-56.43,16.272-64.463c8.921-4.6,27.383-3.355,36.8,3.008,9.5,6.421,2.791,61.455,2.791,61.455Z" transform="translate(-800.174 -538.437)" fill="#ffaa40"/>
            <g id="Grupo_5375" data-name="Grupo 5375" transform="translate(81.39 5.723)">
              <path id="Caminho_15710" data-name="Caminho 15710" d="M668.085,432.306a11.57,11.57,0,0,0-2.435-4.848c-1.789-1.866-3.208-2.924-4.016-5.749s-3.74-1.753-2.929.676,2.646,6.147-.571,5.866-8.492-6.993-10.263-2.437c0,0-3.056-2.483-3.89-1.132S645.9,428.3,645.9,428.3s-4.238,1.172,3.7,5.78c0,0-1.372,1.493.064,2.574,2.3,1.729,8.395,3.35,13.288,3.252C670.9,439.747,668.085,432.306,668.085,432.306Z" transform="translate(-643.823 -420.024)" fill="#fd8b66"/>
              <path id="Caminho_15711" data-name="Caminho 15711" d="M663.866,447.54a56.161,56.161,0,0,0,6.2,3.055l.2-.463c-7.422-3.192-8.926-5.034-8.941-5.052l-.4.307A11.093,11.093,0,0,0,663.866,447.54Z" transform="translate(-657.078 -439.443)" fill="#e56542"/>
              <path id="Caminho_15712" data-name="Caminho 15712" d="M655.64,458.313a37.55,37.55,0,0,0,6.417,3.117l.161-.478a50.013,50.013,0,0,1-9.5-5.064l-.285.416C652.463,456.323,653.8,457.23,655.64,458.313Z" transform="translate(-650.498 -447.82)" fill="#e56542"/>
              <path id="Caminho_15713" data-name="Caminho 15713" d="M669.109,481.93c.031.012,3.156,1.172,5.636,1.984l.158-.479c-2.471-.81-5.587-1.966-5.617-1.977Z" transform="translate(-663.421 -467.638)" fill="#e56542"/>
            </g>
            <circle id="Elipse_261" data-name="Elipse 261" cx="77.186" cy="77.186" r="77.186" fill="#5f6386"/>
            <path id="Caminho_15714" data-name="Caminho 15714" d="M1070.945,545.18c-5.886,0-8.569-6.875-6.988-8.457a5.579,5.579,0,0,0,1.111-1.72h0a11.6,11.6,0,0,0,.8-2.986l0,0,10.881-9.706c-.588,6.18,2.057,10.518,3.016,13.608S1077.639,545.18,1070.945,545.18Z" transform="translate(-887.71 -493.575)" fill="#fb855f"/>
            <path id="Caminho_15715" data-name="Caminho 15715" d="M1080.229,547.856c-3.12,5.968-9.594,5.376-9.775,5.389a11.587,11.587,0,0,0,.8-2.986l0,0C1071.552,550.085,1083.153,542.262,1080.229,547.856Z" transform="translate(-893.091 -511.817)" fill="#e56542"/>
            <path id="Caminho_15716" data-name="Caminho 15716" d="M1128.189,468.877s-.468,5.641-8.669,11.45c-8.6,6.092,1.189-12.632,1.189-12.632Z" transform="translate(-928.379 -451.249)" fill="#251138"/>
            <path id="Caminho_15717" data-name="Caminho 15717" d="M1057.152,457.886s-1.161,4.861-2.667,10.316c-2.152,7.8-2.335,14.1,5.609,14.1,13.343,0,12.454-22.14,12.454-22.14Z" transform="translate(-879.729 -443.646)" fill="#fb855f"/>
            <rect id="Retângulo_1133" data-name="Retângulo 1133" width="8.625" height="1.008" transform="matrix(0.238, -0.971, 0.971, 0.238, 154.294, 68.506)" fill="#251138"/>
            <path id="Caminho_15718" data-name="Caminho 15718" d="M1013.031,912.874l24.018-1.092-7.642-24.018-11.463-1.637Z" transform="translate(-848.586 -775.552)" fill="#494e6d"/>
            <path id="Caminho_15719" data-name="Caminho 15719" d="M1053.994,896.453l.084-1-6.028-.5,1.847-15.037-1-.123-1.974,16.077Z" transform="translate(-874.852 -770.638)" fill="#251138"/>
            <circle id="Elipse_262" data-name="Elipse 262" cx="4.469" cy="4.469" r="4.469" transform="translate(186.552 25.285)" fill="#fb855f"/>
            <path id="Caminho_15720" data-name="Caminho 15720" d="M949.126,902.893l3.252-2.87,1.1-22.047-1.007-.05-1.081,21.622-2.934,2.589Z" transform="translate(-798.539 -769.197)" fill="#251138"/>
            <path id="Caminho_15721" data-name="Caminho 15721" d="M1177.059,910.736l.5-.875-3.9-2.229-.679-22.743-1.008.03.7,23.309Z" transform="translate(-971.771 -774.592)" fill="#251138"/>
            <path id="Caminho_15722" data-name="Caminho 15722" d="M1029.129,1509.726l-1.918-6.673,20.8-4.6,2.287,7.438Z" transform="translate(-859.576 -1250.133)" fill="#251138"/>
            <path id="Caminho_15723" data-name="Caminho 15723" d="M1432.793,1221.407l8.253,1.214,4.425-21.055-8.3-1.151Z" transform="translate(-1173.92 -1019.14)" fill="#251138"/>
            <path id="Caminho_15724" data-name="Caminho 15724" d="M1059.1,594.949c7.874,0,10.053-4.748,12.342-11.778l-.959-.312c-2.638,8.1-4.833,11.824-13.56,10.969-8.686-.852-8.168-11.83-8.141-12.3l-1.007-.057c-.007.124-.6,12.412,9.05,13.358Q1058.035,594.95,1059.1,594.949Z" transform="translate(-875.506 -539.432)" fill="#251138"/>
            <path id="Caminho_15725" data-name="Caminho 15725" d="M1085.946,432.848s-1.092-3.821-4.913-2.911-5.641,2.729-7.642,1.82-2.67-4.586-2.67-4.586,3.58-11.608,15.043-8.333,6.914,12.919,6.914,12.919l-4,1.819Z" transform="translate(-893.298 -412.931)" fill="#251138"/>
            <path id="Caminho_15726" data-name="Caminho 15726" d="M976.6,813.372a.053.053,0,0,1,.016-.021c.247-.351.474-.7.671-1.044a7.256,7.256,0,0,0,1.1-4.039,5.774,5.774,0,0,0-.27-1.427c-1.022-3.156-3.768-4.237-7.483-3.959-3.352.244-7.488,1.594-11.857,3.514-14.184,6.229-30.8,18.454-30.8,18.454s-.584,7.894,5.783,11.237c0,0,23.148-7.462,36.1-16.532A28.314,28.314,0,0,0,976.6,813.372Z" transform="translate(-782.654 -711.001)" fill="#ffaa40"/>
            <path id="Caminho_15727" data-name="Caminho 15727" d="M1084.715,681.942a.057.057,0,0,1,.026,0,8.2,8.2,0,0,0,1.213-.26,9.965,9.965,0,0,0,3.638-2.07,25.491,25.491,0,0,0,5.733-8.041c6.989-14.121,9.649-37.568,9.649-37.568.112-8.5-11.818-10.82-16.279-4.74,0,0-8.925,19.822-11.6,35.124-.906,5.174-1.1,9.832.012,13.032a6.067,6.067,0,0,0,3.627,4.024,8.385,8.385,0,0,0,3.984.5Z" transform="translate(-897.653 -573.823)" fill="#ffaa40"/>
            <path id="Caminho_15728" data-name="Caminho 15728" d="M880.185,897.807a11.07,11.07,0,0,0-5.5-.239c-2.485.719-4.069,1.513-7.013.792s-3.221,2.639-.639,3.149,6.789.724,5.146,3.642-10.083,4.4-6.657,8.5c0,0-3.6,1.6-2.715,3.11s4.152.078,4.152.078-.747,4.658,6.9-.471c0,0,.782,2.1,2.394,1.3,2.578-1.276,6.693-6.231,8.708-10.948C888.237,899.049,880.185,897.807,880.185,897.807Z" transform="translate(-732.044 -784.212)" fill="#fd8b66"/>
            <path id="Caminho_15729" data-name="Caminho 15729" d="M875.25,949.2c.1-.016,2.452-.446,8.733-5.969l-.333-.379c-6.121,5.382-8.458,5.846-8.481,5.849Z" transform="translate(-741.736 -819.52)" fill="#e56542"/>
            <path id="Caminho_15730" data-name="Caminho 15730" d="M881.441,961.632c.058-.032,5.795-3.264,8.856-6.467l-.365-.348c-3.008,3.149-8.681,6.344-8.738,6.376Z" transform="translate(-746.406 -828.79)" fill="#e56542"/>
            <path id="Caminho_15731" data-name="Caminho 15731" d="M912,966.755c.024-.024,2.435-2.39,4.249-4.325l-.368-.345c-1.807,1.927-4.21,4.286-4.234,4.309Z" transform="translate(-770.009 -834.424)" fill="#e56542"/>
            <rect id="Retângulo_1134" data-name="Retângulo 1134" width="1.008" height="4.443" transform="matrix(0.546, -0.838, 0.838, 0.546, 178.544, 94.413)" fill="#251138"/>
          </g>
          <circle id="Elipse_263" data-name="Elipse 263" cx="0.932" cy="0.932" r="0.932" transform="translate(183.778 23.92)" fill="#8e3332"/>
          <circle id="Elipse_264" data-name="Elipse 264" cx="0.932" cy="0.932" r="0.932" transform="translate(177.964 22.637)" fill="#8e3332"/>
          <path id="Caminho_15732" data-name="Caminho 15732" d="M1076.217,510.43a2.968,2.968,0,0,0,1.221-.274l-.415-.919a1.406,1.406,0,0,1-1.829-.312c-.216-.45.463-.841.676-.951a3.914,3.914,0,0,0,2.11-3.941l-1,.143a2.9,2.9,0,0,1-1.573,2.9c-1.317.676-1.428,1.654-1.125,2.285A2.108,2.108,0,0,0,1076.217,510.43Z" transform="translate(-895.952 -479.412)" fill="#8e3332"/>
          <path id="Caminho_15733" data-name="Caminho 15733" d="M1070,539.743l3.542.537s-.59,2.308-2.2,2.039S1070,539.743,1070,539.743Z" transform="translate(-892.725 -507.089)" fill="#fff"/>
          <path id="Caminho_15734" data-name="Caminho 15734" d="M1107.675,489.171l.919-.413a3.693,3.693,0,0,0-3.027-2.207l-.051,1.007.026-.5-.029.5A2.686,2.686,0,0,1,1107.675,489.171Z" transform="translate(-920.264 -465.862)" fill="#8e3332"/>
          <path id="Caminho_15735" data-name="Caminho 15735" d="M1075.511,481.382l.583-.822a5.042,5.042,0,0,0-3.729-.625l.233.981A4.081,4.081,0,0,1,1075.511,481.382Z" transform="translate(-894.573 -460.644)" fill="#8e3332"/>
          <path id="Caminho_15736" data-name="Caminho 15736" d="M1133.434,524.135l1-.153a3.021,3.021,0,0,0-2.83-2.362l-.078,1.005.039-.5-.041.5C1131.59,522.631,1133.226,522.785,1133.434,524.135Z" transform="translate(-940.42 -493.043)" fill="#8e3332"/>
        </g>
      </g>
    </g>
    <path id="Caminho_15737" data-name="Caminho 15737" d="M1155.1,726.621c7.037-11.56,8.661-28.293,8.677-28.461l-1-.094c-.015.165-1.62,16.672-8.534,28.029Z" transform="translate(-958.028 -629.797)" fill="#251138"/>
    <rect id="Retângulo_1135" data-name="Retângulo 1135" width="12.45" height="1.008" transform="translate(151.008 108.737) rotate(-31.759)" fill="#251138"/>
  </g>
  <path id="Caminho_15739" data-name="Caminho 15739" d="M1303.066,414.83h59.143a5.911,5.911,0,0,0,5.911-5.911V379.035a5.911,5.911,0,0,0-5.911-5.911h-59.142a5.911,5.911,0,0,0-5.911,5.911v29.884A5.911,5.911,0,0,0,1303.066,414.83Z" transform="translate(-1050.257 -373.124)" fill="#ffaa40"/>
  <path id="Caminho_15740" data-name="Caminho 15740" d="M1271.055,470.039l-11.946,11.946h11.233Z" transform="translate(-1020.77 -448.237)" fill="#ffaa40"/>
  <rect id="Retângulo_1136" data-name="Retângulo 1136" width="51.351" height="3.439" rx="1.72" transform="translate(307.699 13.473) rotate(180)" fill="#fff"/>
  <rect id="Retângulo_1137" data-name="Retângulo 1137" width="33.699" height="3.439" rx="1.72" transform="translate(307.699 22.317) rotate(180)" fill="#fff"/>
  <rect id="Retângulo_1138" data-name="Retângulo 1138" width="44.754" height="3.439" rx="1.72" transform="translate(307.699 32.143) rotate(180)" fill="#fff"/>
  <circle id="Elipse_267" data-name="Elipse 267" cx="13.979" cy="13.979" r="13.979" transform="translate(276.23 82.622)" fill="#494e6d"/>
  <circle id="Elipse_268" data-name="Elipse 268" cx="13.979" cy="13.979" r="13.979" transform="translate(7.901 51.322)" fill="#ffaa40"/>
  <circle id="Elipse_269" data-name="Elipse 269" cx="8.813" cy="8.813" r="8.813" transform="translate(287.474 164.67)" fill="#ffaa40"/>
  <circle id="Elipse_270" data-name="Elipse 270" cx="8.205" cy="8.205" r="8.205" transform="translate(141.61 198.402)" fill="none" stroke="#494e6d" stroke-miterlimit="10" stroke-width="5"/>
  <circle id="Elipse_271" data-name="Elipse 271" cx="4.862" cy="4.862" r="4.862" transform="translate(245.386 122.279)" fill="none" stroke="#494e6d" stroke-miterlimit="10" stroke-width="5"/>
  <circle id="Elipse_272" data-name="Elipse 272" cx="5.774" cy="5.774" r="5.774" transform="translate(153.613 3.46)" fill="none" stroke="#494e6d" stroke-miterlimit="10" stroke-width="5"/>
  <circle id="Elipse_273" data-name="Elipse 273" cx="10.332" cy="10.332" r="10.332" transform="translate(43.455 183.815)" fill="#ffaa40"/>
  <path id="Caminho_15741" data-name="Caminho 15741" d="M74.238,34.84A11.773,11.773,0,1,1,62.465,46.614,11.773,11.773,0,0,1,74.238,34.84Zm18.837,71.817a3.532,3.532,0,0,1-3.532,3.532H58.933a3.532,3.532,0,0,1-3.532-3.532V104.3a3.532,3.532,0,0,1,3.532-3.532,3.532,3.532,0,0,0,3.532-3.532V76.047a3.532,3.532,0,0,0-3.532-3.532A3.532,3.532,0,0,1,55.4,68.983V66.628A3.532,3.532,0,0,1,58.933,63.1H82.479a3.532,3.532,0,0,1,3.532,3.532V97.239a3.532,3.532,0,0,0,3.532,3.532,3.532,3.532,0,0,1,3.532,3.532Z" transform="translate(22.311 6.764)" fill="#fff"/>
</svg>
