<svg id="Grupo_5370" data-name="Grupo 5370" xmlns="http://www.w3.org/2000/svg" xmlns:xlink="http://www.w3.org/1999/xlink" width="221.795" height="240.732" viewBox="0 0 221.795 240.732">
  <defs>
    <clipPath id="clip-path">
      <path id="Caminho_15468" data-name="Caminho 15468" d="M382.355-170.206v4.889H260v-9.794A4.889,4.889,0,0,1,264.891-180H377.464a4.891,4.891,0,0,1,4.891,4.889Z" transform="translate(-260 180)" fill="none" clip-rule="evenodd"/>
    </clipPath>
    <clipPath id="clip-path-2">
      <path id="Caminho_15470" data-name="Caminho 15470" d="M271.835-167.329a1.835,1.835,0,0,0,1.835-1.835A1.835,1.835,0,0,0,271.835-171,1.835,1.835,0,0,0,270-169.165,1.835,1.835,0,0,0,271.835-167.329Z" transform="translate(-270 171)" fill="none" clip-rule="evenodd"/>
    </clipPath>
    <clipPath id="clip-path-3">
      <path id="Caminho_15472" data-name="Caminho 15472" d="M281.835-167.329a1.835,1.835,0,0,0,1.835-1.835A1.835,1.835,0,0,0,281.835-171,1.835,1.835,0,0,0,280-169.165,1.835,1.835,0,0,0,281.835-167.329Z" transform="translate(-280 171)" fill="none" clip-rule="evenodd"/>
    </clipPath>
    <clipPath id="clip-path-4">
      <path id="Caminho_15474" data-name="Caminho 15474" d="M291.835-167.329a1.835,1.835,0,0,0,1.835-1.835A1.835,1.835,0,0,0,291.835-171,1.835,1.835,0,0,0,290-169.165,1.835,1.835,0,0,0,291.835-167.329Z" transform="translate(-290 171)" fill="none" clip-rule="evenodd"/>
    </clipPath>
    <clipPath id="clip-path-5">
      <path id="Caminho_15479" data-name="Caminho 15479" d="M260-154.1V-159H382.355V63.988a4.893,4.893,0,0,1-4.891,4.9H264.891a4.894,4.894,0,0,1-4.891-4.9Z" transform="translate(-260 159)" fill="#fff" clip-rule="evenodd"/>
    </clipPath>
    <clipPath id="clip-path-6">
      <path id="Caminho_15481" data-name="Caminho 15481" d="M306-16.776A1.223,1.223,0,0,1,307.221-18h34.264a1.219,1.219,0,0,1,1.221,1.224h0a1.223,1.223,0,0,1-1.221,1.224H307.221A1.219,1.219,0,0,1,306-16.776Z" transform="translate(-306 18)" fill="none" clip-rule="evenodd"/>
    </clipPath>
    <clipPath id="clip-path-7">
      <path id="Caminho_15483" data-name="Caminho 15483" d="M371-16.776A1.225,1.225,0,0,1,372.225-18h23.857a1.221,1.221,0,0,1,1.225,1.224h0a1.225,1.225,0,0,1-1.225,1.224H372.225A1.221,1.221,0,0,1,371-16.776Z" transform="translate(-371 18)" fill="none" clip-rule="evenodd"/>
    </clipPath>
    <clipPath id="clip-path-8">
      <path id="Caminho_15488" data-name="Caminho 15488" d="M273-127.169A1.834,1.834,0,0,1,274.836-129H378.225a1.833,1.833,0,0,1,1.836,1.831v57.516a1.834,1.834,0,0,1-1.836,1.831H274.836A1.833,1.833,0,0,1,273-69.653Z" transform="translate(-273 129)" fill="none" clip-rule="evenodd"/>
    </clipPath>
    <clipPath id="clip-path-9">
      <path id="Caminho_15490" data-name="Caminho 15490" d="M326.241-70.8h49.289V-102H326.241Z" transform="translate(-326.241 102)" fill="none"/>
    </clipPath>
    <clipPath id="clip-path-10">
      <path id="Caminho_15493" data-name="Caminho 15493" d="M301.746-127.5h75.588v57.507H301.746Zm32.5,36.411,10.874-14.153a1.323,1.323,0,0,1,2.275,0l15.54,20.227c.566.737.461.951-.464.951H316.587c-.92,0-1-.162-.422-.869l9.6-11.785a1.473,1.473,0,0,1,2.434,0l4.6,5.65.733.9Zm-1.455-1.118,1.439-.021-4.6-5.65a3.3,3.3,0,0,0-5.28,0l-9.6,11.785c-1.555,1.909-.618,3.864,1.845,3.864h45.883c2.448,0,3.412-1.961,1.919-3.9l-15.54-20.227a3.146,3.146,0,0,0-5.186,0Zm-2.745-13.269a3.977,3.977,0,0,1-3.977-3.977,3.977,3.977,0,0,1,3.977-3.977,3.976,3.976,0,0,1,3.977,3.977A3.976,3.976,0,0,1,330.043-105.476Zm0,1.835a5.812,5.812,0,0,0,5.812-5.812,5.812,5.812,0,0,0-5.812-5.812,5.812,5.812,0,0,0-5.812,5.812A5.812,5.812,0,0,0,330.043-103.641Z" transform="translate(-301.746 127.5)" fill="none" clip-rule="evenodd"/>
    </clipPath>
    <clipPath id="clip-path-11">
      <path id="Caminho_15492" data-name="Caminho 15492" d="M341.861-83.3l10.874-14.153a2.232,2.232,0,0,1,3.731,0l15.54,20.227c1.03,1.341.494,2.428-1.191,2.428H324.931c-1.691,0-2.2-1.058-1.133-2.367l9.6-11.785a2.386,2.386,0,0,1,3.857,0Zm-3.473-12.911a4.894,4.894,0,0,1-4.894-4.894A4.894,4.894,0,0,1,338.388-106a4.894,4.894,0,0,1,4.894,4.894A4.894,4.894,0,0,1,338.388-96.212Z" transform="translate(-323.241 106)" fill="none" clip-rule="evenodd"/>
    </clipPath>
    <clipPath id="clip-path-13">
      <path id="Caminho_15497" data-name="Caminho 15497" d="M273-144.776A1.222,1.222,0,0,1,274.219-146h6.739a1.218,1.218,0,0,1,1.219,1.224h0a1.222,1.222,0,0,1-1.219,1.224h-6.739A1.218,1.218,0,0,1,273-144.776Z" transform="translate(-273 146)" fill="none" clip-rule="evenodd"/>
    </clipPath>
    <clipPath id="clip-path-14">
      <path id="Caminho_15499" data-name="Caminho 15499" d="M378-144.776A1.223,1.223,0,0,1,379.218-146h9.8a1.218,1.218,0,0,1,1.218,1.224,1.224,1.224,0,0,1-1.218,1.224h-9.8A1.218,1.218,0,0,1,378-144.776Zm15.294,0A1.223,1.223,0,0,1,394.52-146h5.5a1.221,1.221,0,0,1,1.225,1.224,1.223,1.223,0,0,1-1.225,1.224h-5.5A1.221,1.221,0,0,1,393.294-144.776Zm11.012,0A1.223,1.223,0,0,1,405.528-146h13.463a1.22,1.22,0,0,1,1.222,1.224,1.223,1.223,0,0,1-1.222,1.224H405.528A1.22,1.22,0,0,1,404.306-144.776Z" transform="translate(-378 146)" fill="none" clip-rule="evenodd"/>
    </clipPath>
    <clipPath id="clip-path-15">
      <path id="Caminho_15612" data-name="Caminho 15612" d="M0-121.948A1.049,1.049,0,0,1,1.048-123h9.479a1.047,1.047,0,0,1,1.048,1.052h0a1.049,1.049,0,0,1-1.048,1.052H1.048A1.047,1.047,0,0,1,0-121.948Z" transform="translate(0 123)" fill="none" clip-rule="evenodd"/>
    </clipPath>
    <clipPath id="clip-path-16">
      <path id="Caminho_15614" data-name="Caminho 15614" d="M0-107.948A1.053,1.053,0,0,1,1.055-109H11.572a1.051,1.051,0,0,1,1.055,1.052h0a1.053,1.053,0,0,1-1.055,1.052H1.055A1.051,1.051,0,0,1,0-107.948Z" transform="translate(0 109)" fill="none" clip-rule="evenodd"/>
    </clipPath>
    <clipPath id="clip-path-17">
      <path id="Caminho_15616" data-name="Caminho 15616" d="M0-97.948A1.052,1.052,0,0,1,1.048-99H14.735a1.047,1.047,0,0,1,1.048,1.052h0A1.052,1.052,0,0,1,14.735-96.9H1.048A1.047,1.047,0,0,1,0-97.948Z" transform="translate(0 99)" fill="none" clip-rule="evenodd"/>
    </clipPath>
    <clipPath id="clip-path-18">
      <path id="Caminho_15618" data-name="Caminho 15618" d="M0-87.948A1.053,1.053,0,0,1,1.055-89H11.572a1.051,1.051,0,0,1,1.055,1.052h0A1.053,1.053,0,0,1,11.572-86.9H1.055A1.051,1.051,0,0,1,0-87.948Z" transform="translate(0 89)" fill="none" clip-rule="evenodd"/>
    </clipPath>
    <clipPath id="clip-path-19">
      <path id="Caminho_15622" data-name="Caminho 15622" d="M45-121.948A1.051,1.051,0,0,1,46.054-123H57.1a1.051,1.051,0,0,1,1.054,1.052h0A1.051,1.051,0,0,1,57.1-120.9H46.054A1.051,1.051,0,0,1,45-121.948Z" transform="translate(-45 123)" fill="none" clip-rule="evenodd"/>
    </clipPath>
    <clipPath id="clip-path-20">
      <path id="Caminho_15624" data-name="Caminho 15624" d="M45-107.948A1.053,1.053,0,0,1,46.048-109H58.683a1.047,1.047,0,0,1,1.048,1.052h0a1.053,1.053,0,0,1-1.048,1.052H46.048A1.047,1.047,0,0,1,45-107.948Z" transform="translate(-45 109)" fill="none" clip-rule="evenodd"/>
    </clipPath>
    <clipPath id="clip-path-21">
      <path id="Caminho_15626" data-name="Caminho 15626" d="M45-97.948A1.052,1.052,0,0,1,46.048-99H59.735a1.047,1.047,0,0,1,1.048,1.052h0A1.052,1.052,0,0,1,59.735-96.9H46.048A1.047,1.047,0,0,1,45-97.948Z" transform="translate(-45 99)" fill="none" clip-rule="evenodd"/>
    </clipPath>
    <clipPath id="clip-path-22">
      <path id="Caminho_15628" data-name="Caminho 15628" d="M45-87.948A1.053,1.053,0,0,1,46.048-89H58.683a1.047,1.047,0,0,1,1.048,1.052h0A1.053,1.053,0,0,1,58.683-86.9H46.048A1.047,1.047,0,0,1,45-87.948Z" transform="translate(-45 89)" fill="none" clip-rule="evenodd"/>
    </clipPath>
    <clipPath id="clip-path-23">
      <path id="Caminho_15636" data-name="Caminho 15636" d="M90-121.948A1.049,1.049,0,0,1,91.048-123h9.479a1.047,1.047,0,0,1,1.048,1.052h0a1.049,1.049,0,0,1-1.048,1.052H91.048A1.047,1.047,0,0,1,90-121.948Z" transform="translate(-90 123)" fill="none" clip-rule="evenodd"/>
    </clipPath>
    <clipPath id="clip-path-24">
      <path id="Caminho_15638" data-name="Caminho 15638" d="M90-107.948A1.053,1.053,0,0,1,91.055-109h10.517a1.051,1.051,0,0,1,1.055,1.052h0a1.053,1.053,0,0,1-1.055,1.052H91.055A1.051,1.051,0,0,1,90-107.948Z" transform="translate(-90 109)" fill="none" clip-rule="evenodd"/>
    </clipPath>
    <clipPath id="clip-path-25">
      <path id="Caminho_15640" data-name="Caminho 15640" d="M90-97.948A1.052,1.052,0,0,1,91.048-99h13.688a1.047,1.047,0,0,1,1.048,1.052h0a1.052,1.052,0,0,1-1.048,1.052H91.048A1.047,1.047,0,0,1,90-97.948Z" transform="translate(-90 99)" fill="none" clip-rule="evenodd"/>
    </clipPath>
    <clipPath id="clip-path-26">
      <path id="Caminho_15642" data-name="Caminho 15642" d="M90-87.948A1.053,1.053,0,0,1,91.055-89h10.517a1.051,1.051,0,0,1,1.055,1.052h0a1.053,1.053,0,0,1-1.055,1.052H91.055A1.051,1.051,0,0,1,90-87.948Z" transform="translate(-90 89)" fill="none" clip-rule="evenodd"/>
    </clipPath>
    <clipPath id="clip-path-27">
      <path id="Caminho_15646" data-name="Caminho 15646" d="M135-121.948A1.052,1.052,0,0,1,136.056-123h9.672a1.052,1.052,0,0,1,1.056,1.052h0a1.052,1.052,0,0,1-1.056,1.052h-9.672A1.052,1.052,0,0,1,135-121.948Z" transform="translate(-135 123)" fill="none" clip-rule="evenodd"/>
    </clipPath>
    <clipPath id="clip-path-28">
      <path id="Caminho_15648" data-name="Caminho 15648" d="M135-107.948A1.052,1.052,0,0,1,136.048-109h13.688a1.047,1.047,0,0,1,1.048,1.052h0a1.052,1.052,0,0,1-1.048,1.052H136.048A1.047,1.047,0,0,1,135-107.948Z" transform="translate(-135 109)" fill="none" clip-rule="evenodd"/>
    </clipPath>
    <clipPath id="clip-path-29">
      <path id="Caminho_15650" data-name="Caminho 15650" d="M135-97.948A1.053,1.053,0,0,1,136.048-99h12.636a1.047,1.047,0,0,1,1.048,1.052h0a1.053,1.053,0,0,1-1.048,1.052H136.048A1.047,1.047,0,0,1,135-97.948Z" transform="translate(-135 99)" fill="none" clip-rule="evenodd"/>
    </clipPath>
    <clipPath id="clip-path-30">
      <path id="Caminho_15652" data-name="Caminho 15652" d="M135-87.948A1.053,1.053,0,0,1,136.055-89h10.517a1.051,1.051,0,0,1,1.055,1.052h0a1.053,1.053,0,0,1-1.055,1.052H136.055A1.051,1.051,0,0,1,135-87.948Z" transform="translate(-135 89)" fill="none" clip-rule="evenodd"/>
    </clipPath>
    <clipPath id="clip-path-31">
      <path id="Caminho_15661" data-name="Caminho 15661" d="M78-14.317A3.684,3.684,0,0,1,81.681-18h26.833v7.365H81.681A3.684,3.684,0,0,1,78-14.317Z" transform="translate(-78 18)" fill="#edf0f3" clip-rule="evenodd"/>
    </clipPath>
    <clipPath id="clip-path-32">
      <path id="Caminho_15668" data-name="Caminho 15668" d="M133-18h13.151a3.686,3.686,0,0,1,3.684,3.683h0a3.681,3.681,0,0,1-3.684,3.683H133Z" transform="translate(-133 18)" fill="#01306a" clip-rule="evenodd"/>
    </clipPath>
    <clipPath id="clip-path-33">
      <path id="Caminho_15675" data-name="Caminho 15675" d="M3.683-10.635a3.683,3.683,0,0,0,3.683-3.683A3.683,3.683,0,0,0,3.683-18,3.683,3.683,0,0,0,0-14.317,3.683,3.683,0,0,0,3.683-10.635Z" transform="translate(0 18)" fill="#bbc8d5" clip-rule="evenodd"/>
    </clipPath>
    <clipPath id="clip-path-34">
      <path id="Caminho_15682" data-name="Caminho 15682" d="M23.683-10.635a3.683,3.683,0,0,0,3.683-3.683A3.683,3.683,0,0,0,23.683-18,3.683,3.683,0,0,0,20-14.317,3.683,3.683,0,0,0,23.683-10.635Z" transform="translate(-20 18)" fill="#bbc8d5" clip-rule="evenodd"/>
    </clipPath>
    <clipPath id="clip-path-35">
      <path id="Caminho_15689" data-name="Caminho 15689" d="M43.683-10.635a3.683,3.683,0,0,0,3.683-3.683A3.683,3.683,0,0,0,43.683-18,3.683,3.683,0,0,0,40-14.317,3.683,3.683,0,0,0,43.683-10.635Z" transform="translate(-40 18)" fill="#bbc8d5" clip-rule="evenodd"/>
    </clipPath>
    <filter id="Ret창ngulo_1131" x="65" y="13.574" width="156.795" height="204.947" filterUnits="userSpaceOnUse">
      <feOffset dy="10" input="SourceAlpha"/>
      <feGaussianBlur stdDeviation="10" result="blur"/>
      <feFlood flood-opacity="0.161"/>
      <feComposite operator="in" in2="blur"/>
      <feComposite in="SourceGraphic"/>
    </filter>
    <clipPath id="clip-path-36">
      <path id="Caminho_15515" data-name="Caminho 15515" d="M54-14.542A3.456,3.456,0,0,1,57.456-18H72.279a3.459,3.459,0,0,1,3.456,3.458h0a3.456,3.456,0,0,1-3.456,3.458H57.456A3.459,3.459,0,0,1,54-14.542Z" transform="translate(-54 18)" fill="#01306a" clip-rule="evenodd"/>
    </clipPath>
    <clipPath id="clip-path-37">
      <path id="Caminho_15517" data-name="Caminho 15517" d="M128.116-46.012a.989.989,0,0,1,.992-.988h5.725a.988.988,0,0,1,.992.988h0a.989.989,0,0,1-.992.988h-5.725a.988.988,0,0,1-.992-.988Z" transform="translate(-128.116 47)" fill="none" clip-rule="evenodd"/>
    </clipPath>
    <clipPath id="clip-path-38">
      <path id="Caminho_15519" data-name="Caminho 15519" d="M120-56.012a.99.99,0,0,1,.988-.988h13.443a.986.986,0,0,1,.988.988h0a.99.99,0,0,1-.988.988H120.988a.986.986,0,0,1-.988-.988Z" transform="translate(-120 57)" fill="none" clip-rule="evenodd"/>
    </clipPath>
    <clipPath id="clip-path-39">
      <path id="Caminho_15521" data-name="Caminho 15521" d="M121.873-66.012a.986.986,0,0,1,.986-.988h11.735a.984.984,0,0,1,.986.988h0a.986.986,0,0,1-.986.988H122.859a.984.984,0,0,1-.986-.988Z" transform="translate(-121.873 67)" fill="none" clip-rule="evenodd"/>
    </clipPath>
    <clipPath id="clip-path-40">
      <path id="Caminho_15523" data-name="Caminho 15523" d="M120-76.012a.99.99,0,0,1,.988-.988h13.443a.986.986,0,0,1,.988.988h0a.99.99,0,0,1-.988.988H120.988a.986.986,0,0,1-.988-.988Z" transform="translate(-120 77)" fill="none" clip-rule="evenodd"/>
    </clipPath>
    <clipPath id="clip-path-41">
      <path id="Caminho_15528" data-name="Caminho 15528" d="M126.645-104.711a8.645,8.645,0,0,0,8.645-8.645A8.645,8.645,0,0,0,126.645-122,8.645,8.645,0,0,0,118-113.355,8.645,8.645,0,0,0,126.645-104.711Z" transform="translate(-118 122)" fill="#217be4" clip-rule="evenodd"/>
    </clipPath>
    <clipPath id="clip-path-42">
      <path id="Caminho_15530" data-name="Caminho 15530" d="M69-46.012A.989.989,0,0,1,69.992-47h5.725a.988.988,0,0,1,.992.988h0a.989.989,0,0,1-.992.988H69.992A.988.988,0,0,1,69-46.012Z" transform="translate(-69 47)" fill="none" clip-rule="evenodd"/>
    </clipPath>
    <clipPath id="clip-path-43">
      <path id="Caminho_15532" data-name="Caminho 15532" d="M67-56.012A.988.988,0,0,1,67.983-57H75.9a.983.983,0,0,1,.983.988h0a.988.988,0,0,1-.983.988H67.983A.983.983,0,0,1,67-56.012Z" transform="translate(-67 57)" fill="none" clip-rule="evenodd"/>
    </clipPath>
    <clipPath id="clip-path-44">
      <path id="Caminho_15534" data-name="Caminho 15534" d="M63-66.012A.986.986,0,0,1,63.986-67H75.72a.984.984,0,0,1,.986.988h0a.986.986,0,0,1-.986.988H63.986A.984.984,0,0,1,63-66.012Z" transform="translate(-63 67)" fill="none" clip-rule="evenodd"/>
    </clipPath>
    <clipPath id="clip-path-45">
      <path id="Caminho_15536" data-name="Caminho 15536" d="M61-76.012A.99.99,0,0,1,61.988-77H75.431a.986.986,0,0,1,.988.988h0a.99.99,0,0,1-.988.988H61.988A.986.986,0,0,1,61-76.012Z" transform="translate(-61 77)" fill="none" clip-rule="evenodd"/>
    </clipPath>
    <clipPath id="clip-path-46">
      <path id="Caminho_15541" data-name="Caminho 15541" d="M67.645-104.711a8.645,8.645,0,0,0,8.645-8.645A8.645,8.645,0,0,0,67.645-122,8.645,8.645,0,0,0,59-113.355,8.645,8.645,0,0,0,67.645-104.711Z" transform="translate(-59 122)" fill="#217be4" clip-rule="evenodd"/>
    </clipPath>
    <clipPath id="clip-path-47">
      <path id="Caminho_15543" data-name="Caminho 15543" d="M10.116-46.012A.989.989,0,0,1,11.108-47h5.725a.988.988,0,0,1,.992.988h0a.989.989,0,0,1-.992.988H11.108a.988.988,0,0,1-.992-.988Z" transform="translate(-10.116 47)" fill="none" clip-rule="evenodd"/>
    </clipPath>
    <clipPath id="clip-path-48">
      <path id="Caminho_15545" data-name="Caminho 15545" d="M2-56.012A.99.99,0,0,1,2.988-57H16.431a.986.986,0,0,1,.988.988h0a.99.99,0,0,1-.988.988H2.988A.986.986,0,0,1,2-56.012Z" transform="translate(-2 57)" fill="none" clip-rule="evenodd"/>
    </clipPath>
    <clipPath id="clip-path-49">
      <path id="Caminho_15547" data-name="Caminho 15547" d="M3.873-66.012A.986.986,0,0,1,4.859-67H16.593a.984.984,0,0,1,.986.988h0a.986.986,0,0,1-.986.988H4.859a.984.984,0,0,1-.986-.988Z" transform="translate(-3.873 67)" fill="none" clip-rule="evenodd"/>
    </clipPath>
    <clipPath id="clip-path-50">
      <path id="Caminho_15549" data-name="Caminho 15549" d="M2-76.012A.99.99,0,0,1,2.988-77H16.431a.986.986,0,0,1,.988.988h0a.99.99,0,0,1-.988.988H2.988A.986.986,0,0,1,2-76.012Z" transform="translate(-2 77)" fill="none" clip-rule="evenodd"/>
    </clipPath>
    <clipPath id="clip-path-51">
      <path id="Caminho_15554" data-name="Caminho 15554" d="M8.645-104.711a8.645,8.645,0,0,0,8.645-8.645A8.645,8.645,0,0,0,8.645-122,8.645,8.645,0,0,0,0-113.355,8.645,8.645,0,0,0,8.645-104.711Z" transform="translate(0 122)" fill="#217be4" clip-rule="evenodd"/>
    </clipPath>
    <clipPath id="clip-path-52">
      <path id="Caminho_15561" data-name="Caminho 15561" d="M102-44.343A3.655,3.655,0,0,1,105.659-48H120.8a3.66,3.66,0,0,1,3.659,3.657h0a3.655,3.655,0,0,1-3.659,3.657H105.659A3.66,3.66,0,0,1,102-44.343Z" transform="translate(-102 48)" fill="#01306a" clip-rule="evenodd"/>
    </clipPath>
    <clipPath id="clip-path-53">
      <path id="Caminho_15566" data-name="Caminho 15566" d="M8-46.431A1.567,1.567,0,0,1,9.572-48H46.486a1.569,1.569,0,0,1,1.572,1.569v4.175a1.567,1.567,0,0,1-1.572,1.569H9.572A1.569,1.569,0,0,1,8-42.256Z" transform="translate(-8 48)" fill="none" clip-rule="evenodd"/>
    </clipPath>
    <clipPath id="clip-path-54">
      <path id="Caminho_15568" data-name="Caminho 15568" d="M52-70.955A1.043,1.043,0,0,1,53.043-72H71.851a1.041,1.041,0,0,1,1.043,1.045h0a1.043,1.043,0,0,1-1.043,1.045H53.043A1.041,1.041,0,0,1,52-70.955Z" transform="translate(-52 72)" fill="#0b1119" clip-rule="evenodd"/>
    </clipPath>
    <clipPath id="clip-path-55">
      <path id="Caminho_15576" data-name="Caminho 15576" d="M30-96.194A.805.805,0,0,1,30.8-97H69.425a.8.8,0,0,1,.8.806h0a.805.805,0,0,1-.8.806H30.8a.8.8,0,0,1-.8-.806Z" transform="translate(-30 97)" fill="none" clip-rule="evenodd"/>
    </clipPath>
    <clipPath id="clip-path-56">
      <path id="Caminho_15578" data-name="Caminho 15578" d="M30-106.194a.805.805,0,0,1,.8-.806H75.568a.8.8,0,0,1,.8.806h0a.805.805,0,0,1-.8.806H30.8a.8.8,0,0,1-.8-.806Z" transform="translate(-30 107)" fill="none" clip-rule="evenodd"/>
    </clipPath>
    <clipPath id="clip-path-57">
      <path id="Caminho_15583" data-name="Caminho 15583" d="M4.032-101.935a4.032,4.032,0,0,0,4.032-4.032A4.032,4.032,0,0,0,4.032-110,4.032,4.032,0,0,0,0-105.968,4.032,4.032,0,0,0,4.032-101.935Z" transform="translate(0 110)" fill="#217be4" clip-rule="evenodd"/>
    </clipPath>
    <clipPath id="clip-path-58">
      <path id="Caminho_15585" data-name="Caminho 15585" d="M30-66.194A.808.808,0,0,1,30.806-67H71.937a.8.8,0,0,1,.806.806h0a.808.808,0,0,1-.806.806H30.806A.8.8,0,0,1,30-66.194Z" transform="translate(-30 67)" fill="none" clip-rule="evenodd"/>
    </clipPath>
    <clipPath id="clip-path-59">
      <path id="Caminho_15587" data-name="Caminho 15587" d="M30-76.194A.807.807,0,0,1,30.809-77H67.5a.806.806,0,0,1,.809.806h0a.807.807,0,0,1-.809.806H30.809A.806.806,0,0,1,30-76.194Z" transform="translate(-30 77)" fill="none" clip-rule="evenodd"/>
    </clipPath>
    <clipPath id="clip-path-60">
      <path id="Caminho_15592" data-name="Caminho 15592" d="M4.032-71.935a4.032,4.032,0,0,0,4.032-4.032A4.032,4.032,0,0,0,4.032-80,4.032,4.032,0,0,0,0-75.968,4.032,4.032,0,0,0,4.032-71.935Z" transform="translate(0 80)" fill="#217be4" clip-rule="evenodd"/>
    </clipPath>
    <clipPath id="clip-path-61">
      <path id="Caminho_15594" data-name="Caminho 15594" d="M30-36.194A.807.807,0,0,1,30.806-37h33.8a.8.8,0,0,1,.806.806h0a.807.807,0,0,1-.806.806h-33.8A.8.8,0,0,1,30-36.194Z" transform="translate(-30 37)" fill="none" clip-rule="evenodd"/>
    </clipPath>
    <clipPath id="clip-path-62">
      <path id="Caminho_15596" data-name="Caminho 15596" d="M30-46.194A.808.808,0,0,1,30.8-47H72.84a.8.8,0,0,1,.8.806h0a.808.808,0,0,1-.8.806H30.8a.8.8,0,0,1-.8-.806Z" transform="translate(-30 47)" fill="none" clip-rule="evenodd"/>
    </clipPath>
    <clipPath id="clip-path-63">
      <path id="Caminho_15601" data-name="Caminho 15601" d="M4.032-41.935a4.032,4.032,0,0,0,4.032-4.032A4.032,4.032,0,0,0,4.032-50,4.032,4.032,0,0,0,0-45.968,4.032,4.032,0,0,0,4.032-41.935Z" transform="translate(0 50)" fill="#217be4" clip-rule="evenodd"/>
    </clipPath>
  </defs>
  <g id="Grupo_5236" data-name="Grupo 5236">
    <path id="Caminho_15500" data-name="Caminho 15500" d="M122.355-170.206v4.889H0v-9.794A4.889,4.889,0,0,1,4.891-180H117.464a4.891,4.891,0,0,1,4.891,4.889Z" transform="translate(0 180)" fill="#edf0f3"/>
    <g id="Grupo_5207" data-name="Grupo 5207" transform="translate(0.29 0)" clip-path="url(#clip-path)">
      <g id="Grupo_5206" data-name="Grupo 5206" transform="translate(0 0)">
        <path id="Caminho_15467" data-name="Caminho 15467" d="M122.355,9.794v4.889H0V4.889A4.889,4.889,0,0,1,4.891,0H117.464a4.891,4.891,0,0,1,4.891,4.889Z" fill="none" stroke="#cad6e1" stroke-width="5"/>
      </g>
    </g>
    <g id="Grupo_5208" data-name="Grupo 5208" transform="translate(6.407 5.506)" clip-path="url(#clip-path-2)">
      <path id="Caminho_15469" data-name="Caminho 15469" d="M265-176h9.788v9.788H265Z" transform="translate(-268.059 172.941)" fill="#cad6e1"/>
    </g>
    <g id="Grupo_5209" data-name="Grupo 5209" transform="translate(12.526 5.506)" clip-path="url(#clip-path-3)">
      <path id="Caminho_15471" data-name="Caminho 15471" d="M275-176h9.788v9.788H275Z" transform="translate(-278.059 172.941)" fill="#cad6e1"/>
    </g>
    <g id="Grupo_5210" data-name="Grupo 5210" transform="translate(18.643 5.506)" clip-path="url(#clip-path-4)">
      <path id="Caminho_15473" data-name="Caminho 15473" d="M285-176h9.788v9.788H285Z" transform="translate(-288.059 172.941)" fill="#cad6e1"/>
    </g>
    <g id="Grupo_5215" data-name="Grupo 5215" transform="translate(0.358 12.848)" clip-path="url(#clip-path-5)">
      <g id="Grupo_5214" data-name="Grupo 5214" transform="translate(122.355 227.884) rotate(180)">
        <path id="Caminho_15478" data-name="Caminho 15478" d="M122.355,222.988v4.9H0V4.9A4.893,4.893,0,0,1,4.891,0H117.464a4.894,4.894,0,0,1,4.891,4.9Z" fill="#fff" stroke="#cad6e1" stroke-width="5"/>
      </g>
    </g>
    <g id="Grupo_5216" data-name="Grupo 5216" transform="translate(28.431 99.107)" clip-path="url(#clip-path-6)">
      <path id="Caminho_15480" data-name="Caminho 15480" d="M301-23h42.824v8.565H301Z" transform="translate(-304.059 19.941)" fill="#cad6e1"/>
    </g>
    <g id="Grupo_5217" data-name="Grupo 5217" transform="translate(68.197 99.107)" clip-path="url(#clip-path-7)">
      <path id="Caminho_15482" data-name="Caminho 15482" d="M366-23h32.424v8.565H366Z" transform="translate(-369.059 19.941)" fill="#cad6e1"/>
    </g>
    <g id="Grupo_5234" data-name="Grupo 5234" transform="translate(8.242 31.2)">
      <path id="Caminho_15484" data-name="Caminho 15484" d="M273-127.169A1.834,1.834,0,0,1,274.836-129H378.225a1.833,1.833,0,0,1,1.836,1.831v57.516a1.834,1.834,0,0,1-1.836,1.831H274.836A1.833,1.833,0,0,1,273-69.653Z" transform="translate(-273 129)" fill="#0f7bff"/>
    </g>
    <g id="Grupo_5221" data-name="Grupo 5221" transform="translate(8.242 31.2)" clip-path="url(#clip-path-8)">
      <g id="Grupo_5220" data-name="Grupo 5220" transform="translate(0 0)">
        <path id="Caminho_15487" data-name="Caminho 15487" d="M0,1.831A1.834,1.834,0,0,1,1.836,0H105.225a1.833,1.833,0,0,1,1.836,1.831V59.347a1.834,1.834,0,0,1-1.836,1.831H1.836A1.833,1.833,0,0,1,0,59.347Z" transform="translate(0 0)" fill="none" stroke="#003168" stroke-width="5"/>
      </g>
    </g>
    <g id="Grupo_5224" data-name="Grupo 5224" transform="translate(40.815 47.718)" clip-path="url(#clip-path-9)">
      <path id="Caminho_15489" data-name="Caminho 15489" d="M183.727-83.3,194.6-97.454a2.232,2.232,0,0,1,3.731,0l15.54,20.227c1.03,1.341.494,2.428-1.191,2.428H166.8c-1.691,0-2.2-1.058-1.133-2.367l9.6-11.785a2.386,2.386,0,0,1,3.857,0Zm-3.473-12.911a4.894,4.894,0,0,1-4.894-4.894A4.894,4.894,0,0,1,180.254-106a4.894,4.894,0,0,1,4.894,4.894A4.894,4.894,0,0,1,180.254-96.212Z" transform="translate(-263.684 103.553)" fill="#fff" fill-rule="evenodd"/>
    </g>
    <g id="Grupo_5226" data-name="Grupo 5226" transform="translate(25.83 32.118)" clip-path="url(#clip-path-10)">
      <g id="Grupo_5225" data-name="Grupo 5225" transform="translate(13.15 13.153)" clip-path="url(#clip-path-11)">
        <path id="Caminho_15491" data-name="Caminho 15491" d="M341.861-83.3l10.874-14.153a2.232,2.232,0,0,1,3.731,0l15.54,20.227c1.03,1.341.494,2.428-1.191,2.428H324.931c-1.691,0-2.2-1.058-1.133-2.367l9.6-11.785a2.386,2.386,0,0,1,3.857,0Zm-3.473-12.911a4.894,4.894,0,0,1-4.894-4.894A4.894,4.894,0,0,1,338.388-106a4.894,4.894,0,0,1,4.894,4.894A4.894,4.894,0,0,1,338.388-96.212Z" transform="translate(-323.241 106)" fill="#7eb6f6"/>
      </g>
    </g>
    <g id="Grupo_5228" data-name="Grupo 5228" transform="translate(38.979 45.272)" clip-path="url(#clip-path-11)">
      <g id="Grupo_5227" data-name="Grupo 5227" transform="translate(0)">
        <path id="Caminho_15494" data-name="Caminho 15494" d="M18.62,22.7,29.494,8.546a2.232,2.232,0,0,1,3.731,0l15.54,20.227c1.03,1.341.494,2.428-1.191,2.428H1.691C0,31.2-.508,30.142.558,28.834l9.6-11.785a2.386,2.386,0,0,1,3.857,0ZM15.147,9.788a4.894,4.894,0,1,1,4.894-4.894A4.894,4.894,0,0,1,15.147,9.788Z" transform="translate(0)" fill="none" stroke="#01306a" stroke-width="5"/>
      </g>
    </g>
    <g id="Grupo_5229" data-name="Grupo 5229" transform="translate(8.242 20.801)" clip-path="url(#clip-path-13)">
      <path id="Caminho_15496" data-name="Caminho 15496" d="M268-151h15.294v8.565H268Z" transform="translate(-271.059 147.941)" fill="#003168"/>
    </g>
    <g id="Grupo_5230" data-name="Grupo 5230" transform="translate(72.479 20.801)" clip-path="url(#clip-path-14)">
      <path id="Caminho_15498" data-name="Caminho 15498" d="M373-151h48.33v8.565H373Z" transform="translate(-376.059 147.941)" fill="#003168"/>
    </g>
    <g id="Grupo_5369" data-name="Grupo 5369" transform="translate(18.358 189.994)">
      <g id="Grupo_5314" data-name="Grupo 5314" clip-path="url(#clip-path-15)">
        <path id="Caminho_15611" data-name="Caminho 15611" d="M-5-128H11.835v7.365H-5Z" transform="translate(2.369 125.369)" fill="#cad6e1"/>
      </g>
      <g id="Grupo_5315" data-name="Grupo 5315" transform="translate(0 7.365)" clip-path="url(#clip-path-16)">
        <path id="Caminho_15613" data-name="Caminho 15613" d="M-5-114H12.888v7.365H-5Z" transform="translate(2.369 111.369)" fill="#cad6e1"/>
      </g>
      <g id="Grupo_5316" data-name="Grupo 5316" transform="translate(0 12.627)" clip-path="url(#clip-path-17)">
        <path id="Caminho_15615" data-name="Caminho 15615" d="M-5-104H16.044v7.365H-5Z" transform="translate(2.369 101.369)" fill="#cad6e1"/>
      </g>
      <g id="Grupo_5317" data-name="Grupo 5317" transform="translate(0 17.888)" clip-path="url(#clip-path-18)">
        <path id="Caminho_15617" data-name="Caminho 15617" d="M-5-94H12.888v7.365H-5Z" transform="translate(2.369 91.369)" fill="#cad6e1"/>
      </g>
      <g id="Grupo_5319" data-name="Grupo 5319" transform="translate(23.675)" clip-path="url(#clip-path-19)">
        <path id="Caminho_15621" data-name="Caminho 15621" d="M40-128H58.414v7.365H40Z" transform="translate(-42.631 125.369)" fill="#cad6e1"/>
      </g>
      <g id="Grupo_5320" data-name="Grupo 5320" transform="translate(23.675 7.365)" clip-path="url(#clip-path-20)">
        <path id="Caminho_15623" data-name="Caminho 15623" d="M40-114H59.992v7.365H40Z" transform="translate(-42.631 111.369)" fill="#cad6e1"/>
      </g>
      <g id="Grupo_5321" data-name="Grupo 5321" transform="translate(23.675 12.627)" clip-path="url(#clip-path-21)">
        <path id="Caminho_15625" data-name="Caminho 15625" d="M40-104H61.044v7.365H40Z" transform="translate(-42.631 101.369)" fill="#cad6e1"/>
      </g>
      <g id="Grupo_5322" data-name="Grupo 5322" transform="translate(23.675 17.888)" clip-path="url(#clip-path-22)">
        <path id="Caminho_15627" data-name="Caminho 15627" d="M40-94H59.992v7.365H40Z" transform="translate(-42.631 91.369)" fill="#cad6e1"/>
      </g>
      <g id="Grupo_5326" data-name="Grupo 5326" transform="translate(47.35)" clip-path="url(#clip-path-23)">
        <path id="Caminho_15635" data-name="Caminho 15635" d="M85-128h16.835v7.365H85Z" transform="translate(-87.631 125.369)" fill="#cad6e1"/>
      </g>
      <g id="Grupo_5327" data-name="Grupo 5327" transform="translate(47.35 7.365)" clip-path="url(#clip-path-24)">
        <path id="Caminho_15637" data-name="Caminho 15637" d="M85-114h17.888v7.365H85Z" transform="translate(-87.631 111.369)" fill="#cad6e1"/>
      </g>
      <g id="Grupo_5328" data-name="Grupo 5328" transform="translate(47.35 12.627)" clip-path="url(#clip-path-25)">
        <path id="Caminho_15639" data-name="Caminho 15639" d="M85-104h21.044v7.365H85Z" transform="translate(-87.631 101.369)" fill="#cad6e1"/>
      </g>
      <g id="Grupo_5329" data-name="Grupo 5329" transform="translate(47.35 17.888)" clip-path="url(#clip-path-26)">
        <path id="Caminho_15641" data-name="Caminho 15641" d="M85-94h17.888v7.365H85Z" transform="translate(-87.631 91.369)" fill="#cad6e1"/>
      </g>
      <g id="Grupo_5331" data-name="Grupo 5331" transform="translate(71.024)" clip-path="url(#clip-path-27)">
        <path id="Caminho_15645" data-name="Caminho 15645" d="M130-128h17.046v7.365H130Z" transform="translate(-132.631 125.369)" fill="#cad6e1"/>
      </g>
      <g id="Grupo_5332" data-name="Grupo 5332" transform="translate(71.024 7.365)" clip-path="url(#clip-path-28)">
        <path id="Caminho_15647" data-name="Caminho 15647" d="M130-114h21.044v7.365H130Z" transform="translate(-132.631 111.369)" fill="#cad6e1"/>
      </g>
      <g id="Grupo_5333" data-name="Grupo 5333" transform="translate(71.024 12.627)" clip-path="url(#clip-path-29)">
        <path id="Caminho_15649" data-name="Caminho 15649" d="M130-104h19.992v7.365H130Z" transform="translate(-132.631 101.369)" fill="#cad6e1"/>
      </g>
      <g id="Grupo_5334" data-name="Grupo 5334" transform="translate(71.024 17.888)" clip-path="url(#clip-path-30)">
        <path id="Caminho_15651" data-name="Caminho 15651" d="M130-94h17.888v7.365H130Z" transform="translate(-132.631 91.369)" fill="#cad6e1"/>
      </g>
      <g id="Grupo_5340" data-name="Grupo 5340" transform="translate(41.036 31.241)" clip-path="url(#clip-path-31)">
        <g id="Grupo_5339" data-name="Grupo 5339" transform="translate(0 0)">
          <path id="Caminho_15660" data-name="Caminho 15660" d="M0,3.683A3.684,3.684,0,0,1,3.681,0H30.514V7.365H3.681A3.684,3.684,0,0,1,0,3.683Z" fill="#edf0f3" stroke="#cad6e1" stroke-width="2"/>
        </g>
      </g>
      <g id="Grupo_5347" data-name="Grupo 5347" transform="translate(69.972 31.241)" clip-path="url(#clip-path-32)">
        <g id="Grupo_5346" data-name="Grupo 5346" transform="translate(0 0)">
          <path id="Caminho_15667" data-name="Caminho 15667" d="M0,0H13.151a3.686,3.686,0,0,1,3.684,3.683h0a3.681,3.681,0,0,1-3.684,3.683H0Z" fill="#01306a" stroke="#01306a" stroke-width="3"/>
        </g>
      </g>
      <g id="Grupo_5354" data-name="Grupo 5354" transform="translate(0 31.241)" clip-path="url(#clip-path-33)">
        <g id="Grupo_5353" data-name="Grupo 5353" transform="translate(0 0)">
          <path id="Caminho_15674" data-name="Caminho 15674" d="M3.683,7.365A3.683,3.683,0,1,0,0,3.683,3.683,3.683,0,0,0,3.683,7.365Z" fill="#bbc8d5" stroke="#bbc8d5" stroke-width="6"/>
        </g>
      </g>
      <g id="Grupo_5361" data-name="Grupo 5361" transform="translate(10.522 31.241)" clip-path="url(#clip-path-34)">
        <g id="Grupo_5360" data-name="Grupo 5360" transform="translate(0 0)">
          <path id="Caminho_15681" data-name="Caminho 15681" d="M3.683,7.365A3.683,3.683,0,1,0,0,3.683,3.683,3.683,0,0,0,3.683,7.365Z" fill="#bbc8d5" stroke="#bbc8d5" stroke-width="6"/>
        </g>
      </g>
      <g id="Grupo_5368" data-name="Grupo 5368" transform="translate(21.044 31.241)" clip-path="url(#clip-path-35)">
        <g id="Grupo_5367" data-name="Grupo 5367" transform="translate(0 0)">
          <path id="Caminho_15688" data-name="Caminho 15688" d="M3.683,7.365A3.683,3.683,0,1,0,0,3.683,3.683,3.683,0,0,0,3.683,7.365Z" fill="#bbc8d5" stroke="#bbc8d5" stroke-width="6"/>
        </g>
      </g>
    </g>
  </g>
  <g id="Grupo_5271" data-name="Grupo 5271" transform="translate(95 33.574)">
    <g transform="matrix(1, 0, 0, 1, -95, -33.57)" filter="url(#Ret창ngulo_1131)">
      <rect id="Ret창ngulo_1131-2" data-name="Ret창ngulo 1131" width="96.795" height="144.947" transform="translate(95 33.57)" fill="#fff"/>
    </g>
    <g id="Grupo_5313" data-name="Grupo 5313" transform="translate(11.001 9.351)">
      <g id="Grupo_5246" data-name="Grupo 5246" transform="translate(26.676 48.685)" clip-path="url(#clip-path-36)">
        <g id="Grupo_5245" data-name="Grupo 5245" transform="translate(0 0)">
          <path id="Caminho_15514" data-name="Caminho 15514" d="M0,3.458A3.456,3.456,0,0,1,3.456,0H18.279a3.459,3.459,0,0,1,3.456,3.458h0a3.456,3.456,0,0,1-3.456,3.458H3.456A3.459,3.459,0,0,1,0,3.458Z" fill="#01306a" stroke="#01306a" stroke-width="6"/>
        </g>
      </g>
      <g id="Grupo_5247" data-name="Grupo 5247" transform="translate(63.285 37.049)" clip-path="url(#clip-path-37)">
        <path id="Caminho_15516" data-name="Caminho 15516" d="M123.116-52h12.649v6.916H123.116Z" transform="translate(-125.586 49.53)" fill="#cad6e1"/>
      </g>
      <g id="Grupo_5248" data-name="Grupo 5248" transform="translate(59.277 32.109)" clip-path="url(#clip-path-38)">
        <path id="Caminho_15518" data-name="Caminho 15518" d="M115-62h20.359v6.916H115Z" transform="translate(-117.47 59.53)" fill="#cad6e1"/>
      </g>
      <g id="Grupo_5249" data-name="Grupo 5249" transform="translate(60.203 27.169)" clip-path="url(#clip-path-39)">
        <path id="Caminho_15520" data-name="Caminho 15520" d="M116.873-72h18.646v6.916H116.873Z" transform="translate(-119.343 69.53)" fill="#cad6e1"/>
      </g>
      <g id="Grupo_5250" data-name="Grupo 5250" transform="translate(59.277 22.229)" clip-path="url(#clip-path-40)">
        <path id="Caminho_15522" data-name="Caminho 15522" d="M115-82h20.359v6.916H115Z" transform="translate(-117.47 79.53)" fill="#cad6e1"/>
      </g>
      <g id="Grupo_5254" data-name="Grupo 5254" transform="translate(58.289)" clip-path="url(#clip-path-41)">
        <g id="Grupo_5253" data-name="Grupo 5253">
          <path id="Caminho_15527" data-name="Caminho 15527" d="M8.645,17.289A8.645,8.645,0,1,0,0,8.645,8.645,8.645,0,0,0,8.645,17.289Z" fill="#217be4" stroke="#003168" stroke-width="6"/>
        </g>
      </g>
      <g id="Grupo_5255" data-name="Grupo 5255" transform="translate(34.084 37.049)" clip-path="url(#clip-path-42)">
        <path id="Caminho_15529" data-name="Caminho 15529" d="M64-52H76.649v6.916H64Z" transform="translate(-66.47 49.53)" fill="#cad6e1"/>
      </g>
      <g id="Grupo_5256" data-name="Grupo 5256" transform="translate(33.096 32.109)" clip-path="url(#clip-path-43)">
        <path id="Caminho_15531" data-name="Caminho 15531" d="M62-62H76.819v6.916H62Z" transform="translate(-64.47 59.53)" fill="#cad6e1"/>
      </g>
      <g id="Grupo_5257" data-name="Grupo 5257" transform="translate(31.12 27.169)" clip-path="url(#clip-path-44)">
        <path id="Caminho_15533" data-name="Caminho 15533" d="M58-72H76.646v6.916H58Z" transform="translate(-60.47 69.53)" fill="#cad6e1"/>
      </g>
      <g id="Grupo_5258" data-name="Grupo 5258" transform="translate(30.133 22.229)" clip-path="url(#clip-path-45)">
        <path id="Caminho_15535" data-name="Caminho 15535" d="M56-82H76.359v6.916H56Z" transform="translate(-58.47 79.53)" fill="#cad6e1"/>
      </g>
      <g id="Grupo_5262" data-name="Grupo 5262" transform="translate(29.146)" clip-path="url(#clip-path-46)">
        <g id="Grupo_5261" data-name="Grupo 5261">
          <path id="Caminho_15540" data-name="Caminho 15540" d="M8.645,17.289A8.645,8.645,0,1,0,0,8.645,8.645,8.645,0,0,0,8.645,17.289Z" fill="#217be4" stroke="#003168" stroke-width="6"/>
        </g>
      </g>
      <g id="Grupo_5263" data-name="Grupo 5263" transform="translate(4.998 37.049)" clip-path="url(#clip-path-47)">
        <path id="Caminho_15542" data-name="Caminho 15542" d="M5.116-52H17.765v6.916H5.116Z" transform="translate(-7.586 49.53)" fill="#cad6e1"/>
      </g>
      <g id="Grupo_5264" data-name="Grupo 5264" transform="translate(0.987 32.109)" clip-path="url(#clip-path-48)">
        <path id="Caminho_15544" data-name="Caminho 15544" d="M-3-62H17.359v6.916H-3Z" transform="translate(0.53 59.53)" fill="#cad6e1"/>
      </g>
      <g id="Grupo_5265" data-name="Grupo 5265" transform="translate(1.913 27.169)" clip-path="url(#clip-path-49)">
        <path id="Caminho_15546" data-name="Caminho 15546" d="M-1.127-72H17.519v6.916H-1.127Z" transform="translate(-1.343 69.53)" fill="#cad6e1"/>
      </g>
      <g id="Grupo_5266" data-name="Grupo 5266" transform="translate(0.987 22.229)" clip-path="url(#clip-path-50)">
        <path id="Caminho_15548" data-name="Caminho 15548" d="M-3-82H17.359v6.916H-3Z" transform="translate(0.53 79.53)" fill="#cad6e1"/>
      </g>
      <g id="Grupo_5270" data-name="Grupo 5270" clip-path="url(#clip-path-51)">
        <g id="Grupo_5269" data-name="Grupo 5269">
          <path id="Caminho_15553" data-name="Caminho 15553" d="M8.645,17.289A8.645,8.645,0,1,0,0,8.645,8.645,8.645,0,0,0,8.645,17.289Z" fill="#217be4" stroke="#003168" stroke-width="6"/>
        </g>
      </g>
    </g>
    <g id="Grupo_5286" data-name="Grupo 5286" transform="translate(15.001 76.276)">
      <g id="Grupo_5278" data-name="Grupo 5278" transform="translate(44.281 10.744)" clip-path="url(#clip-path-52)">
        <g id="Grupo_5277" data-name="Grupo 5277" transform="translate(0)">
          <path id="Caminho_15560" data-name="Caminho 15560" d="M0,3.657A3.655,3.655,0,0,1,3.659,0H18.8a3.66,3.66,0,0,1,3.659,3.657h0A3.655,3.655,0,0,1,18.8,7.313H3.659A3.66,3.66,0,0,1,0,3.657Z" fill="#01306a" stroke="#01306a" stroke-width="6"/>
        </g>
      </g>
      <g id="Grupo_5282" data-name="Grupo 5282" transform="translate(0 10.744)" clip-path="url(#clip-path-53)">
        <g id="Grupo_5281" data-name="Grupo 5281">
          <path id="Caminho_15565" data-name="Caminho 15565" d="M0,1.569A1.454,1.454,0,0,1,1.31,0H38.747a1.456,1.456,0,0,1,1.31,1.569V5.744a1.454,1.454,0,0,1-1.31,1.569H1.31A1.456,1.456,0,0,1,0,5.744Z" fill="none" stroke="#cad6e1" stroke-width="3"/>
        </g>
      </g>
      <g id="Grupo_5283" data-name="Grupo 5283" transform="translate(21.735)" clip-path="url(#clip-path-54)">
        <path id="Caminho_15567" data-name="Caminho 15567" d="M47-77H73.118v7.313H47Z" transform="translate(-49.612 74.388)" fill="#0b1119"/>
      </g>
    </g>
    <g id="Grupo_5312" data-name="Grupo 5312" transform="translate(19.676 104.879)">
      <g id="Grupo_5288" data-name="Grupo 5288" transform="translate(12.097 5.242)" clip-path="url(#clip-path-55)">
        <path id="Caminho_15575" data-name="Caminho 15575" d="M25-102H69.261v5.645H25Z" transform="translate(-27.016 99.984)" fill="#cad6e1"/>
      </g>
      <g id="Grupo_5289" data-name="Grupo 5289" transform="translate(12.097 1.21)" clip-path="url(#clip-path-56)">
        <path id="Caminho_15577" data-name="Caminho 15577" d="M25-112H75.405v5.645H25Z" transform="translate(-27.016 109.984)" fill="#cad6e1"/>
      </g>
      <g id="Grupo_5293" data-name="Grupo 5293" clip-path="url(#clip-path-57)">
        <g id="Grupo_5292" data-name="Grupo 5292">
          <path id="Caminho_15582" data-name="Caminho 15582" d="M4.032,8.065A4.032,4.032,0,1,0,0,4.032,4.032,4.032,0,0,0,4.032,8.065Z" fill="#217be4" stroke="#003168" stroke-width="3"/>
        </g>
      </g>
      <g id="Grupo_5294" data-name="Grupo 5294" transform="translate(12.097 17.339)" clip-path="url(#clip-path-58)">
        <path id="Caminho_15584" data-name="Caminho 15584" d="M25-72H71.776v5.645H25Z" transform="translate(-27.016 69.984)" fill="#cad6e1"/>
      </g>
      <g id="Grupo_5295" data-name="Grupo 5295" transform="translate(12.097 13.307)" clip-path="url(#clip-path-59)">
        <path id="Caminho_15586" data-name="Caminho 15586" d="M25-82H67.34v5.645H25Z" transform="translate(-27.016 79.984)" fill="#cad6e1"/>
      </g>
      <g id="Grupo_5299" data-name="Grupo 5299" transform="translate(0 12.097)" clip-path="url(#clip-path-60)">
        <g id="Grupo_5298" data-name="Grupo 5298" transform="translate(0 0)">
          <path id="Caminho_15591" data-name="Caminho 15591" d="M4.032,8.065A4.032,4.032,0,1,0,0,4.032,4.032,4.032,0,0,0,4.032,8.065Z" fill="#217be4" stroke="#003168" stroke-width="3"/>
        </g>
      </g>
      <g id="Grupo_5300" data-name="Grupo 5300" transform="translate(12.097 29.437)" clip-path="url(#clip-path-61)">
        <path id="Caminho_15593" data-name="Caminho 15593" d="M25-42H64.448v5.645H25Z" transform="translate(-27.016 39.984)" fill="#cad6e1"/>
      </g>
      <g id="Grupo_5301" data-name="Grupo 5301" transform="translate(12.097 25.404)" clip-path="url(#clip-path-62)">
        <path id="Caminho_15595" data-name="Caminho 15595" d="M25-52H72.676v5.645H25Z" transform="translate(-27.016 49.984)" fill="#cad6e1"/>
      </g>
      <g id="Grupo_5305" data-name="Grupo 5305" transform="translate(0 24.195)" clip-path="url(#clip-path-63)">
        <g id="Grupo_5304" data-name="Grupo 5304" transform="translate(0 0)">
          <path id="Caminho_15600" data-name="Caminho 15600" d="M4.032,8.065A4.032,4.032,0,1,0,0,4.032,4.032,4.032,0,0,0,4.032,8.065Z" fill="#217be4" stroke="#003168" stroke-width="3"/>
        </g>
      </g>
    </g>
  </g>
</svg>
