<svg id="Grupo_5174" data-name="Grupo 5174" xmlns="http://www.w3.org/2000/svg" width="436.859" height="346.216" viewBox="0 0 436.859 346.216">
  <g id="Grupo_5124" data-name="Grupo 5124" transform="translate(309.666 88.451)">
    <g id="Grupo_5123" data-name="Grupo 5123">
      <path id="Caminho_14349" data-name="Caminho 14349" d="M3532.409,478.809l13.553-.012a4.968,4.968,0,0,0,4.963-4.971l-.014-17.286a4.968,4.968,0,0,0-4.974-4.961l-10.6.008a4.173,4.173,0,0,1-3.884-2.776q-.562-1.485-1.22-2.931a4.175,4.175,0,0,1,.777-4.716l7.5-7.5a4.968,4.968,0,0,0,0-7.026l-12.228-12.217a4.967,4.967,0,0,0-7.025,0l-7.556,7.561a4.1,4.1,0,0,1-4.523.868c-1.08-.461-2.244-.929-3.248-1.319a4.084,4.084,0,0,1-2.6-3.815V407a4.969,4.969,0,0,0-4.968-4.968h-17.283A4.969,4.969,0,0,0,3474.1,407v10.609a4.172,4.172,0,0,1-2.776,3.878q-1.557.587-3.072,1.281a4.166,4.166,0,0,1-4.714-.761l-7.528-7.483a4.964,4.964,0,0,0-7.023.018L3436.8,426.8a4.968,4.968,0,0,0,.022,7.025l7.582,7.539a4.1,4.1,0,0,1,.878,4.523c-.458,1.078-.922,2.242-1.31,3.248a4.084,4.084,0,0,1-3.809,2.605l-10.719.028a4.966,4.966,0,0,0-4.954,4.978l.042,17.286a4.969,4.969,0,0,0,4.981,4.956l10.61-.028a4.184,4.184,0,0,1,3.889,2.771q.562,1.483,1.221,2.927a4.177,4.177,0,0,1-.766,4.717l-7.49,7.517a4.973,4.973,0,0,0,.014,7.027l12.249,12.2a4.965,4.965,0,0,0,7.024-.014l7.547-7.576a4.1,4.1,0,0,1,4.522-.874c1.077.459,2.243.923,3.246,1.313a4.085,4.085,0,0,1,2.6,3.813l.016,10.715a4.965,4.965,0,0,0,4.977,4.959l17.283-.027a4.967,4.967,0,0,0,4.959-4.975l-.016-10.608a4.178,4.178,0,0,1,2.772-3.887q1.485-.558,2.93-1.219a4.175,4.175,0,0,1,4.714.771l7.513,7.5a4.967,4.967,0,0,0,7.025-.009l12.207-12.237a4.968,4.968,0,0,0-.009-7.026l-7.569-7.549a4.105,4.105,0,0,1-.87-4.522C3531.219,482.069,3532.353,478.991,3532.409,478.809Zm-68.787-17.985a24.493,24.493,0,1,1,15.252,27.248A24.495,24.495,0,0,1,3463.622,460.824Z" transform="translate(-3424.491 -402.032)" fill="#e3edfe"/>
    </g>
  </g>
  <g id="Grupo_5126" data-name="Grupo 5126" transform="translate(2.882 143.801)">
    <g id="Grupo_5125" data-name="Grupo 5125">
      <path id="Caminho_14350" data-name="Caminho 14350" d="M2763.637,617.511l13.553-.012a4.969,4.969,0,0,0,4.963-4.971l-.014-17.286a4.968,4.968,0,0,0-4.974-4.962l-10.6.008a4.172,4.172,0,0,1-3.885-2.776q-.562-1.485-1.219-2.931a4.175,4.175,0,0,1,.777-4.716l7.5-7.5a4.968,4.968,0,0,0,0-7.026L2757.5,553.119a4.967,4.967,0,0,0-7.025,0l-7.556,7.561a4.1,4.1,0,0,1-4.523.868c-1.079-.46-2.243-.928-3.247-1.319a4.083,4.083,0,0,1-2.6-3.815V545.7a4.969,4.969,0,0,0-4.968-4.968H2710.3a4.969,4.969,0,0,0-4.969,4.968v10.609a4.172,4.172,0,0,1-2.776,3.878q-1.557.587-3.072,1.281a4.165,4.165,0,0,1-4.714-.762l-7.528-7.483a4.964,4.964,0,0,0-7.023.018L2668.03,565.5a4.968,4.968,0,0,0,.022,7.025l7.582,7.539a4.1,4.1,0,0,1,.878,4.523c-.458,1.079-.922,2.243-1.311,3.248a4.084,4.084,0,0,1-3.809,2.605l-10.719.028a4.966,4.966,0,0,0-4.954,4.978l.042,17.286a4.969,4.969,0,0,0,4.981,4.955l10.609-.028a4.184,4.184,0,0,1,3.89,2.771q.562,1.483,1.221,2.927a4.178,4.178,0,0,1-.766,4.717l-7.49,7.517a4.973,4.973,0,0,0,.014,7.027l12.249,12.2a4.966,4.966,0,0,0,7.024-.014l7.547-7.576a4.1,4.1,0,0,1,4.522-.874c1.077.459,2.243.923,3.247,1.313a4.085,4.085,0,0,1,2.6,3.813l.016,10.715a4.965,4.965,0,0,0,4.977,4.959l17.283-.028a4.966,4.966,0,0,0,4.959-4.975l-.016-10.608a4.179,4.179,0,0,1,2.772-3.887q1.485-.558,2.93-1.22a4.176,4.176,0,0,1,4.715.771l7.513,7.5a4.968,4.968,0,0,0,7.025-.009l12.207-12.237a4.968,4.968,0,0,0-.009-7.026l-7.569-7.549a4.107,4.107,0,0,1-.87-4.523C2762.447,620.771,2763.581,617.693,2763.637,617.511Zm-68.787-17.985a24.493,24.493,0,1,1,15.252,27.248A24.5,24.5,0,0,1,2694.85,599.526Z" transform="translate(-2655.719 -540.734)" fill="#e3edfe"/>
    </g>
  </g>
  <g id="Grupo_5130" data-name="Grupo 5130" transform="translate(126.432 29.816)">
    <path id="Retângulo_1105" data-name="Retângulo 1105" d="M20,0H206.289a20,20,0,0,1,20,20V316.3a0,0,0,0,1,0,0H0a0,0,0,0,1,0,0V20A20,20,0,0,1,20,0Z" transform="translate(0.614 0.101)" fill="#eef4fe"/>
    <path id="Caminho_14351" data-name="Caminho 14351" d="M3180.563,255.1H2989.919c-15.077.1-23.056,8.08-23.056,17.923v9h226.289v-9C3193.152,263.178,3185.172,255.2,3180.563,255.1Z" transform="translate(-2966.249 -255.098)" fill="#b3cdfa"/>
    <circle id="Elipse_249" data-name="Elipse 249" cx="3.019" cy="3.019" r="3.019" transform="translate(22.606 11.404)" fill="#fff"/>
    <circle id="Elipse_250" data-name="Elipse 250" cx="3.019" cy="3.019" r="3.019" transform="translate(34.488 11.404)" fill="#fff"/>
    <circle id="Elipse_251" data-name="Elipse 251" cx="3.019" cy="3.019" r="3.019" transform="translate(46.37 11.404)" fill="#fff"/>
    <rect id="Retângulo_1106" data-name="Retângulo 1106" width="94.112" height="86.337" rx="20.659" transform="translate(19.17 135.907)" fill="#d1e1fc"/>
    <rect id="Retângulo_1107" data-name="Retângulo 1107" width="87.78" height="37.277" rx="11.685" transform="translate(121.567 135.907)" fill="#d1e1fc"/>
    <rect id="Retângulo_1108" data-name="Retângulo 1108" width="189" height="80.261" rx="11.685" transform="translate(20.347 44.993)" fill="#d1e1fc"/>
    <rect id="Retângulo_1109" data-name="Retângulo 1109" width="87.78" height="41.496" rx="11.685" transform="translate(121.567 180.748)" fill="#d1e1fc"/>
    <rect id="Retângulo_1110" data-name="Retângulo 1110" width="132.595" height="6.038" transform="translate(60.78 11.404)" fill="#d1e1fc"/>
    <g id="Grupo_5127" data-name="Grupo 5127" transform="translate(226.289 43.758)">
      <path id="Caminho_14352" data-name="Caminho 14352" d="M3533,635.144a.614.614,0,0,1-.613-.613V365.365a.613.613,0,0,1,1.227,0V634.531A.614.614,0,0,1,3533,635.144Z" transform="translate(-3532.384 -364.752)" fill="#4361ee"/>
    </g>
    <g id="Grupo_5128" data-name="Grupo 5128" transform="translate(0 29.973)">
      <path id="Caminho_14353" data-name="Caminho 14353" d="M2965.938,340.326a4.377,4.377,0,0,1-.614-.022V330.229a8.585,8.585,0,0,1,1.227,0V340.3A4.372,4.372,0,0,1,2965.938,340.326Z" transform="translate(-2965.325 -330.207)" fill="#4361ee"/>
    </g>
    <g id="Grupo_5129" data-name="Grupo 5129" transform="translate(0 125.254)">
      <path id="Caminho_14354" data-name="Caminho 14354" d="M2965.938,725.37c-.339,0-.614-.15-.614-.334V569.307c0-.184.275-.334.614-.334s.613.15.613.334V725.036C2966.552,725.22,2966.277,725.37,2965.938,725.37Z" transform="translate(-2965.325 -568.973)" fill="#4361ee"/>
    </g>
    <circle id="Elipse_252" data-name="Elipse 252" cx="11.325" cy="11.325" r="11.325" transform="translate(153.005 77.669) rotate(-76.717)" fill="#a7c1ee"/>
    <path id="Caminho_14355" data-name="Caminho 14355" d="M3036.165,417.73a39.966,39.966,0,0,0-19.852,5.245v50.447a4.663,4.663,0,0,0,4.663,4.663h49.89a40.156,40.156,0,0,0-34.7-60.355Z" transform="translate(-2995.966 -352.831)" fill="#a7c1ee"/>
    <path id="Caminho_14356" data-name="Caminho 14356" d="M3149.232,458.178a40.15,40.15,0,0,0-40.15,40.15,40.631,40.631,0,0,0,.2,4.063h79.893a40.631,40.631,0,0,0,.2-4.063A40.15,40.15,0,0,0,3149.232,458.178Z" transform="translate(-3051.715 -377.137)" fill="#a7c1ee"/>
    <path id="Caminho_14357" data-name="Caminho 14357" d="M3249.64,516.578v20.909h91.227a4.663,4.663,0,0,0,4.663-4.663V516.578Z" transform="translate(-3136.182 -412.233)" fill="#a7c1ee"/>
  </g>
  <circle id="Elipse_253" data-name="Elipse 253" cx="1.832" cy="1.832" r="1.832" transform="translate(108.244 63.016)" fill="#4361ee"/>
  <circle id="Elipse_254" data-name="Elipse 254" cx="3.038" cy="3.038" r="3.038" transform="translate(44.765 43.27)" fill="#4361ee"/>
  <circle id="Elipse_255" data-name="Elipse 255" cx="4.601" cy="4.601" r="4.601" transform="translate(87.358 19.006)" fill="#4361ee"/>
  <g id="Grupo_5132" data-name="Grupo 5132" transform="translate(245.204 143.886)">
    <circle id="Elipse_256" data-name="Elipse 256" cx="18.33" cy="18.33" r="18.33" transform="matrix(0.23, -0.973, 0.973, 0.23, 0, 35.679)" fill="#f72585"/>
    <g id="Grupo_5131" data-name="Grupo 5131" transform="translate(13.26 14.623)">
      <path id="Caminho_14358" data-name="Caminho 14358" d="M3302.552,592.446l-6.367-6.367,3.638-3.638,2.73,2.73,7.577-7.58,3.637,3.638Z" transform="translate(-3296.185 -577.59)" fill="#fff"/>
    </g>
  </g>
  <g id="Grupo_5145" data-name="Grupo 5145" transform="translate(172.067 191.036)">
    <path id="Caminho_14359" data-name="Caminho 14359" d="M3267.863,690.373c-5.191-9.205-21-26.425-33.066-17.9-6.02,4.254-9.054,13.514-7.144,20.486.618,2.253,1.791,4.317,2.5,6.543a16.713,16.713,0,0,1,.366,8.744c-2.367,10.356-13.865,16.385-17.179,26.477-2.706,8.237,1.051,17.816,7.994,23.01s16.442,6.268,24.8,3.977c6.872-1.882,15.04-4.754,18.835-11.139,6.753-11.36,8.091-25.081,8.314-38.295a47.9,47.9,0,0,0-.545-9.653A40.484,40.484,0,0,0,3267.863,690.373Z" transform="translate(-3159.472 -665.752)" fill="#111c3a"/>
    <path id="Caminho_14360" data-name="Caminho 14360" d="M3122.946,931.113l20.477-.667a5.17,5.17,0,0,0,4.276-2.526l10.553-17.761,27.129,16.12-13.516,22.71a23.237,23.237,0,0,1-21.331,11.313l-27.591-1.62Z" transform="translate(-3105.679 -809.972)" fill="#fba5a6"/>
    <path id="Caminho_14361" data-name="Caminho 14361" d="M3367.953,728.349c3.132,3.5,6.239,6.979,7.738,11.371,1.766,5.179.961,11.011-1.412,15.941a37.358,37.358,0,0,1-10.457,12.478,20.979,20.979,0,0,1-7.135,4.138c-8.019,2.336-20.37,1.226-22.919-8.59-.672-2.587.052-6.217.2-8.9a82.523,82.523,0,0,1,1.579-11.593c2.374-11.909,2.088-24.5,7.545-35.521,1.1-2.232,2.692-4.617,5.155-4.989,2.268-.342,4.4,1.2,5.876,2.958,3.6,4.3,4.84,10.088,7.707,14.913A51.4,51.4,0,0,0,3367.953,728.349Z" transform="translate(-3232.204 -685.266)" fill="#111c3a"/>
    <path id="Caminho_14362" data-name="Caminho 14362" d="M3304.884,910.306q-.386-1.789-.679-3.6a94.9,94.9,0,0,1-.759-16.078,95.8,95.8,0,0,0-.233-10.947q-.579-5.529-1.159-11.057-.916-8.741-1.833-17.482c-.244-2.325-.353-4.713-.736-7.021a29.124,29.124,0,0,0-28.368-24.35l-13.11-.163q-.5-.005-1,0l-12.878.04a28.954,28.954,0,0,0-25.989,18.679l-6.524,17.227,18.519,11.268,4.329,24.431.765,19Z" transform="translate(-3158.964 -755.556)" fill="#f72585"/>
    <path id="Caminho_14363" data-name="Caminho 14363" d="M3284.542,746.241c.355-.014.713-.034,1.069-.036,2.351-.02,4.7,0,7.052,0h14.944l3.766-28.63a5.271,5.271,0,0,0-5.1-5.957l-24.355-.566a4.727,4.727,0,0,0-4.837,4.726c-.2,1.933-.6,3.843-.7,5.787a12.438,12.438,0,0,0,.149,2.87,17.7,17.7,0,0,1,.638,2.755,7.287,7.287,0,0,1-.553,2.4,14.138,14.138,0,0,0,.03,9.637,17.251,17.251,0,0,0,1.568,2.882,9.938,9.938,0,0,0,3.776,3.769A5.3,5.3,0,0,0,3284.542,746.241Z" transform="translate(-3197.526 -690.321)" fill="#fba5a6"/>
    <path id="Caminho_14366" data-name="Caminho 14366" d="M3327.29,785.27h-21.339l3.154-33.963h16.018Z" transform="translate(-3215.656 -714.511)" fill="#fba5a6"/>
    <path id="Caminho_14367" data-name="Caminho 14367" d="M3291.7,839.628c4.227,0,34.431,1.695,38.068,1.158,0,0-1.269-9.654-12.222-16.386a29.036,29.036,0,0,0-15.388-4.625l-13.11-.163q-.5-.005-1,0l-12.878.04h0a28.907,28.907,0,0,0-11.9,3.061C3267.322,834.111,3278.491,839.628,3291.7,839.628Z" transform="translate(-3190.003 -755.556)" fill="#fba5a6"/>
    <path id="Caminho_14368" data-name="Caminho 14368" d="M3309.076,793.8c.065-.192,1.116-.2,1.311-.249a11.6,11.6,0,0,0,2.935-1.327c.758-.425,2.565-1.2,2.986-1.975q-.229.423-.478.834c-1.489,2.457-4.106,5.292-7.058,5.931q.089-.959.178-1.917a10.79,10.79,0,0,1,.117-1.26A.37.37,0,0,1,3309.076,793.8Z" transform="translate(-3217.351 -737.914)" fill="#111c3a"/>
    <path id="Caminho_14369" data-name="Caminho 14369" d="M3320.816,700.7c.7-2.177,1.81-4.15,1.938-6.444a42.616,42.616,0,0,0-4.024-20.632,25.771,25.771,0,0,0-17.359-13.748c-6.46-1.636-16.43-.806-21.611,3.676-6.45,5.578-6.583,15.167,2.105,18.8,6.019,2.517,15.616-3.032,17.213,6.408.448,2.645-.017,5.39.585,8.007.642,2.789,2.44,5.2,4.364,7.387,2.164,2.46,4.712,4.847,7.967,5.656,2.3.573,5.906.107,7.355-1.959C3320.623,706.034,3320.118,702.863,3320.816,700.7Z" transform="translate(-3197.123 -659.1)" fill="#111c3a"/>
    <ellipse id="Elipse_257" data-name="Elipse 257" cx="7.753" cy="5.873" rx="7.753" ry="5.873" transform="translate(96.604 43.087) rotate(-60)" fill="#fba5a6"/>
    <g id="Grupo_5133" data-name="Grupo 5133" transform="translate(103.163 33.446)">
      <path id="Caminho_14370" data-name="Caminho 14370" d="M3345.2,744.279a3.408,3.408,0,0,0-3.957-1.146,5.4,5.4,0,0,0-2.991,3.084.46.46,0,0,0,.159.608.447.447,0,0,0,.608-.159,4.765,4.765,0,0,1,2.294-2.611,2.559,2.559,0,0,1,3.119.672.458.458,0,0,0,.608.16.447.447,0,0,0,.16-.608Z" transform="translate(-3338.196 -742.913)" fill="#111c3a"/>
    </g>
    <g id="Grupo_5134" data-name="Grupo 5134" transform="translate(0.807 128.086)">
      <path id="Caminho_14371" data-name="Caminho 14371" d="M3081.876,981.075a7.337,7.337,0,0,0,4.495,1.568.592.592,0,0,0,0-1.185,6.082,6.082,0,0,1-3.657-1.22.612.612,0,0,0-.838,0,.6.6,0,0,0,0,.838Z" transform="translate(-3081.704 -980.071)" fill="#293241"/>
    </g>
    <g id="Grupo_5135" data-name="Grupo 5135" transform="translate(2.714 134.358)">
      <path id="Caminho_14372" data-name="Caminho 14372" d="M3086.767,996.88a10.555,10.555,0,0,0,3.562.922.6.6,0,0,0,.592-.592.607.607,0,0,0-.592-.593c-.138-.011-.276-.025-.414-.04q-.108-.014-.019,0l-.089-.013-.205-.033q-.4-.067-.784-.168t-.768-.233c-.131-.045-.261-.094-.389-.146,0,0-.172-.071-.078-.031-.073-.031-.145-.063-.217-.1a.607.607,0,0,0-.811.213.6.6,0,0,0,.213.81Z" transform="translate(-3086.481 -995.788)" fill="#293241"/>
    </g>
    <path id="Caminho_14373" data-name="Caminho 14373" d="M3314.458,958.131l-55.617,35.689,45.942-.159Z" transform="translate(-3187.346 -838.801)" fill="#111c3a"/>
    <path id="Caminho_14374" data-name="Caminho 14374" d="M3081.077,936.354a2.322,2.322,0,0,1,1.9.47c2.73,1.6,6.2,2.835,8.957,1.28,2.578-1.455,6.165-3.648,5.45-6.52,0,0-.727-7.812.345-6.532,1.627,1.943,2.509,5.385,3.794,7.8,1.42,2.671,3.424,4.786,6.145,5.323l57.574-1.877a5.17,5.17,0,0,0,4.276-2.526l10.553-17.76h0a64.5,64.5,0,0,0,22.421,15.083l4.3,1.723-13.108,22.024a23.238,23.238,0,0,1-21.331,11.313l-62-3.64v-.005c-.452-.048-8.756-1.212-12.662-2.8a77.115,77.115,0,0,1-12.155-6.234,6.342,6.342,0,0,1-2.577-2.458,13.249,13.249,0,0,1-.562-3.57c-.289-1.819-1.322-3.417-2.032-5.116s-1.064-3.763-.051-5.3A1.689,1.689,0,0,1,3081.077,936.354Z" transform="translate(-3079.68 -813.492)" fill="#fba5a6"/>
    <g id="Grupo_5136" data-name="Grupo 5136" transform="translate(68.953 104.377)">
      <path id="Caminho_14375" data-name="Caminho 14375" d="M3257.126,939.459a53.638,53.638,0,0,1-1.416-7.634q-.223-1.927-.324-3.867a19.191,19.191,0,0,0-.344-3.949,6.8,6.8,0,0,0-2.1-3.28c-.259-.23-.643.15-.382.382a6.361,6.361,0,0,1,1.894,2.8,15.245,15.245,0,0,1,.385,3.857,61.323,61.323,0,0,0,.858,7.672c.247,1.4.546,2.79.911,4.163a.27.27,0,0,0,.521-.144Z" transform="translate(-3252.47 -920.658)" fill="#fff"/>
    </g>
    <g id="Grupo_5137" data-name="Grupo 5137" transform="translate(41.908 98.157)">
      <path id="Caminho_14376" data-name="Caminho 14376" d="M3184.959,931.573l14.972-.48,14.972-.48,7.5-.24,3.682-.118a23.565,23.565,0,0,0,3.4-.206,4.344,4.344,0,0,0,2.532-1.4,16.469,16.469,0,0,0,1.734-2.629l3.806-6.4c2.436-4.1,4.918-8.189,6.937-12.516q.373-.8.724-1.611c.136-.316-.329-.591-.467-.273a110.451,110.451,0,0,1-6.64,12.41q-1.879,3.165-3.761,6.329c-.6,1.006-1.186,2.02-1.8,3.019a5.553,5.553,0,0,1-1.988,2.16,7.2,7.2,0,0,1-3.176.541l-3.682.118-7.306.234-14.793.474-14.792.474-1.856.059c-.347.011-.348.552,0,.54Z" transform="translate(-3184.699 -905.073)" fill="#fff"/>
    </g>
    <g id="Grupo_5138" data-name="Grupo 5138" transform="translate(73.156 67.36)">
      <path id="Caminho_14377" data-name="Caminho 14377" d="M3263.017,828.229a22.805,22.805,0,0,0,10.508,12.645,25.411,25.411,0,0,0,6.022,2.321,56.3,56.3,0,0,0,6.8,1.219c2.4.309,4.813.527,7.229.683,4.86.315,9.731.383,14.6.456s9.747.149,14.609.481q.9.062,1.8.135c.346.028.345-.512,0-.54-4.777-.389-9.571-.507-14.361-.585s-9.583-.117-14.369-.357a96.67,96.67,0,0,1-14.118-1.549,29.45,29.45,0,0,1-6.447-1.979,21.644,21.644,0,0,1-4.733-2.948,22.307,22.307,0,0,1-6.539-8.819q-.261-.646-.48-1.307c-.109-.328-.631-.187-.521.144Z" transform="translate(-3263.002 -827.898)" fill="#fff"/>
    </g>
    <g id="Grupo_5372" data-name="Grupo 5372">
      <path id="Caminho_14364" data-name="Caminho 14364" d="M3304.407,749.918c0,.983-.316,1.781-.706,1.781s-.706-.8-.706-1.781.316-1.781.706-1.781S3304.407,748.934,3304.407,749.918Z" transform="translate(-3213.881 -712.605)" fill="#111c3a"/>
      <path id="Caminho_14365" data-name="Caminho 14365" d="M3283.356,750.992c0,.984-.316,1.781-.706,1.781s-.705-.8-.705-1.781.316-1.781.705-1.781S3283.356,750.008,3283.356,750.992Z" transform="translate(-3201.23 -713.252)" fill="#111c3a"/>
      <g id="Grupo_5140" data-name="Grupo 5140" transform="translate(87.652 32.311)">
        <path id="Caminho_14379" data-name="Caminho 14379" d="M3299.942,741.4a1.922,1.922,0,0,1,2.9.113.363.363,0,0,0,.51,0,.368.368,0,0,0,0-.509,2.638,2.638,0,0,0-3.92-.114c-.323.333.186.843.509.51Z" transform="translate(-3299.33 -740.069)" fill="#111c3a"/>
      </g>
      <g id="Grupo_5141" data-name="Grupo 5141" transform="translate(79.785 32.311)">
        <path id="Caminho_14380" data-name="Caminho 14380" d="M3280.227,741.4a1.922,1.922,0,0,1,2.9.113.363.363,0,0,0,.51,0,.368.368,0,0,0,0-.509,2.638,2.638,0,0,0-3.919-.114c-.323.333.186.843.509.51Z" transform="translate(-3279.614 -740.069)" fill="#111c3a"/>
      </g>
      <g id="Grupo_5142" data-name="Grupo 5142" transform="translate(82.029 35.086)">
        <path id="Caminho_14381" data-name="Caminho 14381" d="M3287.187,747.467a7.893,7.893,0,0,1-1.845,7.631c-.321.334.188.844.509.51a8.627,8.627,0,0,0,2.03-8.332.36.36,0,0,0-.694.191Z" transform="translate(-3285.239 -747.023)" fill="#111c3a"/>
      </g>
      <path id="Caminho_14378" data-name="Caminho 14378" d="M3288.878,779.584a4.1,4.1,0,0,0,4.6-1.037,3.751,3.751,0,0,0,.742-1.239.363.363,0,0,0-.251-.443.368.368,0,0,0-.443.251,3.351,3.351,0,0,1-4.283,1.846.371.371,0,0,0-.493.129.363.363,0,0,0,.129.493Z" transform="translate(-3205.291 -729.861)" fill="#f9696a"/>
    </g>
    <g id="Grupo_5144" data-name="Grupo 5144" transform="translate(114.113 113.585)">
      <path id="Caminho_14608" data-name="Caminho 14608" d="M3366.313,970.887l1.768-2.947,4.092-6.822,4.6-7.668,3.29-5.486c.2-.326.388-.654.587-.978a4.619,4.619,0,0,1,2.006-1.8,11.793,11.793,0,0,1,1.971-.581l.641-.167a.36.36,0,0,0-.192-.694,9.286,9.286,0,0,0-3.984,1.6,6.807,6.807,0,0,0-1.342,1.736l-2.929,4.884-4.557,7.6-4.338,7.233-1.481,2.469c-.237.4-.511.786-.718,1.2-.01.019-.022.037-.033.055a.361.361,0,0,0,.622.364Z" transform="translate(-3365.637 -943.732)" fill="#fff"/>
    </g>
  </g>
  <g id="Grupo_5161" data-name="Grupo 5161" transform="translate(251.906 132.029)">
    <path id="Caminho_14609" data-name="Caminho 14609" d="M3326.043,881.361l-44.406.014a.627.627,0,0,1-.413-1.1l.19-.166a16.49,16.49,0,0,1,6.665-3.532l13.881-3.641a12.247,12.247,0,0,0,4.267-2.069l1.459-1.1a11.66,11.66,0,0,0,4.3-6.512l20.211-81.869,33.05-9.915-27.008,100.537A12.628,12.628,0,0,1,3326.043,881.361Z" transform="translate(-3280.506 -667.621)" fill="#fba5a6"/>
    <path id="Caminho_14610" data-name="Caminho 14610" d="M3405.746,748.922l9.925-39,36.064,8.28L3433.65,758.93C3426.777,753.425,3411.175,748.054,3405.746,748.922Z" transform="translate(-3355.467 -630.634)" fill="#560bad"/>
    <path id="Caminho_14611" data-name="Caminho 14611" d="M3590.8,858.56h0a61.588,61.588,0,0,1,10.26,36.681l-1.6,38.32-42.013.422-2.1-20.584-3.917,20.162-44.694.165,9.2-46.968Z" transform="translate(-3416.159 -719.957)" fill="#111c3a"/>
    <path id="Caminho_14612" data-name="Caminho 14612" d="M3543.214,720.137c-21.567-31.947-26.306-72.446-26.306-72.446-3.61-12.618-16.442-20.6-31.031-19.346-10.945.938-30.681,8.579-42.312,15.387-10.8,6.321-15.349,14.3-15.942,23.6a32.381,32.381,0,0,0,8.267,23.571l9.365,10.486c11,18.069,20.064,36.52,23.1,46.943Z" transform="translate(-3368.575 -581.534)" fill="#480ca8"/>
    <path id="Caminho_14613" data-name="Caminho 14613" d="M3500.25,598.237l-2.492,8.006a12.778,12.778,0,0,1-23.485,2.2h0l-7.208-25.713,19.781-7.578Z" transform="translate(-3392.316 -549.642)" fill="#fba5a6"/>
    <path id="Caminho_14614" data-name="Caminho 14614" d="M3449.465,575.959c1.334-.409,2.65-.95,4-1.409l4.732-1.6,5.3-1.8,4.907-1.663,3.556-1.206c.071-.024,1.261-.382,1.255-.426l-3.662-32.282a6.056,6.056,0,0,0-7.578-4.88l-27,7.387a3.93,3.93,0,0,0-2.667,1.87c-.2.5-.466.938-.7,1.42a11.341,11.341,0,0,0-.166,8.206c.827,2.7,2.615,4.669,3.727,7.159,1.923,4.307.6,9.5,2.314,13.972a8.967,8.967,0,0,0,6.553,5.7A10.7,10.7,0,0,0,3449.465,575.959Z" transform="translate(-3370.5 -522.797)" fill="#fba5a6"/>
    <path id="Caminho_14619" data-name="Caminho 14619" d="M3489.265,619.864l-8.419,9.325,1.367,4.781S3486.6,633.089,3489.265,619.864Z" transform="translate(-3400.597 -576.514)" fill="#111c3a"/>
    <path id="Caminho_14620" data-name="Caminho 14620" d="M3400.822,530.925a11.756,11.756,0,0,1,.346-2.827c1.121-4.579,4.678-8.217,8.666-10.73,7.571-4.769,16.656-6.056,25.449-6.049,3.583,0,8.7-.5,12.011.914a11.982,11.982,0,0,1,3.543,2.518,7.255,7.255,0,0,1,1.265,1.81c.2.371,0,.235.381.358a7.93,7.93,0,0,1,2.223.85,9.2,9.2,0,0,1,3.041,3.824c2.5,5.392,1.992,11.673.167,17.185a27.906,27.906,0,0,0-.721,3.92c-.3,1.651-.6,3.3-.875,4.956-.159.968-.78,6.389-2.606,3.97a32.555,32.555,0,0,1-4.2-7.305c-.866-2.127-1.067-4.922-1.958-6.978q-.424-.138-.836-.308a24.054,24.054,0,0,1-2.666,1.427,3.613,3.613,0,0,1-2.441.358c-1.242-.385-1.786-1.8-2.164-3.048a18.786,18.786,0,0,0-.958-3.578,11.707,11.707,0,0,1-16.019,1.565l-.043-.009c-2.908,2.638-6.114,5-9.873,6.023C3406,541.559,3400.835,537.066,3400.822,530.925Z" transform="translate(-3352.507 -511.233)" fill="#111c3a"/>
    <ellipse id="Elipse_258" data-name="Elipse 258" cx="7.911" cy="5.992" rx="7.911" ry="5.992" transform="translate(85.457 36.054) rotate(-76.633)" fill="#fba5a6"/>
    <g id="Grupo_5148" data-name="Grupo 5148" transform="translate(91.647 25.203)">
      <path id="Caminho_14621" data-name="Caminho 14621" d="M3509.972,575.333a2.607,2.607,0,0,1,2.833,1.6,4.777,4.777,0,0,1-.035,3.539c-.188.552.69.779.878.229a5.545,5.545,0,0,0-.136-4.379,3.485,3.485,0,0,0-3.774-1.868c-.573.115-.335.99.235.876Z" transform="translate(-3509.408 -574.39)" fill="#111c3a"/>
    </g>
    <path id="Caminho_14622" data-name="Caminho 14622" d="M3604.887,817.4l15.278-56.03,4.246,48.53Z" transform="translate(-3475.138 -661.548)" fill="#111c3a"/>
    <path id="Caminho_14623" data-name="Caminho 14623" d="M3513.521,756l-10.787-45.489-1.931-42.164a2.522,2.522,0,0,0-4.44-1.518c-8.609,10.108-15.74,8.3-19.523,5.993a2.516,2.516,0,0,0-3.763,1.658l-9.415,45.929,2.641,2.925,1.718,2.568c12.025,19.338,18.255,33.182,21.629,43.795Z" transform="translate(-3390.271 -604.201)" fill="#7209b7"/>
    <path id="Caminho_14624" data-name="Caminho 14624" d="M3473.731,877.9l-44.406.014a.627.627,0,0,1-.413-1.1l.19-.166a16.492,16.492,0,0,1,6.665-3.532l14.281-3.746a10.145,10.145,0,0,0,3.536-1.715h0a17.968,17.968,0,0,0,6.623-10.038l21.514-87.149c6.2-6.392,26.061-6.782,30.226,1.524l-26.023,96.553A12.629,12.629,0,0,1,3473.731,877.9Z" transform="translate(-3369.258 -664.16)" fill="#fba5a6"/>
    <g id="Grupo_5149" data-name="Grupo 5149" transform="translate(0 116.891)">
      <path id="Caminho_14625" data-name="Caminho 14625" d="M3280.265,900.863a7.317,7.317,0,0,1,4.5-3.707,46.408,46.408,0,0,1,7.095-1.665c4.892-.958,9.938-2.063,14.056-5.031a15.5,15.5,0,0,0,4.61-5.141,27.811,27.811,0,0,0,2.419-6.9c1.318-5.515,2.512-11.062,3.763-16.592,1.269-5.607,12.128-49.629,13.4-55.237q.236-1.041.471-2.081c.08-.355-.466-.507-.546-.151-1.269,5.608-12.128,49.63-13.4,55.237l-3.807,16.822a40.825,40.825,0,0,1-2.064,7.12,15.1,15.1,0,0,1-4.139,5.663c-3.83,3.234-8.816,4.52-13.62,5.491-2.479.5-5.015.871-7.439,1.6a9.783,9.783,0,0,0-5.052,3.033,5.674,5.674,0,0,0-.736,1.251c-.142.332.346.621.489.286Z" transform="translate(-3279.75 -804.152)" fill="#fff"/>
    </g>
    <g id="Grupo_5150" data-name="Grupo 5150" transform="translate(22.534 205.834)">
      <path id="Caminho_14626" data-name="Caminho 14626" d="M3338.086,1034.549a3.114,3.114,0,0,1-1.19-1.066,1.012,1.012,0,0,1,.276-1.254,3.548,3.548,0,0,1,1.474-.7,16.35,16.35,0,0,1,2.108-.429c2.623-.375,5.337-.329,7.837-1.316a7.73,7.73,0,0,0,3.246-2.266.292.292,0,0,0,0-.4.285.285,0,0,0-.4,0c-1.6,1.984-4.208,2.683-6.631,2.983-1.5.186-3.019.265-4.516.5a14.291,14.291,0,0,0-2.148.488,3.419,3.419,0,0,0-1.477.847,1.563,1.563,0,0,0-.292,1.767,3.51,3.51,0,0,0,1.427,1.337c.312.192.6-.3.286-.489Z" transform="translate(-3336.218 -1027.034)" fill="#f9696a"/>
    </g>
    <g id="Grupo_5152" data-name="Grupo 5152" transform="translate(91.619 184.381)">
      <rect id="Retângulo_1111" data-name="Retângulo 1111" width="15.527" height="10.161" rx="2.486" transform="translate(7.341 0) rotate(16.33)" fill="#fff"/>
      <rect id="Retângulo_1112" data-name="Retângulo 1112" width="7.169" height="6.182" transform="translate(21.443 6.205) rotate(16.329)" fill="#fff"/>
      <path id="Caminho_14627" data-name="Caminho 14627" d="M3514.971,981.827l-5.632-1.65,1.483-6.007,5.887,1.725Z" transform="translate(-3509.339 -973.813)" fill="#fff"/>
      <path id="Caminho_14628" data-name="Caminho 14628" d="M3535.466,987.725a1.174,1.174,0,0,1-.331-.048l-12.064-3.534a1.177,1.177,0,0,1-.8-1.459l2.026-6.915a1.181,1.181,0,0,1,1.127-.845,1.169,1.169,0,0,1,.331.048l12.064,3.534a1.175,1.175,0,0,1,.8,1.458l-2.026,6.915A1.181,1.181,0,0,1,3535.466,987.725Z" transform="translate(-3517.083 -974.266)" fill="#d3d2d6"/>
      <path id="Caminho_14629" data-name="Caminho 14629" d="M3535.921,987.878a.865.865,0,0,1-.246-.036l-12.064-3.534a.874.874,0,0,1-.592-1.083l2.026-6.915a.872.872,0,0,1,1.083-.593l12.064,3.535a.874.874,0,0,1,.593,1.083l-2.026,6.915A.879.879,0,0,1,3535.921,987.878Z" transform="translate(-3517.538 -974.721)" fill="#111c3a"/>
      <g id="Grupo_5151" data-name="Grupo 5151" transform="translate(5.444 1.869)">
        <path id="Caminho_14630" data-name="Caminho 14630" d="M3529.109,977.959l-4.856,2.419-1.235,4.216a.873.873,0,0,0,.232.873l11.66-5.807Z" transform="translate(-3522.983 -977.959)" fill="#414961"/>
        <path id="Caminho_14631" data-name="Caminho 14631" d="M3529.787,989.8l10.956-6.066a.87.87,0,0,0-.258-.128l-2.317-.679-11.369,6Z" transform="translate(-3525.276 -980.944)" fill="#414961"/>
      </g>
    </g>
    <g id="Grupo_5153" data-name="Grupo 5153" transform="translate(137.738 177.134)">
      <path id="Caminho_14632" data-name="Caminho 14632" d="M3628.8,991.407c-.671-4.651-.957-9.344-1.323-14.025-.182-2.329-.382-4.657-.657-6.977-.281-2.36-.671-4.705-.947-7.066a47.027,47.027,0,0,1-.354-7.951c.019-.364-.548-.364-.567,0a44.985,44.985,0,0,0,.262,7.136c.252,2.368.64,4.716.94,7.078.591,4.664.852,9.36,1.239,14.044.219,2.645.481,5.286.86,7.913a.284.284,0,0,0,.348.2.29.29,0,0,0,.2-.348Z" transform="translate(-3624.91 -955.115)" fill="#fff"/>
    </g>
    <g id="Grupo_5154" data-name="Grupo 5154" transform="translate(158.643 153.071)">
      <path id="Caminho_14633" data-name="Caminho 14633" d="M3677.3,895.171a23.7,23.7,0,0,0,2.137,6.289,27.973,27.973,0,0,0,3.7,5.556,32.2,32.2,0,0,0,4.978,4.695,40.229,40.229,0,0,0,6.032,3.793,54.3,54.3,0,0,0,6.578,2.836q.415.149.832.292c.345.119.494-.428.151-.546a55.392,55.392,0,0,1-6.516-2.688,41.6,41.6,0,0,1-6.034-3.612,32.322,32.322,0,0,1-5.056-4.526,27.885,27.885,0,0,1-3.785-5.332,23.561,23.561,0,0,1-2.31-6.1q-.089-.4-.164-.806c-.066-.358-.612-.206-.546.151Z" transform="translate(-3677.295 -894.816)" fill="#fff"/>
    </g>
    <g id="Grupo_5155" data-name="Grupo 5155" transform="translate(128.751 142.998)">
      <path id="Caminho_14634" data-name="Caminho 14634" d="M3602.736,889.242q4.778-1.516,9.538-3.089,4.738-1.577,9.435-3.273,4.708-1.711,9.348-3.6,4.6-1.886,9.1-4,4.519-2.14,8.893-4.57.537-.3,1.071-.6a.284.284,0,0,0-.286-.489q-4.326,2.466-8.817,4.625t-9.1,4.076q-4.583,1.907-9.248,3.612-4.685,1.724-9.423,3.3t-9.492,3.093l-1.173.373c-.346.11-.2.657.151.546Z" transform="translate(-3602.388 -869.573)" fill="#fff"/>
    </g>
    <g id="Grupo_5156" data-name="Grupo 5156" transform="translate(69.764 112.318)">
      <path id="Caminho_14635" data-name="Caminho 14635" d="M3454.644,793.187l3.732,4.382c1.2,1.413,2.411,2.827,3.485,4.343s2.025,3.083,2.98,4.659q1.415,2.333,2.781,4.7,2.72,4.7,5.243,9.52,2.532,4.835,4.861,9.772t4.437,9.941q.267.634.531,1.269c.138.332.687.186.547-.15q-2.107-5.075-4.422-10.059t-4.829-9.839q-2.518-4.868-5.238-9.627c-1.819-3.182-3.658-6.377-5.689-9.43a95.494,95.494,0,0,0-7.078-8.774l-.941-1.1c-.236-.278-.636.124-.4.4Z" transform="translate(-3454.572 -792.693)" fill="#fff"/>
    </g>
    <g id="Grupo_5371" data-name="Grupo 5371">
      <g id="Grupo_5146" data-name="Grupo 5146" transform="translate(70.336 25.961)">
        <path id="Caminho_14615" data-name="Caminho 14615" d="M3461.225,577.291a4.393,4.393,0,0,0-2.433.212,3.792,3.792,0,0,0-2,1.2.457.457,0,0,1-.641.022.464.464,0,0,1-.021-.641,4.634,4.634,0,0,1,2.406-1.451,5.265,5.265,0,0,1,2.906-.224.454.454,0,0,1-.214.881Z" transform="translate(-3456.009 -576.288)" fill="#111c3a"/>
      </g>
      <g id="Grupo_5147" data-name="Grupo 5147" transform="translate(62.668 28.463)">
        <path id="Caminho_14616" data-name="Caminho 14616" d="M3441.475,583.586a3.472,3.472,0,0,0-2.118.117,3.041,3.041,0,0,0-1.71,1.041.467.467,0,0,1-.614.184.458.458,0,0,1-.184-.615,3.909,3.909,0,0,1,2.179-1.457,4.381,4.381,0,0,1,2.661-.151.466.466,0,0,1,.333.548.457.457,0,0,1-.548.333Z" transform="translate(-3436.79 -582.556)" fill="#111c3a"/>
      </g>
      <path id="Caminho_14617" data-name="Caminho 14617" d="M3464.345,588.6c.263.88.759,1.509,1.108,1.405s.418-.9.155-1.782-.759-1.509-1.107-1.405S3464.082,587.722,3464.345,588.6Z" transform="translate(-3390.586 -556.648)" fill="#111c3a"/>
      <path id="Caminho_14618" data-name="Caminho 14618" d="M3444.216,593.975c.263.88.759,1.509,1.107,1.405s.418-.9.155-1.782-.759-1.509-1.107-1.405S3443.953,593.1,3444.216,593.975Z" transform="translate(-3378.49 -559.879)" fill="#111c3a"/>
      <g id="Grupo_5157" data-name="Grupo 5157" transform="translate(69.52 32.781)">
        <path id="Caminho_14636" data-name="Caminho 14636" d="M3454.382,593.876a14.576,14.576,0,0,1-.4,7.693c-.16.487.608.7.767.212a15.392,15.392,0,0,0,.4-8.116c-.11-.5-.876-.288-.767.211Z" transform="translate(-3453.961 -593.379)" fill="#111c3a"/>
      </g>
      <g id="Grupo_5158" data-name="Grupo 5158" transform="translate(71.055 41.689)">
        <path id="Caminho_14637" data-name="Caminho 14637" d="M3458.19,621.072a5.943,5.943,0,0,0,6.292-4.872c.086-.5-.68-.716-.767-.211a5.248,5.248,0,0,1-1.808,3.163,5.178,5.178,0,0,1-3.717,1.125c-.51-.042-.507.754,0,.8Z" transform="translate(-3457.808 -615.701)" fill="#f9696a"/>
      </g>
    </g>
    <g id="Grupo_5159" data-name="Grupo 5159" transform="translate(119.756 95.418)">
      <path id="Caminho_14638" data-name="Caminho 14638" d="M3606.317,750.622c-1.866,6.289-3.649,12.6-5.423,18.919q-3.4,12.1-6.729,24.223-3.347,12.153-6.659,24.315-2.615,9.6-5.215,19.2-.819,3.024-1.636,6.049c-.252.932-.564,1.868-.759,2.814-.009.041-.022.081-.033.122a.4.4,0,0,0,.767.212q.974-3.613,1.952-7.225,2.464-9.1,4.941-18.2,3.264-11.987,6.555-23.965,3.372-12.265,6.794-24.517c1.856-6.627,3.721-13.252,5.659-19.855q.275-.936.553-1.872a.4.4,0,0,0-.767-.212Z" transform="translate(-3579.847 -750.342)" fill="#fff"/>
    </g>
  </g>
  <g id="Grupo_5166" data-name="Grupo 5166" transform="translate(0 175.015)">
    <path id="Caminho_14848" data-name="Caminho 14848" d="M2781.532,807.958c-5.784-4.92-8.192-26.387-3.271-32.171l17.448-1.584,19.13-46.671c3.843-6.583,17.449,4.03,24.98,5.007l-13.446,55.145a24.427,24.427,0,0,1-21.662,18.352Z" transform="translate(-2724.884 -682.918)" fill="#fba5a6"/>
    <rect id="Retângulo_1113" data-name="Retângulo 1113" width="107.654" height="76.66" rx="20" transform="translate(216.398 76.66) rotate(180)" fill="#480ca8"/>
    <path id="Caminho_14849" data-name="Caminho 14849" d="M3123.557,638.607a2.239,2.239,0,1,0,2.239-2.239A2.239,2.239,0,0,0,3123.557,638.607Z" transform="translate(-2933.981 -629.419)" fill="#fff"/>
    <path id="Caminho_14850" data-name="Caminho 14850" d="M3143.569,638.607a2.239,2.239,0,1,0,2.239-2.239A2.239,2.239,0,0,0,3143.569,638.607Z" transform="translate(-2946.007 -629.419)" fill="#fff"/>
    <path id="Caminho_14851" data-name="Caminho 14851" d="M3163.581,638.607a2.239,2.239,0,1,0,2.239-2.239A2.239,2.239,0,0,0,3163.581,638.607Z" transform="translate(-2958.033 -629.419)" fill="#fff"/>
    <path id="Caminho_14852" data-name="Caminho 14852" d="M2874.743,674.45s3.06-11.281,6.587-17.361,12.083-17.331,12.525-18.848c.426-1.459,4.864,1.581,2.918,6.566s-3.649,6.512-3.571,13.362c.043,3.837.014,7.472.014,7.472s4.713,4.36-.014,15.42C2892.306,683.158,2882.088,680.468,2874.743,674.45Z" transform="translate(-2784.458 -630.324)" fill="#fba5a6"/>
    <path id="Caminho_14853" data-name="Caminho 14853" d="M2725.476,695.891c6.083-3.238,14.346-4.491,20.988-2.114,7.02,2.512,5.778,10.045,3.6,15.334a77.1,77.1,0,0,0-3.721,11.538c-2.76,11.6-.293,22.536-10.407,31.107-4.424,3.75-9.833,6.546-15.613,7.019s-11.917-1.63-15.528-6.168a17.342,17.342,0,0,1-3.488-8.926c-.428-3.781,1.041-7.209.963-10.844-.026-1.221-.729-2.221-.636-3.455.148-1.962,1.684-4.365,2.459-6.161a92.147,92.147,0,0,1,6.335-12.459C2714.212,704.715,2719.178,699.243,2725.476,695.891Z" transform="translate(-2680.185 -663.178)" fill="#111c3a"/>
    <path id="Caminho_14854" data-name="Caminho 14854" d="M2747.643,785.312h20.837l-3.079-33.163h-15.641Z" transform="translate(-2708.078 -698.997)" fill="#fba5a6"/>
    <path id="Caminho_14855" data-name="Caminho 14855" d="M2786.876,779.342l-5.29-1.258s2.041,3.631,5.581,4.4Z" transform="translate(-2728.476 -714.582)" fill="#111c3a"/>
    <path id="Caminho_14856" data-name="Caminho 14856" d="M2741.346,695.774l23.781-.553a4.615,4.615,0,0,1,4.723,4.614v4.7a15.626,15.626,0,0,0,1.7,7.316c.8,1.466,1.971,2.47,2.516,4.171a10.488,10.488,0,0,1,.236,5.594,11.831,11.831,0,0,1-3.911,6.074c-3.7,3.1-9.955,1.85-14.415,1.85H2740.04l-3.677-27.956A5.146,5.146,0,0,1,2741.346,695.774Z" transform="translate(-2701.272 -664.786)" fill="#fba5a6"/>
    <path id="Caminho_14859" data-name="Caminho 14859" d="M2724.507,820.169h-52.994q-.3-.013-.609-.014a13.137,13.137,0,0,0-12.94,14.09l.977,76.654,67.154-.239,10.793-76.2A12.508,12.508,0,0,0,2724.507,820.169Z" transform="translate(-2654.169 -739.865)" fill="#4361ee"/>
    <path id="Caminho_14860" data-name="Caminho 14860" d="M2834.816,837.5l-15.29,28.522-27.954-14.783a16.181,16.181,0,0,1-6.615-21.906h0a16.181,16.181,0,0,1,21.906-6.616Z" transform="translate(-2729.345 -740.251)" fill="#4361ee"/>
    <path id="Caminho_14861" data-name="Caminho 14861" d="M2816.357,902.379l12.236,6.924-7.3,50.771h-2.7Z" transform="translate(-2749.372 -789.276)" fill="#111c3a"/>
    <path id="Caminho_14862" data-name="Caminho 14862" d="M2864.892,853.976c-2.2-7.269,7.41-26.617,14.68-28.813l15.523,8.121,41.364-28.864c6.8-3.451,12.484,12.841,18.284,17.742l-41.178,39.066a24.425,24.425,0,0,1-28.149,3.689Z" transform="translate(-2778.346 -730.123)" fill="#fba5a6"/>
    <path id="Caminho_14863" data-name="Caminho 14863" d="M2659.082,705.731v-.087c.066-4.767-.468-9.548-.013-14.293,2.469-25.743,27.32-32.364,49.355-29.929a22.952,22.952,0,0,1,9.567,2.763,10.611,10.611,0,0,1,4.957,6.029,11.594,11.594,0,0,1-.978,7.784c-2.034,4.489-6.887,7.4-11.724,7.772a13.552,13.552,0,0,1-3.36-.153c1.022.206,1.2,11.276,1.282,12.4.681,9.212,1.59,18.464,1.854,27.7a73.222,73.222,0,0,1-.5,11.574c-1.274,9.751-5.573,20.341-13.155,26.864a33.1,33.1,0,0,1-11.924,6.5,34.935,34.935,0,0,1-13.584,1.354,32.84,32.84,0,0,1-7.99-1.808c-11.223-4.086-15.263-17.218-14.209-28.069.6-6.216,4.089-10.48,6.375-16.234A57.124,57.124,0,0,0,2659.082,705.731Z" transform="translate(-2648.498 -644.193)" fill="#111c3a"/>
    <path id="Caminho_14864" data-name="Caminho 14864" d="M2792.248,731.9c1.824,3.159,1.363,6.841-1.03,8.222s-5.812-.059-7.636-3.219-1.363-6.841,1.03-8.223S2790.424,728.739,2792.248,731.9Z" transform="translate(-2729.005 -684.578)" fill="#fba5a6"/>
    <g id="Grupo_5373" data-name="Grupo 5373">
      <path id="Caminho_14857" data-name="Caminho 14857" d="M2816.982,731.969c.248.843.721,1.447,1.055,1.348s.4-.862.155-1.7-.721-1.447-1.055-1.348S2816.734,731.126,2816.982,731.969Z" transform="translate(-2749.658 -685.84)" fill="#111c3a"/>
      <g id="Grupo_5162" data-name="Grupo 5162" transform="translate(65.705 41.451)">
        <path id="Caminho_14858" data-name="Caminho 14858" d="M2816.928,724.216a2.24,2.24,0,0,0-1.678-.5,2.634,2.634,0,0,0-1.363,1.111.436.436,0,0,1-.613,0,.445.445,0,0,1,0-.614,3.193,3.193,0,0,1,1.8-1.345,3.057,3.057,0,0,1,2.291.6.446.446,0,0,1,.156.594.437.437,0,0,1-.594.156Z" transform="translate(-2813.15 -722.829)" fill="#111c3a"/>
      </g>
    </g>
    <g id="Grupo_5163" data-name="Grupo 5163" transform="translate(55.9 45.963)">
      <path id="Caminho_14865" data-name="Caminho 14865" d="M2788.634,735.3a2.9,2.9,0,0,1,3.372-.977,4.6,4.6,0,0,1,2.548,2.628.391.391,0,0,1-.136.518.38.38,0,0,1-.518-.136,4.057,4.057,0,0,0-1.955-2.224,2.179,2.179,0,0,0-2.657.573.391.391,0,0,1-.518.136.381.381,0,0,1-.136-.518Z" transform="translate(-2788.579 -734.136)" fill="#111c3a"/>
    </g>
    <g id="Grupo_5164" data-name="Grupo 5164" transform="translate(63.119 112.057)">
      <path id="Caminho_14866" data-name="Caminho 14866" d="M2858.475,925.664a109.849,109.849,0,0,1-10.352-4.257c-3.381-1.579-6.7-3.287-10-5.033q-5.183-2.745-10.323-5.572-5.172-2.839-10.3-5.75-2.576-1.461-5.142-2.941a11.02,11.02,0,0,0-4.287-1.83,3.781,3.781,0,0,0-1.073.052c-.322.063-.475-.429-.149-.493a6.486,6.486,0,0,1,4.282.983c1.653.888,3.26,1.867,4.89,2.8q5.167,2.947,10.375,5.821t10.437,5.663c3.318,1.771,6.652,3.516,10.042,5.144s6.83,3.137,10.357,4.432q.676.248,1.356.484c.31.108.2.611-.114.5Z" transform="translate(-2806.668 -899.759)" fill="#fff"/>
    </g>
    <path id="Caminho_14867" data-name="Caminho 14867" d="M2823.245,734.059s1.971,2.8,3.208,3.351-.892,2.178-.892,2.178Z" transform="translate(-2753.511 -688.126)" fill="#fba5a6"/>
    <path id="Caminho_14868" data-name="Caminho 14868" d="M3062.358,795.453l29.944-15.136a.443.443,0,0,0-.2-.838h-23.94a5.242,5.242,0,0,1-3.847-5.017c-.147-3.229,2.469-4.469,5.682-7.253,1.293-1.121,2.381-2.38,3.752-3.646,1.882-1.738,4.369-4.964-.207-5.052a9.441,9.441,0,0,0-6.167,2.184c-3.492,2.876-8.161,6.314-10.828,6.219-3.62-.129-11.037,3.325-11.836,10.2Z" transform="translate(-2886.6 -702.818)" fill="#fba5a6"/>
    <path id="Caminho_15414" data-name="Caminho 15414" d="M3050.179,690.957l-19.073-11.012a2.033,2.033,0,0,0-3.05,1.761v22.024a2.033,2.033,0,0,0,3.05,1.761l19.073-11.012a2.033,2.033,0,0,0,0-3.522l-19.073-11.012a2.033,2.033,0,0,0-3.05,1.761v22.024a2.033,2.033,0,0,0,3.05,1.761l19.073-11.012A2.033,2.033,0,0,0,3050.179,690.957Z" transform="translate(-2876.591 -655.441)" fill="#fff"/>
  </g>
  <g id="Grupo_5169" data-name="Grupo 5169" transform="translate(110.077 286.592)">
    <path id="Retângulo_1114" data-name="Retângulo 1114" d="M2.985,0H42.643a2.883,2.883,0,0,1,2.883,2.883v.2a2.883,2.883,0,0,1-2.883,2.883H2.985A2.985,2.985,0,0,1,0,2.985v0A2.985,2.985,0,0,1,2.985,0Z" transform="translate(144.5 59.458) rotate(180)" fill="#0d152c"/>
    <path id="Caminho_15415" data-name="Caminho 15415" d="M2948.2,958.014h85.34a3.9,3.9,0,0,0,3.643-5.312l-19.952-51.649a3.905,3.905,0,0,0-3.643-2.5h-85.34a3.9,3.9,0,0,0-3.643,5.312l19.952,51.649A3.905,3.905,0,0,0,2948.2,958.014Z" transform="translate(-2924.34 -898.556)" fill="#111c3a"/>
    <path id="Caminho_15416" data-name="Caminho 15416" d="M3051.421,964.258a5.842,5.842,0,1,0,5.842-5.842A5.842,5.842,0,0,0,3051.421,964.258Z" transform="translate(-3000.708 -934.528)" fill="#414961"/>
    <g id="Grupo_5167" data-name="Grupo 5167" transform="translate(115.862 55.925)">
      <path id="Caminho_15417" data-name="Caminho 15417" d="M3219.626,1040.576a.288.288,0,0,1-.288-.288v-.6a.413.413,0,0,0-.412-.412h-3.959a.288.288,0,0,1,0-.576h3.959a.989.989,0,0,1,.988.989v.6A.288.288,0,0,1,3219.626,1040.576Z" transform="translate(-3214.679 -1038.699)" fill="#293241"/>
    </g>
    <g id="Grupo_5168" data-name="Grupo 5168" transform="translate(122.07 55.78)">
      <path id="Caminho_15418" data-name="Caminho 15418" d="M3235.17,1040.207a.287.287,0,0,1-.288-.287v-.6a.411.411,0,0,0-.411-.411h-3.949a.288.288,0,0,1,0-.575h3.949a.987.987,0,0,1,.986.986v.6A.287.287,0,0,1,3235.17,1040.207Z" transform="translate(-3230.235 -1038.335)" fill="#293241"/>
    </g>
  </g>
  <g id="Grupo_5171" data-name="Grupo 5171" transform="translate(36.116 73.812)">
    <rect id="Retângulo_1115" data-name="Retângulo 1115" width="137.511" height="74.088" rx="10" transform="translate(0.598 0)" fill="#fff"/>
    <path id="Caminho_15419" data-name="Caminho 15419" d="M2868.051,365.349H2750.462a9.961,9.961,0,0,0-9.961,9.961v8.727h137.511V375.31A9.961,9.961,0,0,0,2868.051,365.349Z" transform="translate(-2739.903 -365.349)" fill="#f72585"/>
    <path id="Caminho_15420" data-name="Caminho 15420" d="M2920.144,388.742h-81.238a3.056,3.056,0,0,1-3.056-3.056h0a3.057,3.057,0,0,1,3.056-3.057h81.238a3.057,3.057,0,0,1,3.056,3.057h0A3.056,3.056,0,0,1,2920.144,388.742Z" transform="translate(-2797.202 -375.733)" fill="#fff"/>
    <path id="Caminho_15421" data-name="Caminho 15421" d="M2780.729,388.742h8.044a3.056,3.056,0,0,0,3.057-3.056h0a3.057,3.057,0,0,0-3.057-3.057h-8.044a3.057,3.057,0,0,0-3.056,3.057h0A3.056,3.056,0,0,0,2780.729,388.742Z" transform="translate(-2762.241 -375.733)" fill="#fff"/>
    <rect id="Retângulo_1116" data-name="Retângulo 1116" width="21.649" height="21.649" rx="4" transform="translate(11.686 28.064)" fill="#b3cdfa"/>
    <rect id="Retângulo_1117" data-name="Retângulo 1117" width="90.753" height="3.668" transform="translate(40.088 28.064)" fill="#b3cdfa"/>
    <rect id="Retângulo_1118" data-name="Retângulo 1118" width="90.753" height="3.668" transform="translate(40.088 37.054)" fill="#b3cdfa"/>
    <rect id="Retângulo_1119" data-name="Retângulo 1119" width="90.753" height="3.668" transform="translate(40.088 46.045)" fill="#b3cdfa"/>
    <rect id="Retângulo_1120" data-name="Retângulo 1120" width="119.156" height="3.668" transform="translate(11.686 55.035)" fill="#b3cdfa"/>
    <rect id="Retângulo_1121" data-name="Retângulo 1121" width="119.156" height="3.668" transform="translate(11.686 64.026)" fill="#b3cdfa"/>
    <g id="Grupo_5170" data-name="Grupo 5170" transform="translate(0 25.325)">
      <path id="Caminho_15422" data-name="Caminho 15422" d="M2867.15,478.172H2749.562A10.571,10.571,0,0,1,2739,467.613v-38.2a.6.6,0,0,1,1.2,0v38.2a9.373,9.373,0,0,0,9.362,9.362H2867.15a9.374,9.374,0,0,0,9.363-9.362V437.39a.6.6,0,0,1,1.2,0v30.223A10.572,10.572,0,0,1,2867.15,478.172Z" transform="translate(-2739.002 -428.81)" fill="#4361ee"/>
    </g>
  </g>
  <g id="Grupo_5172" data-name="Grupo 5172" transform="translate(126.603 4.24)">
    <path id="Caminho_15423" data-name="Caminho 15423" d="M3223.365,348.559h0a.6.6,0,0,1-.6-.6V216.626a24.421,24.421,0,0,0-24.421-24.421H2966.351a.6.6,0,0,1-.6-.6h0a.6.6,0,0,1,.6-.6h231.995a25.618,25.618,0,0,1,25.618,25.618V347.96A.6.6,0,0,1,3223.365,348.559Z" transform="translate(-2965.752 -191.008)" fill="#4361ee"/>
  </g>
  <circle id="Elipse_259" data-name="Elipse 259" cx="4.672" cy="4.672" r="4.672" transform="translate(170.831)" fill="#f72585"/>
  <circle id="Elipse_260" data-name="Elipse 260" cx="4.672" cy="4.672" r="4.672" transform="translate(377.607 111.622) rotate(-45)" fill="#f72585"/>
</svg>
